<?xml version="1.0" standalone="no"?>
<!DOCTYPE svg PUBLIC "-//W3C//DTD SVG 20010904//EN"
 "http://www.w3.org/TR/2001/REC-SVG-20010904/DTD/svg10.dtd">
<svg version="1.0" xmlns="http://www.w3.org/2000/svg"
 width="418.000000pt" height="366.000000pt" viewBox="0 0 418.000000 366.000000"
 preserveAspectRatio="xMidYMid meet">

<g transform="translate(0.000000,366.000000) scale(0.100000,-0.100000)"
fill="#000000" stroke="none">
<path d="M2120 2834 c0 -78 2 -85 18 -79 9 3 69 17 132 29 64 13 126 30 138
37 17 11 24 11 30 2 15 -24 94 -19 195 14 45 14 47 16 45 49 l-2 34 -278 0
-278 0 0 -86z"/>
<path d="M3160 2420 l0 -500 510 0 510 0 0 500 0 500 -510 0 -510 0 0 -500z"/>
<path d="M3101 2844 c-12 -9 -28 -13 -35 -11 -8 3 -25 -1 -40 -8 -19 -10 -26
-11 -27 -2 0 7 -4 3 -9 -8 -5 -12 -9 -14 -9 -6 -1 11 -5 11 -19 -2 -10 -10
-22 -14 -25 -10 -4 3 -7 1 -7 -7 0 -10 -3 -10 -15 0 -13 10 -15 9 -15 -8 0
-13 -8 -22 -21 -24 -25 -4 -60 -58 -41 -65 6 -3 12 -10 12 -16 0 -16 -44 -57
-61 -57 -12 0 -12 -2 0 -9 11 -7 9 -10 -7 -15 -23 -8 -37 -35 -23 -49 5 -5 15
0 24 13 l14 21 8 -23 c13 -39 14 -61 2 -49 -20 20 -43 11 -54 -20 -13 -35 -9
-53 10 -43 8 4 7 2 -1 -7 -10 -11 -14 -11 -21 -1 -12 19 -75 1 -79 -22 -3 -11
0 -16 7 -12 6 4 14 0 17 -8 9 -23 31 -20 45 5 6 12 14 18 18 13 3 -5 15 -14
25 -20 11 -6 22 -16 24 -24 3 -7 0 -10 -6 -6 -6 3 -12 0 -15 -6 -3 -9 -10 -7
-21 7 -15 19 -15 19 -16 -14 0 -27 -3 -31 -14 -22 -11 9 -15 7 -19 -9 -5 -21
-41 -28 -52 -10 -4 6 -11 7 -17 4 -6 -4 -25 -8 -41 -10 -16 -1 -32 -6 -36 -11
-3 -6 -19 -14 -36 -20 -17 -5 -32 -18 -33 -29 -2 -10 -9 -23 -14 -29 -8 -7 -9
-6 -4 3 4 7 1 15 -8 18 -9 3 -14 10 -11 14 3 4 -3 11 -12 14 -10 4 -14 4 -11
0 4 -4 3 -16 -3 -27 -8 -14 -8 -18 0 -13 13 8 13 -10 1 -39 -8 -19 -8 -19 -17
4 l-10 25 -6 -31 c-7 -35 -45 -52 -63 -28 -15 20 -22 19 -26 -2 -3 -14 -9 -10
-26 17 -26 42 -35 42 -42 -2 -3 -23 -11 -34 -25 -36 -34 -7 -46 -22 -34 -43
10 -20 3 -24 -20 -10 -7 5 -11 13 -7 19 3 6 1 12 -6 15 -7 2 -6 3 2 2 9 -1 21
4 28 11 15 16 4 47 -14 40 -12 -5 -43 22 -36 31 2 3 1 7 -2 10 -3 4 -6 -60 -6
-140 l0 -147 510 0 510 0 0 129 0 130 -32 -5 c-18 -2 -34 -7 -36 -12 -1 -5
-15 -7 -31 -4 -16 2 -32 -1 -35 -7 -4 -6 -2 -11 4 -11 6 0 8 -4 5 -10 -3 -5
-15 -10 -25 -10 -10 0 -23 -8 -29 -17 -5 -10 -13 -15 -16 -11 -4 4 -14 1 -22
-7 -12 -13 -16 -13 -29 -1 -18 18 -18 26 1 26 17 0 39 36 30 50 -10 16 -43 11
-54 -7 -9 -17 -11 -17 -25 2 -8 11 -16 16 -16 11 0 -5 -6 -3 -14 3 -11 9 -17
8 -28 -2 -16 -16 -72 -32 -103 -29 -12 1 -6 -5 15 -15 20 -9 62 -17 97 -18 34
0 66 -4 70 -8 16 -17 -16 -42 -82 -64 -83 -28 -85 -28 -85 -5 -1 18 -22 52
-34 52 -3 0 -6 -15 -6 -34 0 -31 -3 -34 -36 -40 -22 -5 -41 -3 -50 5 -8 6 -23
9 -33 6 -11 -3 -22 0 -24 6 -3 10 -8 9 -104 -41 -49 -26 -76 -28 -93 -7 -7 8
-20 15 -29 15 -9 0 -24 6 -33 14 -16 12 -16 14 3 29 10 9 27 17 37 17 10 0 23
5 30 12 14 14 77 38 117 44 60 10 76 15 71 23 -3 4 1 17 9 27 8 11 14 14 15 7
0 -7 7 -13 15 -13 8 0 15 -6 15 -12 0 -7 10 -1 21 15 11 15 27 27 35 27 7 0
11 6 8 14 -7 17 37 30 48 13 5 -7 8 -1 8 16 0 15 -4 27 -10 27 -5 0 -10 5 -10
10 0 6 12 10 26 10 18 0 28 -6 31 -21 6 -21 6 -21 19 2 11 20 13 21 14 5 0
-16 2 -17 16 -5 14 11 18 11 28 -3 9 -13 13 -13 24 -2 13 14 57 20 49 7 -3 -5
24 -9 59 -10 53 -2 66 1 72 15 7 18 32 28 32 13 0 -13 58 -19 70 -7 8 8 14 6
20 -4 7 -10 10 20 10 88 0 78 -4 107 -15 118 -13 13 -16 12 -27 -6 -7 -11 -20
-20 -28 -20 -8 -1 -31 -7 -52 -14 -32 -12 -38 -11 -52 6 -9 10 -16 27 -16 38
0 13 -13 29 -35 41 -19 12 -35 23 -35 26 0 2 5 1 10 -2 6 -3 13 1 16 9 3 9 14
16 24 16 26 0 71 26 62 36 -4 4 1 2 10 -5 9 -7 22 -10 28 -6 6 3 10 -3 10 -15
0 -12 -4 -18 -10 -15 -17 10 -11 -7 8 -22 9 -8 11 -12 5 -8 -8 4 -11 1 -7 -9
8 -20 34 -28 50 -15 7 6 10 17 7 25 -7 20 17 17 33 -3 11 -15 13 9 14 154 0
94 -4 174 -8 177 -5 3 -19 -2 -31 -10z m-31 -254 c0 -5 -4 -10 -10 -10 -5 0
-10 5 -10 10 0 6 5 10 10 10 6 0 10 -4 10 -10z m10 -76 c0 -8 -4 -12 -10 -9
-5 3 -10 13 -10 21 0 8 5 12 10 9 6 -3 10 -13 10 -21z m-230 -29 c0 -8 -2 -15
-4 -15 -2 0 -6 7 -10 15 -3 8 -1 15 4 15 6 0 10 -7 10 -15z m-2 -105 c-13 -21
-28 -27 -28 -10 0 5 8 14 18 19 23 14 24 14 10 -9z m152 -10 c0 -5 -7 -10 -15
-10 -8 0 -15 5 -15 10 0 6 7 10 15 10 8 0 15 -4 15 -10z m-103 -62 c-3 -8 -6
-5 -6 6 -1 11 2 17 5 13 3 -3 4 -12 1 -19z m-408 -144 c-15 -18 -22 -13 -13
10 3 9 10 13 16 10 5 -3 4 -12 -3 -20z"/>
<path d="M128 2821 c-11 -14 -11 -14 2 -5 8 6 38 11 65 11 28 0 57 -5 65 -11
13 -9 13 -9 2 5 -8 11 -28 16 -67 16 -39 0 -59 -5 -67 -16z"/>
<path d="M110 2792 c0 -7 19 -33 42 -58 l42 -46 43 45 c24 25 43 52 43 59 0 7
-6 4 -12 -7 -16 -30 -60 -75 -73 -75 -13 0 -57 45 -73 75 -6 11 -12 14 -12 7z"/>
<path d="M2706 2595 c-3 -8 -1 -15 4 -15 6 0 10 7 10 15 0 8 -2 15 -4 15 -2 0
-6 -7 -10 -15z"/>
<path d="M2720 2555 c0 -8 7 -15 15 -15 9 0 12 6 9 15 -4 8 -10 15 -15 15 -5
0 -9 -7 -9 -15z"/>
<path d="M2603 2391 c1 -12 7 -21 15 -21 16 0 12 32 -5 37 -7 3 -11 -4 -10
-16z"/>
<path d="M2527 2393 c-12 -11 -8 -31 7 -36 8 -3 17 0 20 8 5 15 -17 39 -27 28z"/>
<path d="M2490 2370 c0 -19 3 -21 12 -12 9 9 9 15 0 24 -9 9 -12 7 -12 -12z"/>
<path d="M2200 2150 c0 -5 5 -10 11 -10 5 0 7 5 4 10 -3 6 -8 10 -11 10 -2 0
-4 -4 -4 -10z"/>
<path d="M1263 2053 c-13 -2 -23 -9 -23 -14 0 -6 -4 -7 -10 -4 -5 3 -21 -2
-35 -11 -18 -12 -25 -25 -25 -48 0 -24 -3 -27 -10 -16 -8 13 -10 13 -10 -2 0
-17 44 -58 62 -58 6 0 23 -9 39 -21 24 -17 29 -27 29 -62 -1 -36 -8 -50 -48
-94 -32 -34 -55 -51 -69 -50 -12 0 -21 4 -21 7 2 20 -4 30 -14 25 -7 -4 -4 1
7 10 20 16 20 17 -6 13 -14 -1 -34 3 -43 11 -21 18 -21 2 1 -29 16 -24 16 -24
-1 -10 -10 8 -25 15 -33 16 -8 2 -18 6 -21 10 -4 4 0 5 9 2 9 -4 16 -1 16 7 0
16 -29 14 -40 -2 -4 -7 -15 -13 -23 -13 -8 0 -12 5 -9 10 4 6 11 7 17 4 7 -4
8 -2 4 5 -5 8 -15 6 -33 -9 -14 -11 -33 -20 -42 -20 -13 0 -13 -2 -2 -9 9 -6
-2 -9 -30 -9 -24 0 -38 2 -31 5 21 8 13 18 -16 20 -15 1 -33 -4 -41 -10 -12
-10 -13 -9 -6 2 5 10 4 12 -3 7 -7 -4 -12 -15 -13 -24 0 -11 -3 -12 -6 -4 -2
6 -11 12 -19 12 -8 0 -14 4 -14 10 0 5 6 7 13 4 8 -3 20 3 28 12 8 10 9 15 2
11 -7 -4 -17 0 -23 10 -10 15 -11 15 -6 1 6 -19 -27 -31 -43 -15 -17 17 -13
27 8 27 11 0 22 4 26 10 7 12 -58 8 -67 -4 -4 -6 1 -15 10 -22 15 -11 14 -13
-11 -19 -15 -4 -27 -11 -27 -16 0 -6 8 -5 19 0 14 8 20 7 25 -4 3 -8 9 -15 13
-14 24 4 43 -2 37 -12 -3 -6 0 -15 7 -20 8 -4 16 -4 20 2 4 6 9 3 13 -7 4 -10
4 -15 0 -11 -4 4 -13 2 -19 -3 -9 -8 -14 -6 -19 5 -3 9 -10 13 -16 10 -6 -4
-7 1 -3 11 5 13 2 15 -17 9 -14 -4 -20 -3 -16 3 3 5 -2 13 -11 17 -10 3 -19 2
-21 -4 -2 -7 -8 -6 -17 2 -7 7 -11 15 -8 20 6 10 -1 9 -33 -8 -26 -13 -29 -13
-35 2 -4 12 -8 13 -13 5 -4 -7 -4 -12 0 -12 4 0 0 -8 -9 -18 -10 -10 -15 -21
-12 -24 3 -3 -5 -3 -18 -1 -19 4 -23 9 -19 34 2 16 0 29 -6 29 -6 0 -8 8 -5
19 4 15 -1 18 -28 17 -18 -1 -34 -7 -37 -14 -2 -6 -10 -12 -18 -12 -9 0 -13 4
-9 9 9 15 -8 20 -33 10 -18 -7 -22 -14 -18 -31 3 -13 3 -17 0 -10 -3 6 -12 12
-20 12 -8 0 -14 10 -14 25 0 25 0 25 -37 10 -29 -12 -38 -13 -44 -3 -7 10 -12
11 -29 1 -24 -16 -74 -18 -50 -3 12 8 11 10 -7 11 -24 2 -41 5 -45 9 -9 8 -58
7 -58 -1 0 -5 11 -9 25 -9 16 0 25 -6 25 -15 0 -9 -9 -15 -22 -14 -22 0 -22 1
-3 9 20 8 20 9 -1 9 -19 1 -21 -4 -20 -71 1 -62 3 -73 18 -70 12 2 15 -3 11
-18 -4 -17 -8 -18 -20 -8 -13 10 -14 8 -11 -12 2 -14 9 -24 15 -23 7 2 10 -4
6 -13 -5 -13 -7 -13 -14 -2 -6 9 -9 6 -9 -11 0 -17 4 -22 16 -17 10 4 14 2 11
-6 -2 -7 -11 -12 -18 -10 -8 1 -5 -4 5 -13 16 -12 17 -15 4 -15 -14 0 -16 -28
-17 -249 l-2 -248 47 -1 c26 -1 49 -4 53 -8 3 -3 -11 -5 -31 -2 -21 2 -38 1
-38 -4 0 -4 -6 -5 -13 -2 -8 3 -13 -5 -15 -21 -1 -21 2 -24 23 -23 14 1 25 6
25 10 0 12 88 10 95 -3 5 -6 63 -9 165 -8 151 2 159 3 164 22 7 26 -2 36 -14
17 -8 -12 -10 -11 -10 7 0 21 1 21 41 5 23 -9 37 -18 30 -20 -15 -5 -14 -18 2
-21 53 -9 123 -8 129 2 6 9 8 9 8 0 0 -17 55 -17 69 0 6 8 9 16 6 19 -3 2 3 5
12 5 10 0 25 -8 34 -19 22 -24 28 -23 21 4 l-5 22 32 -24 c25 -17 35 -20 41
-10 5 9 9 9 14 1 4 -6 24 -11 44 -11 25 0 32 3 23 9 -8 5 -9 11 -3 15 5 3 12
0 15 -8 8 -20 207 -19 207 1 0 7 5 13 11 13 6 0 9 -6 6 -13 -4 -10 6 -14 41
-13 26 0 50 5 54 11 5 6 8 5 8 -2 0 -7 9 -13 20 -13 18 0 25 10 21 33 -1 10 4
9 34 -5 14 -6 25 -15 25 -20 0 -17 21 -7 30 15 5 12 9 17 9 11 1 -7 7 -12 14
-11 29 1 48 -4 44 -10 -3 -5 60 -8 139 -7 134 0 179 6 140 19 -9 3 -23 7 -31
10 -8 2 -15 10 -15 17 0 9 2 10 8 2 13 -21 46 -21 65 0 9 10 17 16 17 11 0 -4
7 -2 14 5 11 8 20 9 33 1 10 -6 14 -11 9 -11 -4 0 -2 -10 7 -23 14 -21 13 -23
-4 -24 -11 -1 -19 4 -18 10 3 24 -1 37 -12 37 -5 0 -7 -5 -3 -11 4 -8 0 -9
-15 -4 -12 4 -21 2 -21 -4 0 -6 5 -11 11 -11 8 0 8 -4 -1 -15 -10 -13 0 -14
79 -14 83 1 111 9 79 22 -7 3 -3 6 9 6 13 1 22 -4 20 -12 -1 -7 10 -13 26 -15
27 -3 28 -3 25 47 -3 45 -8 55 -29 53 -3 -1 -6 5 -6 12 0 8 8 11 21 8 19 -5
20 -4 6 13 -9 11 -10 16 -2 11 9 -5 12 3 12 33 0 22 -4 43 -10 46 -9 6 -14 -8
-11 -28 1 -5 -3 -6 -9 -2 -6 3 -8 11 -5 16 3 5 -1 6 -9 3 -9 -3 -16 -1 -16 5
0 6 8 11 18 12 11 0 13 2 4 6 -15 6 -62 -15 -74 -32 -5 -6 -8 -5 -8 3 0 7 -5
10 -12 6 -7 -4 -8 -3 -4 4 4 7 18 12 32 12 13 0 23 3 21 8 -1 4 2 7 6 7 17 0
30 36 18 48 -9 9 -14 9 -20 -1 -4 -7 -15 -10 -24 -6 -27 10 -20 20 16 21 54 2
56 2 52 23 -2 12 2 20 10 20 9 0 12 -6 9 -15 -4 -8 -1 -15 5 -15 17 0 9 58 -9
66 -12 5 -12 8 5 15 16 7 14 8 -8 4 -26 -5 -27 -4 -17 16 8 15 9 19 1 15 -6
-4 -11 -3 -11 2 0 8 22 22 35 22 2 0 1 -10 -2 -22 -5 -18 -3 -21 7 -11 10 9 9
20 -3 57 -11 31 -12 43 -4 40 15 -5 17 74 3 95 -6 10 -6 12 2 7 15 -9 13 93
-2 113 -8 11 -8 13 2 7 7 -4 12 -1 12 8 0 24 -18 19 -47 -11 -21 -23 -24 -24
-14 -6 12 24 3 36 -18 23 -8 -4 -10 -13 -6 -20 5 -8 4 -11 -3 -6 -6 3 -14 1
-19 -6 -8 -13 -9 -18 -12 -38 -1 -14 -28 -13 -37 2 -4 6 -3 8 2 5 6 -3 15 -2
22 2 9 5 6 13 -9 29 -11 12 -25 19 -31 16 -7 -5 -5 -12 7 -21 17 -12 17 -13 2
-13 -9 0 -17 5 -17 11 0 6 -7 9 -15 5 -25 -9 -17 10 10 24 30 16 28 19 -20 30
-34 8 -36 7 -32 -11 4 -16 3 -18 -9 -8 -7 6 -11 15 -8 20 3 5 1 8 -4 7 -6 -2
-29 34 -52 79 -47 94 -113 183 -136 183 -8 0 -28 7 -44 15 -16 8 -31 11 -34 6
-8 -13 -57 -1 -49 13 3 6 3 8 -2 4 -9 -9 -70 16 -92 37 -13 13 -28 15 -78 10
-41 -5 -65 -3 -69 4 -5 7 -1 9 8 5 9 -3 16 -1 16 5 0 11 -7 12 -47 4z m240
-101 c-3 -12 -9 -22 -14 -22 -12 0 -11 7 2 32 13 25 20 19 12 -10z m37 -12 c0
-5 -7 -7 -15 -4 -8 4 -12 10 -9 15 6 11 24 2 24 -11z m32 6 c7 4 8 2 4 -5 -9
-13 -26 -5 -25 12 0 9 2 8 6 -1 2 -6 10 -9 15 -6z m-169 -66 c-3 -12 -8 -19
-11 -16 -5 6 5 36 12 36 2 0 2 -9 -1 -20z m-1268 -140 c-3 -5 -10 -10 -16 -10
-5 0 -9 5 -9 10 0 6 7 10 16 10 8 0 12 -4 9 -10z m175 -6 c0 -8 -4 -12 -10 -9
-5 3 -10 10 -10 16 0 5 5 9 10 9 6 0 10 -7 10 -16z m170 8 c0 -4 -9 -8 -20 -9
-11 -1 -20 2 -20 5 0 4 9 8 20 9 11 1 20 -2 20 -5z m20 -42 c0 -5 -4 -10 -10
-10 -5 0 -10 5 -10 10 0 6 5 10 10 10 6 0 10 -4 10 -10z m350 0 c0 -5 -2 -10
-4 -10 -3 0 -8 5 -11 10 -3 6 -1 10 4 10 6 0 11 -4 11 -10z m127 4 c-3 -3 -12
-4 -19 -1 -8 3 -5 6 6 6 11 1 17 -2 13 -5z m417 -10 c-7 -3 -10 -14 -7 -25 4
-15 -2 -22 -26 -30 -17 -6 -31 -18 -31 -26 0 -8 -4 -12 -10 -8 -5 3 -7 12 -4
19 8 21 -54 29 -82 11 -28 -18 -44 -19 -44 -3 0 6 3 9 6 5 4 -3 23 5 43 18 19
14 49 25 66 26 16 0 39 4 50 9 11 5 27 9 35 9 8 -1 10 -3 4 -5z m-799 -35 c-4
-5 -12 -9 -18 -8 -9 0 -8 2 1 6 6 2 9 10 6 15 -4 7 -2 8 5 4 6 -4 9 -12 6 -17z
m528 14 c-7 -2 -19 -2 -25 0 -7 3 -2 5 12 5 14 0 19 -2 13 -5z m-433 -22 c11
-20 0 -51 -19 -50 -10 0 -11 2 -3 6 17 7 15 23 -2 23 -8 0 -18 4 -21 10 -4 6
1 7 12 3 15 -6 16 -5 5 9 -11 14 -11 16 3 14 9 -1 20 -8 25 -15z m247 3 c2 -6
-12 -15 -32 -21 -39 -12 -40 -11 -22 17 12 21 48 24 54 4z m117 -1 c-5 -17 -4
-17 8 -1 11 16 13 15 25 -10 7 -15 11 -20 9 -11 -3 12 2 17 20 17 13 0 24 -4
24 -8 0 -5 10 -6 23 -4 13 3 7 -2 -13 -12 -19 -9 -43 -18 -52 -19 -25 -2 -32
-12 -13 -18 8 -4 15 -1 15 5 0 6 3 8 7 5 3 -4 11 -3 17 2 15 11 57 21 52 12
-8 -13 43 -64 58 -58 21 8 42 -19 28 -36 -14 -16 -2 -36 23 -39 11 -2 21 -7
23 -11 2 -8 -5 -8 -34 3 -24 9 -41 43 -25 48 20 7 11 19 -11 18 -16 -1 -25 -9
-28 -26 -4 -16 -12 -24 -23 -24 -12 1 -17 -4 -15 -15 2 -9 12 -15 23 -13 16 2
17 1 5 -7 -10 -7 -20 -5 -32 5 -12 12 -21 13 -35 5 -11 -6 -13 -11 -5 -11 7 0
11 -4 8 -9 -6 -8 9 -18 28 -19 5 0 13 -6 17 -14 7 -10 11 -10 17 -1 4 7 13 9
21 4 9 -6 5 -10 -14 -15 -14 -4 -29 -4 -34 -2 -4 3 -8 -1 -8 -8 0 -8 8 -11 19
-8 12 3 18 -1 18 -13 0 -12 -6 -15 -22 -10 -15 4 -19 3 -10 -3 7 -5 10 -16 6
-25 -9 -24 13 -21 26 4 17 31 50 39 73 18 12 -11 16 -22 11 -31 -6 -11 -5 -10
9 0 9 8 22 12 29 9 8 -3 6 -6 -5 -6 -10 -1 -16 -5 -13 -10 6 -8 -31 -23 -46
-18 -4 1 -14 -7 -22 -18 -15 -20 -15 -20 -11 1 3 17 -1 21 -16 17 -10 -3 -25
-1 -32 5 -7 5 -21 6 -32 1 -14 -5 -16 -8 -5 -9 8 -2 19 -2 23 -1 15 2 47 -20
47 -32 0 -8 -3 -8 -8 -2 -12 18 -52 16 -52 -3 0 -9 -11 -25 -24 -34 -22 -16
-27 -16 -56 -2 -29 15 -32 15 -44 -1 -10 -14 -15 -15 -21 -5 -5 9 -4 11 3 6
11 -6 16 5 13 26 0 4 11 3 25 -2 32 -12 44 -13 25 -1 -8 5 -15 20 -15 33 -1
22 2 24 32 22 27 -1 31 1 21 12 -9 12 -6 13 18 8 22 -4 32 -2 36 10 7 18 -18
23 -28 6 -4 -6 -11 -8 -16 -4 -5 3 -16 0 -24 -6 -11 -9 -15 -9 -15 -1 0 6 11
16 25 23 13 6 21 16 18 22 -4 6 0 5 9 -2 14 -11 17 -10 20 5 6 30 -3 55 -19
49 -8 -4 -11 -1 -7 5 4 8 -1 9 -16 4 -17 -5 -21 -4 -15 6 5 8 -4 3 -18 -10
-20 -18 -24 -27 -15 -33 8 -5 -1 -8 -22 -8 -29 1 -32 2 -18 11 17 9 16 12 -4
40 -16 21 -19 32 -11 37 16 10 35 62 23 62 -6 0 -10 -5 -10 -12 0 -6 -6 -4
-13 7 -17 23 -37 12 -32 -17 3 -12 -1 -28 -8 -37 -10 -12 -9 -14 6 -8 9 3 17
2 17 -3 0 -6 -6 -10 -14 -10 -7 0 -16 -9 -19 -21 -4 -16 -10 -19 -28 -14 -14
5 -19 4 -15 -4 5 -7 1 -9 -8 -5 -23 9 -20 12 17 23 31 10 31 10 -10 7 -28 -2
-40 0 -36 7 4 6 0 8 -11 4 -13 -5 -15 -3 -8 11 5 9 8 22 6 27 -2 6 10 10 26
10 17 0 30 -3 30 -7 0 -5 -9 -8 -20 -8 -11 0 -20 -4 -20 -9 0 -16 21 -24 32
-13 6 6 18 8 27 5 9 -3 12 -1 6 4 -18 15 -17 43 2 44 17 1 17 2 1 6 -25 6 -22
22 4 32 25 9 58 3 58 -11 0 -5 5 -6 11 -3 5 4 19 -1 30 -11 11 -10 20 -14 19
-9 -4 21 0 33 13 32 6 0 26 1 42 2 27 2 28 3 10 12 -17 7 -16 8 9 6 17 -1 31
4 34 11 3 9 -4 12 -25 8 -15 -2 -34 -5 -41 -5 -7 -1 -11 -5 -7 -10 3 -6 -3
-10 -12 -10 -10 1 -29 -2 -43 -5 -24 -6 -24 -6 -2 3 12 6 22 13 22 15 0 3 -10
15 -22 27 -18 17 -19 21 -5 16 15 -6 16 -4 7 13 -6 11 -8 25 -5 30 10 16 15
12 9 -7z m-334 -3 c0 -5 -2 -10 -4 -10 -3 0 -8 5 -11 10 -3 6 -1 10 4 10 6 0
11 -4 11 -10z m296 -5 c-3 -8 -1 -15 4 -15 15 0 7 -24 -10 -32 -10 -4 -4 -7
14 -7 29 -1 29 -1 10 -20 -17 -16 -23 -17 -50 -6 -38 16 -64 3 -64 -31 0 -15
-4 -23 -10 -19 -6 4 -8 11 -5 16 4 5 1 9 -5 9 -7 0 -9 -8 -5 -21 5 -16 3 -20
-6 -17 -8 3 -14 11 -14 19 0 8 -6 19 -14 25 -11 8 -6 10 20 8 19 -2 28 -1 22
2 -16 7 -17 34 -2 34 5 0 7 -4 4 -10 -3 -5 1 -10 9 -10 10 0 13 6 9 17 -5 12
-3 14 7 8 9 -6 12 -4 8 7 -4 8 0 15 8 15 7 0 11 -4 8 -9 -3 -4 0 -8 7 -8 7 0
9 10 7 25 -3 13 -2 23 1 20 4 -2 13 0 21 6 22 13 33 11 26 -6z m485 -26 l22
-31 -24 7 c-33 10 -41 19 -33 38 8 22 9 22 35 -14z m-928 10 c-6 -6 -9 -18 -6
-25 3 -8 0 -14 -6 -14 -6 0 -11 6 -11 13 0 13 19 37 29 37 3 0 0 -5 -6 -11z
m176 7 c-15 -13 -49 -25 -49 -17 0 5 8 12 18 14 24 6 36 8 31 3z m61 -28 c-25
-9 -27 -20 -2 -11 28 10 -7 -21 -40 -35 -33 -14 -35 -9 -8 20 11 12 20 27 20
34 0 16 33 23 42 10 4 -6 -2 -14 -12 -18z m1264 7 c-7 -16 -24 -21 -24 -6 0 8
7 13 27 20 1 1 0 -6 -3 -14z m-1904 1 c0 -1 -10 -11 -22 -22 -14 -12 -19 -14
-13 -4 6 12 5 13 -5 3 -12 -11 -11 -15 5 -27 11 -8 23 -12 27 -10 5 3 8 -1 8
-9 0 -7 -7 -14 -15 -14 -8 0 -15 6 -15 13 0 7 -9 16 -20 19 -23 7 -25 20 -8
38 10 11 58 22 58 13z m124 -22 c3 -8 10 -14 17 -14 6 0 8 7 5 16 -3 8 -2 12
4 9 6 -3 10 -13 10 -21 0 -8 5 -14 10 -14 6 0 10 5 10 11 0 6 7 8 16 5 9 -4
13 -2 8 5 -4 8 -1 8 12 1 11 -5 25 -7 32 -5 6 3 12 -1 12 -7 0 -7 -8 -10 -18
-8 -21 6 -59 -18 -48 -29 4 -5 13 0 20 9 8 11 17 14 27 7 12 -7 11 -9 -2 -9
-9 0 -22 -7 -29 -15 -10 -12 -16 -13 -29 -3 -14 11 -14 11 -3 -4 9 -11 10 -18
2 -23 -6 -3 -8 -10 -5 -15 3 -4 -5 -10 -18 -14 -30 -7 -29 -7 -55 -17 -14 -6
-30 -5 -40 1 -9 5 -13 10 -9 10 5 0 5 5 1 11 -5 8 -9 8 -14 -1 -5 -8 -16 -7
-41 4 -19 9 -24 13 -12 10 12 -2 25 1 29 7 4 8 3 9 -4 5 -8 -5 -10 -2 -6 9 7
17 30 15 27 -3 -3 -12 15 -11 36 2 11 7 13 5 8 -7 -4 -10 -2 -17 5 -17 7 0 6
-5 -2 -15 -9 -10 -9 -15 -1 -15 6 0 11 4 11 10 0 5 8 6 18 3 16 -7 16 -6 -1
11 -9 10 -15 21 -12 26 7 11 -21 20 -32 9 -5 -5 -14 0 -21 11 -7 12 -8 20 -2
20 5 0 10 -4 10 -10 0 -5 5 -10 11 -10 5 0 8 4 5 9 -3 4 3 16 14 26 15 13 20
14 20 5 0 -11 3 -11 12 -2 18 18 1 27 -29 13 -23 -11 -25 -10 -13 3 7 9 9 16
4 16 -5 0 -3 4 5 9 17 11 38 4 45 -15z m-74 1 c-7 -8 -18 -15 -24 -15 -6 0 -2
7 8 15 25 19 32 19 16 0z m427 8 c-4 -3 -1 -13 5 -22 10 -13 10 -14 -2 -4 -11
10 -16 9 -27 -5 -8 -9 -12 -11 -8 -5 4 9 -5 11 -37 7 -54 -8 -48 2 7 10 22 4
44 11 49 16 6 6 12 10 15 10 2 0 1 -3 -2 -7z m618 -3 c3 -5 -1 -10 -10 -10 -9
0 -14 -4 -11 -8 3 -5 -1 -9 -9 -9 -10 0 -12 4 -5 12 5 7 7 15 3 18 -3 4 1 7
10 7 9 0 19 -4 22 -10z m-536 -21 c-14 -8 -29 -3 -29 11 0 4 9 6 21 3 15 -4
17 -8 8 -14z m491 17 c0 -3 -4 -8 -10 -11 -5 -3 -10 -1 -10 4 0 6 5 11 10 11
6 0 10 -2 10 -4z m84 -11 c-4 -8 -13 -15 -21 -15 -13 0 -13 3 -3 15 7 8 16 15
21 15 5 0 6 -7 3 -15z m117 5 c6 0 7 -4 4 -10 -3 -5 -1 -10 4 -10 6 0 11 5 11
10 0 6 12 -1 26 -15 14 -14 30 -22 36 -19 7 4 8 2 4 -5 -4 -6 -13 -8 -19 -4
-7 4 -6 0 2 -10 7 -9 11 -17 8 -17 -3 0 -13 -3 -23 -7 -13 -5 -16 -3 -11 10 3
9 2 17 -3 17 -6 0 -10 7 -10 15 0 8 -7 15 -15 15 -18 0 -19 -11 -2 -29 10 -11
9 -13 -5 -8 -22 8 -22 4 -3 -33 9 -17 23 -29 33 -29 15 1 15 2 0 6 -30 8 -28
30 3 25 32 -5 63 -32 35 -32 -9 0 -16 -4 -16 -10 0 -15 -37 -12 -54 5 -19 20
-28 19 -73 -6 -27 -15 -33 -17 -24 -5 7 9 20 16 28 16 8 0 11 5 8 10 -3 6 2
10 12 10 15 0 16 2 3 10 -8 5 -10 10 -4 10 5 0 15 -5 22 -12 9 -9 12 -8 12 5
0 17 -44 25 -53 10 -2 -5 -2 -3 -1 4 2 7 -1 15 -6 18 -14 8 7 45 25 45 7 0 17
5 21 12 4 7 3 8 -4 4 -7 -4 -12 -2 -12 4 0 7 7 9 16 6 9 -3 20 -6 25 -6z m601
-22 c-8 -8 -9 -4 -5 13 4 13 8 18 11 10 2 -7 -1 -18 -6 -23z m-1563 -1 c12
-15 12 -17 -3 -11 -9 3 -16 13 -16 22 0 8 1 13 3 11 1 -2 9 -12 16 -22z m237
-4 c-7 -7 -26 7 -26 19 0 6 6 6 15 -2 9 -7 13 -15 11 -17z m1388 15 c-3 -4
-11 -5 -19 -1 -8 3 -15 -1 -15 -8 0 -7 -3 -10 -6 -6 -10 10 6 26 26 24 10 -1
17 -5 14 -9z m-1247 -35 c0 -7 -4 -13 -8 -13 -4 0 -9 6 -12 13 -3 8 0 14 7 14
7 0 13 -6 13 -14z m458 -1 c-3 -3 -11 0 -18 7 -9 10 -8 11 6 5 10 -3 15 -9 12
-12z m-572 1 c-7 -2 -19 -2 -25 0 -7 3 -2 5 12 5 14 0 19 -2 13 -5z m51 -5
c-5 -7 -1 -9 13 -6 12 3 20 0 20 -7 0 -9 -7 -11 -21 -6 -22 9 -34 31 -16 31 6
0 8 -5 4 -12z m1213 6 c-3 -3 -12 -4 -19 -1 -8 3 -5 6 6 6 11 1 17 -2 13 -5z
m-1477 -44 c11 0 20 -5 20 -11 0 -7 -7 -8 -17 -4 -31 12 -73 14 -73 4 0 -6 5
-7 10 -4 16 10 12 -1 -6 -15 -8 -8 -14 -9 -13 -4 4 23 -2 32 -19 27 -12 -3
-19 1 -19 11 0 20 26 29 43 15 11 -9 14 -8 14 7 0 16 2 16 20 -4 12 -12 30
-22 40 -22z m497 11 c12 -19 8 -31 -10 -31 -5 0 -7 6 -4 14 3 7 0 19 -6 25 -6
6 -7 11 -1 11 5 0 15 -9 21 -19z m313 11 c0 -4 -9 -8 -19 -8 -11 0 -17 4 -15
8 3 4 12 8 20 8 8 0 14 -4 14 -8z m685 -2 c-4 -6 -11 -8 -16 -5 -5 4 -12 -1
-15 -9 -3 -9 -12 -16 -20 -16 -11 0 -10 4 4 19 17 20 58 29 47 11z m-1891 -7
c-5 -5 -12 -12 -16 -18 -4 -6 -8 -2 -8 8 0 9 7 17 17 17 9 0 12 -3 7 -7z m516
-4 c0 11 4 10 13 -4 9 -11 19 -15 28 -10 10 6 11 5 3 -4 -15 -17 -74 -3 -67
16 5 12 7 12 14 1 7 -10 9 -10 9 1z m-249 -22 c-1 -12 -15 -9 -19 4 -3 6 1 10
8 8 6 -3 11 -8 11 -12z m1199 9 c0 -3 -4 -8 -10 -11 -5 -3 -10 -1 -10 4 0 6 5
11 10 11 6 0 10 -2 10 -4z m500 -6 c0 -3 -24 -6 -53 -6 -38 -1 -45 0 -27 6 27
9 80 9 80 0z m-1925 -27 c14 -15 25 -22 25 -15 0 10 4 9 16 -2 8 -9 21 -13 27
-10 8 5 8 2 0 -7 -15 -16 -17 -33 -3 -24 6 3 7 -1 4 -10 -6 -14 -8 -14 -20 2
-7 10 -14 24 -14 32 0 8 -3 12 -6 9 -10 -11 -12 -43 -3 -54 6 -7 3 -16 -6 -24
-15 -12 -20 -4 -16 23 0 4 -4 7 -9 7 -6 0 -10 -6 -9 -12 4 -34 -1 -42 -15 -22
-11 15 -12 22 -3 33 8 9 2 8 -15 -3 -15 -10 -33 -16 -40 -13 -7 3 -4 6 7 7 18
1 19 1 3 11 -10 5 -18 20 -18 32 l1 22 18 -23 c12 -13 25 -20 35 -16 22 8 20
25 -1 18 -14 -4 -13 -2 2 7 19 13 19 13 -5 20 l-25 8 25 -2 c14 -1 24 -8 23
-14 -1 -6 7 -13 17 -16 11 -3 20 -3 20 -1 0 10 -36 44 -47 44 -7 0 -13 5 -13
10 0 18 19 11 45 -17z m564 13 c9 -11 6 -12 -14 -8 -19 3 -25 0 -26 -14 0 -13
-2 -15 -6 -5 -3 8 2 20 13 28 22 16 19 16 33 -1z m70 -26 c6 0 11 -4 11 -10 0
-5 8 -7 18 -4 16 5 16 5 -1 -6 -9 -6 -23 -8 -30 -3 -21 13 -36 12 -30 -3 3 -7
8 -13 11 -12 4 0 21 0 37 -1 22 -1 26 -4 15 -10 -8 -6 -18 -7 -24 -4 -5 4 -7
0 -4 -9 4 -10 0 -14 -13 -13 -26 2 -37 15 -13 15 18 1 18 1 2 11 -10 5 -24 9
-31 7 -7 -2 -14 0 -15 5 -1 4 0 6 3 5 2 -2 11 6 19 17 10 14 11 25 5 40 -9 17
-8 17 10 -2 10 -13 24 -23 30 -23z m924 23 c-4 -9 0 -11 13 -7 11 4 16 4 12
-1 -4 -4 0 -13 9 -20 15 -11 15 -12 0 -18 -10 -4 -16 -2 -14 5 1 6 -16 16 -38
23 -22 7 -32 13 -22 14 9 1 17 5 17 9 0 5 6 9 14 9 8 0 12 -6 9 -14z m-1298
-3 c3 -5 -1 -10 -9 -10 -9 0 -15 -5 -13 -12 1 -7 -5 -13 -13 -14 -8 0 -24 -2
-35 -2 -14 -2 -20 -9 -20 -27 0 -22 3 -24 31 -19 22 4 34 1 45 -13 13 -16 13
-17 -3 -4 -15 11 -18 11 -19 0 -1 -8 -2 -21 -3 -29 0 -8 4 -18 9 -22 6 -4 -3
-8 -18 -8 -26 0 -27 1 -12 16 12 13 13 19 5 24 -9 6 -9 9 1 12 8 3 11 8 8 12
-4 4 -13 1 -20 -7 -11 -11 -16 -12 -27 -1 -7 7 -19 11 -27 8 -14 -6 -17 -2
-19 29 -1 6 -5 16 -11 20 -6 5 -4 7 5 6 33 -3 44 3 20 12 -23 8 -22 8 7 6 18
-2 30 0 27 4 -2 4 0 10 6 14 5 3 11 -2 11 -12 1 -17 2 -17 6 0 3 11 11 16 19
13 7 -3 16 -1 19 4 8 13 22 13 30 0z m213 -3 c6 0 12 -5 12 -10 0 -5 -7 -6
-15 -3 -8 3 -22 9 -30 12 -16 7 -21 -11 -5 -21 5 -3 7 -20 3 -37 -5 -25 -3
-30 8 -23 11 6 11 5 2 -5 -9 -9 -18 -10 -40 -1 -18 7 -20 10 -6 7 20 -4 22 -1
18 37 -5 48 1 61 24 51 9 -3 22 -7 29 -7z m1046 -34 c3 -7 -1 -13 -9 -13 -8 0
-14 6 -12 13 1 8 -12 12 -40 11 -33 0 -40 3 -31 13 5 7 14 11 18 8 5 -3 11 -1
15 5 7 11 51 -16 59 -37z m-1117 7 c2 -11 -2 -20 -8 -20 -5 0 -7 -6 -3 -12 5
-10 4 -10 -5 -2 -10 9 -10 17 -2 32 6 10 8 22 6 26 -3 3 -2 4 2 1 4 -3 8 -14
10 -25z m273 20 c18 -12 2 -12 -25 0 -13 6 -15 9 -5 9 8 0 22 -4 30 -9z m1194
-23 c-3 -9 -12 -17 -19 -17 -8 0 -11 -8 -8 -20 6 -21 10 -23 58 -21 28 2 29 1
11 -13 -12 -10 -25 -12 -35 -7 -9 5 -33 8 -53 7 -21 -1 -39 3 -42 9 -2 7 7 10
25 7 17 -3 29 0 29 7 0 10 -14 15 -33 12 -5 -1 -6 3 -2 9 3 5 13 10 21 10 8 0
20 11 26 25 12 27 33 20 22 -8z m-188 2 c19 -22 19 -22 -3 -8 -13 8 -23 17
-23 21 0 12 6 9 26 -13z m-1395 -12 c-10 -9 -11 -8 -5 6 3 10 9 15 12 12 3 -3
0 -11 -7 -18z m42 6 c-5 -11 -3 -14 6 -8 10 6 11 3 2 -14 -7 -11 -17 -21 -24
-21 -8 0 -7 4 3 11 12 8 12 12 2 16 -10 4 -10 8 -1 19 15 19 20 18 12 -3z
m812 7 c3 -6 -1 -7 -9 -4 -18 7 -21 14 -7 14 6 0 13 -4 16 -10z m238 -26 c6 1
9 1 4 -1 -4 -3 -5 -8 -3 -11 2 -4 -11 -7 -29 -7 -18 0 -32 2 -29 6 2 4 -6 10
-19 14 -20 7 -21 7 -3 12 12 3 25 -2 34 -13 13 -17 14 -17 8 11 -7 30 -7 30 9
8 8 -12 21 -21 28 -19z m-140 9 c-6 -16 -3 -15 17 2 20 17 23 18 17 3 -4 -11
-1 -18 6 -19 7 0 -1 -5 -16 -11 -20 -7 -27 -15 -24 -28 3 -13 0 -16 -15 -12
-15 4 -17 7 -6 13 7 5 9 9 3 9 -5 0 -4 4 4 9 12 8 13 12 1 25 -14 18 -25 13
-25 -11 0 -9 -6 -17 -13 -19 -7 -1 -8 0 -2 3 5 2 10 9 10 14 0 6 -4 7 -10 4
-14 -9 -12 3 3 20 6 8 22 14 34 15 17 0 21 -4 16 -17z m242 7 c-3 -5 -13 -10
-21 -10 -8 0 -12 5 -9 10 3 6 13 10 21 10 8 0 12 -4 9 -10z m85 -6 c0 -2 -7
-4 -15 -4 -8 0 -15 4 -15 10 0 5 7 7 15 4 8 -4 15 -8 15 -10z m-1346 -14 c-10
-4 -23 -5 -28 -2 -5 3 -1 9 10 12 10 4 23 5 28 2 5 -3 1 -9 -10 -12z m254 6
c-7 -8 -15 -12 -17 -11 -5 6 10 25 20 25 5 0 4 -6 -3 -14z m650 1 c8 -10 6
-13 -8 -14 -13 -1 -17 3 -13 13 6 17 8 17 21 1z m781 -1 c9 -11 6 -15 -16 -19
-34 -6 -40 -2 -23 18 15 19 24 19 39 1z m-1063 -31 c1 -8 -2 -13 -7 -9 -5 3
-7 10 -4 15 4 5 1 9 -4 9 -6 0 -11 5 -11 12 0 17 23 -7 26 -27z m-551 14 c-7
-11 -35 -12 -35 -1 0 4 9 8 20 9 11 1 18 -2 15 -8z m265 -10 c0 -5 -4 -9 -8
-9 -5 0 -9 7 -9 15 0 8 4 12 9 9 4 -3 8 -9 8 -15z m401 -2 c-6 -8 -8 -16 -5
-19 2 -3 -6 -5 -20 -5 -20 0 -22 2 -13 12 10 10 31 21 46 24 2 1 -2 -5 -8 -12z
m619 -3 c0 -2 -7 -4 -15 -4 -8 0 -15 4 -15 10 0 5 7 7 15 4 8 -4 15 -8 15 -10z
m-1484 -25 c0 -30 2 -32 39 -34 22 -2 34 -1 28 2 -7 2 -13 12 -13 21 0 13 2
13 14 -3 12 -17 11 -22 -7 -41 -12 -12 -27 -19 -35 -17 -10 4 -10 8 -2 13 6 4
-11 7 -37 8 -33 0 -42 -2 -28 -7 11 -5 27 -6 35 -4 13 4 13 4 0 -6 -8 -6 -10
-11 -5 -12 6 0 23 -2 38 -4 18 -2 30 1 34 11 3 8 13 14 22 13 10 0 11 -2 3 -6
-9 -3 -7 -9 6 -21 10 -10 13 -14 7 -10 -12 8 -48 4 -65 -7 -6 -3 -10 0 -10 7
0 9 -3 9 -10 -2 -6 -9 -10 -11 -10 -3 0 7 -7 10 -15 7 -9 -4 -15 0 -15 10 0 9
-5 16 -12 16 -6 0 -19 7 -28 15 -16 14 -18 14 -24 0 -3 -9 -2 -14 3 -11 5 3
12 -1 15 -10 3 -8 2 -12 -4 -9 -6 3 -10 -3 -10 -15 0 -17 -2 -18 -13 -8 -30
27 -2 90 37 87 40 -3 57 1 51 11 -6 10 0 40 8 40 3 0 4 -14 3 -31z m635 13
c-9 -16 -11 -75 -2 -66 2 2 10 -1 18 -7 8 -7 13 -8 13 -1 0 5 -7 15 -15 22
-21 17 -19 30 4 25 11 -2 29 -1 40 2 17 4 19 8 10 20 -11 12 -9 12 15 2 l28
-13 -24 -10 c-13 -5 -27 -10 -33 -10 -15 -1 -18 -36 -3 -36 10 0 9 -3 -2 -11
-12 -8 -12 -10 5 -8 29 3 65 -14 57 -27 -4 -6 -27 -14 -52 -17 -32 -4 -40 -3
-27 4 22 13 22 30 0 22 -12 -5 -14 -3 -8 8 5 8 5 11 -1 6 -5 -5 -9 -14 -9 -20
0 -5 -6 -12 -12 -14 -7 -3 -13 2 -13 11 0 9 -6 16 -12 16 -10 0 -10 2 0 9 19
12 -11 23 -46 16 l-27 -5 28 11 c15 6 27 17 27 25 0 9 -5 12 -12 8 -7 -4 -8
-3 -4 4 4 6 14 8 24 5 15 -6 14 -3 -3 18 -11 13 -13 18 -5 12 19 -17 30 -16
30 2 0 8 5 15 10 15 7 0 7 -6 1 -18z m46 5 c0 -7 -8 -14 -18 -14 -12 -1 -16 3
-12 13 7 18 30 19 30 1z m639 -13 c2 -12 -1 -13 -12 -3 -7 6 -11 16 -8 21 7
11 17 3 20 -18z m118 4 c25 -2 25 -4 10 -15 -10 -7 -26 -13 -35 -13 -10 0 -19
-3 -22 -7 -2 -5 -2 -2 -1 5 2 6 -1 12 -6 12 -15 0 -12 28 3 33 6 2 15 0 18 -4
3 -5 17 -10 33 -11z m-154 0 c0 -4 -4 -8 -9 -8 -6 0 -12 4 -15 8 -3 5 1 9 9 9
8 0 15 -4 15 -9z m-956 -13 c3 -9 0 -15 -9 -15 -8 0 -15 7 -15 15 0 8 4 15 9
15 5 0 11 -7 15 -15z m776 11 c0 -9 -30 -14 -35 -6 -4 6 3 10 14 10 12 0 21
-2 21 -4z m-1065 -16 c-3 -5 -12 -10 -18 -10 -7 0 -6 4 3 10 19 12 23 12 15 0z
m145 -5 c0 -18 -26 -20 -36 -3 -4 6 -3 8 4 4 6 -3 13 -2 17 4 9 14 15 12 15
-5z m348 -31 c4 2 7 -6 7 -19 0 -13 -3 -21 -7 -19 -4 3 -15 -4 -25 -15 -13
-16 -20 -18 -30 -9 -10 8 -17 8 -25 0 -9 -9 -9 -12 0 -12 7 0 11 -5 10 -11 -2
-6 3 -14 10 -16 7 -3 10 1 6 11 -5 12 0 14 21 10 23 -4 26 -2 21 12 -5 13 -1
15 18 12 19 -4 23 -1 18 10 -4 11 -1 14 11 9 9 -3 17 -2 17 3 0 6 5 10 12 10
6 0 8 -3 5 -6 -4 -4 4 -21 16 -38 12 -17 21 -33 20 -36 -1 -3 8 -4 20 -3 20 2
20 2 4 -8 -9 -5 -22 -7 -29 -3 -7 4 -8 3 -4 -5 4 -6 15 -10 24 -9 12 2 16 -3
15 -20 -2 -13 1 -21 5 -18 4 2 23 1 42 -4 l35 -8 -30 -2 c-16 -1 -36 -2 -42
-1 -7 1 -13 -3 -13 -9 0 -5 -5 -10 -11 -10 -5 0 -8 4 -5 9 3 5 -3 20 -15 32
-11 13 -18 18 -14 12 3 -7 2 -21 -4 -30 -8 -14 -9 -11 -6 15 2 19 -1 32 -8 32
-6 0 -2 7 9 15 10 8 17 15 14 15 -3 1 -16 4 -30 6 -14 3 -31 11 -38 18 -12 11
-18 9 -40 -11 -15 -14 -26 -29 -25 -33 1 -4 -10 -5 -25 -3 -22 3 -20 1 13 -16
22 -10 34 -20 27 -20 -7 -1 -27 7 -45 16 -18 9 -35 17 -39 18 -5 0 -8 3 -8 8
0 4 0 12 0 18 0 5 6 7 13 3 8 -5 8 -2 -2 9 -11 14 -11 17 0 17 8 0 7 4 -4 13
-15 10 -12 12 23 11 42 -1 47 4 30 24 -7 8 -7 9 1 3 6 -5 20 -6 32 -3 21 6 21
6 -3 12 -14 3 -25 10 -25 15 0 6 -4 15 -8 22 -5 8 2 13 20 15 23 2 29 -1 31
-20 2 -12 6 -20 10 -18z m982 38 c0 -4 -9 -8 -20 -9 -11 -1 -20 2 -20 8 0 5 9
9 20 9 11 0 20 -4 20 -8z m90 2 c0 -8 -19 -13 -24 -6 -3 5 1 9 9 9 8 0 15 -2
15 -3z m104 -5 c12 10 20 11 29 2 9 -7 17 -7 23 -1 7 7 16 4 28 -9 18 -20 17
-20 -55 -15 -64 4 -72 3 -57 -9 10 -8 14 -18 10 -23 -4 -5 3 -1 15 10 21 17
22 17 16 -4 -5 -17 -11 -20 -30 -15 -16 4 -22 2 -18 -5 3 -5 1 -10 -4 -10 -14
0 -14 13 0 27 7 7 2 12 -20 15 -17 3 -31 1 -31 -4 0 -4 4 -8 8 -8 5 0 9 -6 9
-12 0 -7 2 -20 4 -28 3 -11 -6 -16 -28 -18 -20 -2 -33 1 -33 8 0 7 6 10 14 7
8 -3 17 1 20 9 3 9 -1 14 -13 14 -11 0 -21 -6 -24 -12 -2 -7 -8 -9 -13 -5 -5
5 -1 13 9 18 9 6 17 15 17 20 0 17 24 36 39 31 8 -3 11 0 7 6 -4 6 1 8 13 5
10 -3 22 1 26 7 6 9 9 9 15 -1 7 -10 11 -10 24 0z m-1287 -5 c-3 -3 -12 -4
-19 -1 -8 3 -5 6 6 6 11 1 17 -2 13 -5z m837 -22 c-19 -5 -18 -16 6 -37 21
-19 50 -14 50 10 0 8 5 15 10 15 12 0 12 -2 0 -34 -5 -15 -6 -28 0 -31 10 -6
2 -35 -10 -35 -5 0 -6 8 -3 19 3 13 -2 20 -17 24 -15 4 -20 2 -17 -7 3 -7 -1
-13 -9 -13 -8 0 -13 6 -10 14 3 7 -2 13 -12 14 -14 0 -14 2 3 10 17 8 16 9 -7
6 -23 -4 -26 -2 -18 14 6 11 6 20 1 23 -5 4 -11 1 -13 -6 -3 -7 -7 -3 -10 9
-5 18 -2 21 18 17 13 -2 24 0 24 6 0 7 6 6 14 -2 12 -11 12 -13 0 -16z m-883
-5 c-10 -9 -11 -8 -5 6 3 10 9 15 12 12 3 -3 0 -11 -7 -18z m743 8 c3 -8 1
-15 -4 -15 -6 0 -10 7 -10 15 0 8 2 15 4 15 2 0 6 -7 10 -15z m31 -3 c-3 -3
-11 0 -18 7 -9 10 -8 11 6 5 10 -3 15 -9 12 -12z m-1260 -1 c-8 -14 -44 -20
-39 -7 2 6 14 12 24 13 11 1 18 -2 15 -6z m409 -6 c-25 -19 -40 -19 -24 0 7 8
20 15 28 15 13 0 12 -3 -4 -15z m436 5 c-8 -5 -22 -9 -30 -9 -10 0 -8 3 5 9
27 12 43 12 25 0z m695 0 c-3 -5 0 -10 7 -10 9 0 9 -3 -2 -10 -12 -8 -12 -10
-1 -10 8 0 11 -3 8 -6 -4 -4 -13 -1 -22 6 -12 10 -15 9 -16 -6 0 -11 -3 -14
-5 -7 -7 15 13 53 27 53 6 0 7 -4 4 -10z m140 -8 c-3 -3 -11 0 -18 7 -9 10 -8
11 6 5 10 -3 15 -9 12 -12z m-1110 -2 c-3 -5 -11 -10 -16 -10 -6 0 -7 5 -4 10
3 6 11 10 16 10 6 0 7 -4 4 -10z m1295 -5 c0 6 5 2 11 -7 5 -10 15 -18 22 -18
8 0 8 3 -2 9 -8 5 -9 11 -3 15 15 9 34 -21 27 -44 -6 -20 -29 -27 -39 -11 -9
14 -58 0 -52 -15 4 -9 -2 -14 -15 -14 -11 0 -17 -4 -14 -10 3 -5 1 -10 -4 -10
-16 0 -13 20 4 26 8 4 15 14 14 23 0 10 -2 11 -6 4 -2 -7 -11 -13 -19 -13 -8
0 -14 -5 -14 -11 0 -5 -5 -7 -11 -3 -22 13 33 44 67 38 23 -4 33 -2 37 11 4
10 2 15 -6 13 -13 -3 -17 3 -17 25 0 8 4 7 10 -3 5 -8 10 -10 10 -5z m-1530
-18 c0 -6 -3 -7 -7 -4 -3 4 -12 2 -20 -5 -10 -8 -17 -8 -24 -1 -8 8 -6 11 7
10 11 -1 18 3 17 10 -2 7 4 10 12 7 8 -4 15 -11 15 -17z m900 -1 c0 -2 -12 -2
-27 1 -24 3 -25 2 -8 -6 20 -9 20 -10 -1 -10 -29 -1 -37 10 -16 25 14 10 52 4
52 -10z m-1281 0 c10 -12 8 -13 -8 -9 -12 3 -18 9 -15 14 7 12 10 11 23 -5z
m1651 4 c0 -5 -7 -7 -15 -4 -8 4 -15 8 -15 10 0 2 7 4 15 4 8 0 15 -4 15 -10z
m40 -5 c8 5 11 4 6 -3 -3 -6 0 -17 8 -25 13 -13 11 -16 -12 -26 -24 -10 -25
-10 -10 2 17 13 17 15 -2 32 -11 10 -20 23 -20 29 0 6 4 5 9 -3 5 -8 14 -10
21 -6z m-145 -28 c7 -11 20 -17 28 -14 8 3 20 0 26 -6 14 -14 15 4 1 21 -6 6
-7 10 -4 7 4 -3 13 0 20 6 11 9 15 7 20 -5 4 -10 13 -15 20 -12 8 3 14 1 14
-4 0 -13 -23 -13 -37 1 -7 7 -12 4 -16 -10 -3 -14 0 -21 9 -21 8 0 14 -4 14
-10 0 -18 -29 -11 -40 10 -10 18 -13 19 -26 5 -16 -15 -55 -21 -53 -7 2 15
-14 52 -22 52 -5 0 -9 4 -9 9 0 15 40 0 55 -22z m-1530 1 c14 -6 25 -18 24
-27 0 -10 -2 -12 -6 -4 -3 10 -10 10 -25 2 -13 -7 -18 -7 -14 -1 3 6 2 13 -4
17 -10 6 -14 25 -5 25 2 0 16 -5 30 -12z m110 -2 c12 -11 10 -15 -11 -25 -20
-9 -23 -14 -15 -30 8 -14 7 -22 -4 -31 -11 -9 -15 -9 -15 -1 0 6 -5 11 -11 11
-5 0 -8 -4 -5 -9 3 -5 -2 -12 -11 -15 -12 -5 -14 -9 -6 -14 8 -5 8 -12 -2 -25
-11 -16 -13 -16 -19 -2 -4 10 -2 14 5 9 8 -4 9 1 4 15 -4 12 -2 21 4 21 13 0
14 10 2 29 -8 13 -12 13 -26 1 -15 -13 -17 -12 -13 5 2 11 10 21 18 21 8 1 18
3 23 4 4 1 10 3 15 4 21 5 52 28 47 37 -9 14 4 11 20 -5z m233 -21 c-3 -3 -9
2 -12 12 -6 14 -5 15 5 6 7 -7 10 -15 7 -18z m837 15 c-3 -5 -13 -10 -21 -10
-8 0 -13 -4 -10 -8 3 -5 -1 -9 -9 -9 -19 0 -8 16 19 27 28 12 28 12 21 0z
m123 -15 c4 -4 -10 -6 -30 -3 -31 3 -39 0 -44 -15 -3 -10 -8 -16 -11 -14 -3 3
-2 14 1 25 5 16 14 20 42 18 19 -2 38 -7 42 -11z m-1164 -26 c-3 -5 -10 -6
-16 -3 -7 5 -9 1 -5 -9 3 -10 2 -17 -3 -17 -6 0 -10 2 -10 4 0 2 -3 12 -7 22
-4 12 -3 15 5 10 7 -4 12 -3 12 3 0 6 7 8 15 5 8 -4 12 -10 9 -15z m736 10 c0
-4 -11 -9 -25 -11 -16 -3 -25 -1 -25 7 0 7 11 12 25 11 14 0 25 -4 25 -7z
m910 -4 c6 -8 9 -19 5 -25 -3 -5 -2 -10 3 -10 6 0 8 -8 5 -18 -2 -10 -13 -18
-23 -18 -10 0 -16 4 -14 8 3 4 -5 8 -18 9 -21 1 -20 2 6 11 21 8 25 13 15 19
-11 7 -10 9 4 9 10 0 15 5 12 10 -4 6 -11 8 -16 5 -5 -4 -9 -1 -9 4 0 16 15
13 30 -4z m-356 -3 c3 -5 -10 -9 -29 -10 -19 -1 -35 3 -35 8 0 12 57 13 64 2z
m-734 -12 c-13 -9 -8 -14 12 -12 3 1 9 -5 12 -13 3 -8 1 -15 -5 -15 -6 0 -7
-5 -3 -11 4 -7 1 -10 -7 -7 -8 3 -13 11 -11 17 2 12 -14 15 -21 4 -2 -5 -2 -3
-1 4 2 7 -1 15 -6 18 -19 12 -10 25 18 25 21 0 24 -2 12 -10z m668 -5 c17 -4
32 -12 32 -18 0 -6 -3 -7 -6 -4 -4 3 -15 2 -25 -4 -12 -6 -19 -6 -19 0 0 5
-10 11 -22 13 -12 2 -23 8 -25 14 -4 11 11 11 65 -1z m226 6 c8 -12 -25 -37
-51 -39 -29 -1 -25 20 7 35 32 14 38 15 44 4z m96 5 c0 -3 -4 -8 -10 -11 -5
-3 -10 -1 -10 4 0 6 5 11 10 11 6 0 10 -2 10 -4z m-1455 -16 c3 -5 2 -10 -4
-10 -5 0 -13 5 -16 10 -3 6 -2 10 4 10 5 0 13 -4 16 -10z m793 -21 c10 -16 9
-19 -3 -19 -8 0 -15 4 -15 10 0 5 -7 7 -16 3 -12 -4 -8 -10 15 -24 36 -22 39
-29 9 -21 -16 4 -19 2 -13 -9 5 -8 5 -11 0 -7 -4 4 -14 3 -20 -2 -9 -8 -14 -5
-18 10 -4 14 0 20 11 20 12 0 13 3 4 12 -8 8 -9 15 -1 25 9 9 8 13 0 13 -7 0
-10 4 -7 9 9 14 40 2 54 -20z m300 -3 c3 -3 -2 -8 -11 -12 -9 -3 -24 1 -33 10
-15 16 -14 16 11 12 15 -3 30 -7 33 -10z m-1193 -30 c0 -14 -3 -22 -7 -20 -4
3 -8 -2 -8 -11 0 -16 5 -19 54 -30 23 -5 27 -8 15 -15 -8 -6 -15 -6 -17 0 -2
6 -8 7 -13 4 -6 -3 -21 1 -34 10 -17 11 -26 13 -31 4 -4 -7 -3 -8 4 -4 7 4 12
2 12 -3 0 -19 -29 -12 -41 11 -10 18 -9 20 5 15 17 -7 22 8 6 18 -5 3 -10 13
-10 21 0 14 2 13 16 0 18 -18 34 -21 34 -6 0 6 -5 10 -11 10 -8 0 -7 5 1 15
16 19 23 13 25 -19z m106 19 c10 6 11 5 4 -3 -6 -6 -21 -9 -34 -5 -16 4 -19 8
-10 14 8 4 16 3 20 -3 4 -6 13 -7 20 -3z m1179 5 c0 -5 -5 -10 -11 -10 -5 0
-7 5 -4 10 3 6 8 10 11 10 2 0 4 -4 4 -10z m284 -6 c5 -14 4 -15 -9 -4 -12 10
-15 10 -15 -4 0 -9 -4 -16 -10 -16 -11 0 -14 23 -3 33 12 12 31 7 37 -9z m166
6 c0 -5 -14 -10 -31 -10 -17 0 -28 4 -24 10 3 6 17 10 31 10 13 0 24 -4 24
-10z m-486 -15 c3 -8 1 -15 -4 -15 -6 0 -10 7 -10 15 0 8 2 15 4 15 2 0 6 -7
10 -15z m254 8 c-10 -2 -18 -9 -18 -15 0 -6 -3 -9 -6 -5 -10 10 6 27 24 26 15
-1 15 -2 0 -6z m-1268 -13 c0 -5 -7 -7 -15 -4 -8 4 -15 8 -15 10 0 2 7 4 15 4
8 0 15 -4 15 -10z m237 4 c-3 -3 -12 -4 -19 -1 -8 3 -5 6 6 6 11 1 17 -2 13
-5z m313 -4 c0 -5 -2 -10 -4 -10 -3 0 -8 5 -11 10 -3 6 -1 10 4 10 6 0 11 -4
11 -10z m-540 -30 c0 -5 -4 -10 -10 -10 -5 0 -10 5 -10 10 0 6 5 10 10 10 6 0
10 -4 10 -10z m393 -2 c-14 -24 -11 -33 15 -35 35 -2 55 -43 21 -43 -6 0 -7 5
-4 10 3 6 0 10 -7 11 -7 0 -22 2 -33 4 -10 2 -26 -2 -34 -8 -10 -8 -13 -8 -8
-1 8 14 -40 13 -62 0 -8 -5 -16 -4 -22 5 -13 21 -11 29 8 22 11 -4 14 -3 9 5
-10 16 6 15 23 0 11 -10 12 -10 7 -1 -6 10 -1 11 19 3 19 -7 24 -7 19 2 -5 8
-2 9 10 5 13 -5 17 -3 13 7 -4 9 1 17 11 19 9 3 18 5 20 6 2 0 0 -5 -5 -11z
m167 2 c0 -5 -5 -10 -11 -10 -6 0 -17 -6 -24 -14 -13 -13 -42 -14 -94 -2 -33
8 -41 18 -9 12 15 -2 29 1 32 7 5 9 7 9 12 0 8 -18 42 -16 60 2 18 17 34 20
34 5z m112 -21 c-22 -17 -31 -36 -13 -24 5 3 12 1 15 -4 9 -13 -26 -19 -70
-12 -38 7 -38 7 -11 14 15 4 33 5 40 1 7 -4 9 -4 6 0 -9 10 33 54 45 48 5 -3
0 -13 -12 -23z m508 21 c0 -5 -2 -10 -4 -10 -3 0 -8 5 -11 10 -3 6 -1 10 4 10
6 0 11 -4 11 -10z m230 0 c0 -5 -5 -10 -11 -10 -5 0 -7 5 -4 10 3 6 8 10 11
10 2 0 4 -4 4 -10z m-420 -15 c9 -10 9 -15 1 -15 -6 0 -11 5 -11 11 0 5 -4 7
-10 4 -5 -3 -10 -1 -10 4 0 16 16 13 30 -4z m-1187 -2 c-7 -2 -19 -2 -25 0 -7
3 -2 5 12 5 14 0 19 -2 13 -5z m1257 3 c0 -2 -9 -6 -20 -9 -11 -3 -20 -1 -20
4 0 5 9 9 20 9 11 0 20 -2 20 -4z m280 -6 c0 -5 -15 -10 -32 -10 -25 0 -29 3
-18 10 20 13 50 13 50 0z m-230 -4 c0 -11 -19 -15 -25 -6 -3 5 1 10 9 10 9 0
16 -2 16 -4z m370 -7 c0 -5 -4 -8 -9 -5 -5 3 -11 -1 -15 -9 -3 -8 0 -17 6 -21
6 -4 8 -3 5 3 -4 6 4 11 18 11 16 0 25 -6 25 -17 0 -13 -2 -13 -9 -3 -7 11
-13 9 -31 -10 -13 -12 -20 -18 -16 -11 3 6 0 15 -8 20 -9 6 -11 15 -5 31 8 22
39 31 39 11z m-1425 -8 c-3 -5 -1 -12 4 -15 5 -4 12 -2 16 4 10 16 35 12 35
-6 0 -9 5 -12 12 -8 6 4 8 3 4 -4 -3 -6 2 -16 11 -22 15 -10 15 -11 1 -6 -9 2
-19 -2 -22 -10 -3 -8 -1 -14 4 -14 6 0 10 -8 10 -17 0 -15 -2 -16 -10 -3 -9
13 -10 13 -10 0 0 -12 -2 -12 -9 -2 -4 8 -17 12 -27 10 -10 -2 -19 2 -19 9 0
15 -15 30 -15 14 0 -6 -12 -16 -27 -22 -16 -7 -23 -13 -15 -16 17 -7 15 -32
-3 -29 -32 5 -37 23 -10 40 14 9 23 21 20 27 -4 5 -10 7 -15 4 -5 -3 -3 6 5
21 7 14 24 32 37 39 30 17 30 17 23 6z m1519 3 c13 -5 14 -9 5 -20 -6 -8 -17
-14 -23 -14 -6 0 -4 4 4 10 16 10 8 15 -40 23 -21 4 -20 4 7 6 17 0 39 -2 47
-5z m-1324 -30 c0 -9 -5 -12 -12 -8 -8 5 -9 2 -5 -9 3 -10 2 -17 -2 -17 -5 0
-11 5 -13 11 -2 5 -20 11 -40 12 -20 1 -34 6 -31 10 3 5 17 5 32 2 19 -4 32
-1 41 9 14 18 30 12 30 -10z m290 11 c0 -9 -6 -12 -15 -9 -8 4 -15 10 -15 15
0 5 7 9 15 9 8 0 15 -7 15 -15z m360 1 c-6 -8 -18 -12 -27 -9 -12 5 -12 7 -1
14 7 5 19 9 27 9 11 0 11 -3 1 -14z m480 10 c0 -11 -19 -15 -25 -6 -3 5 1 10
9 10 9 0 16 -2 16 -4z m-1390 -38 c0 -5 -9 -8 -20 -8 -11 0 -20 -4 -20 -8 0
-4 -9 -8 -21 -9 -13 -1 -19 3 -16 11 3 8 0 19 -6 26 -9 10 -9 11 3 5 28 -16
60 -15 60 3 0 15 2 15 10 2 5 -8 10 -18 10 -22z m490 22 c0 -5 -4 -10 -10 -10
-5 0 -10 5 -10 10 0 6 5 10 10 10 6 0 10 -4 10 -10z m240 -10 c-6 -11 -13 -20
-16 -20 -3 0 -2 5 1 10 3 6 0 10 -7 11 -10 0 12 14 30 18 1 1 -2 -8 -8 -19z
m70 5 c14 9 18 -34 4 -46 -8 -6 -11 -15 -8 -20 3 -5 -2 -9 -10 -9 -10 0 -13
-6 -10 -15 4 -8 1 -15 -6 -15 -6 0 -8 5 -4 11 5 9 -1 10 -21 5 -24 -6 -27 -5
-17 7 7 8 9 17 5 20 -3 4 -1 7 5 7 5 0 12 -5 14 -12 3 -8 11 -5 24 8 25 26 28
44 8 44 -8 0 -13 -4 -9 -9 3 -5 1 -12 -5 -16 -5 -3 -10 -1 -10 5 0 7 -7 10
-15 6 -12 -4 -13 -2 -3 14 7 10 15 17 19 14 4 -2 11 1 15 8 6 9 9 9 12 0 2 -7
7 -10 12 -7z m205 5 c3 -5 1 -10 -4 -10 -6 0 -11 5 -11 10 0 6 2 10 4 10 3 0
8 -4 11 -10z m175 1 c0 -8 23 -8 78 0 25 4 52 -3 47 -11 -3 -5 -1 -10 4 -10
15 0 10 -20 -11 -43 -11 -12 -25 -18 -37 -14 -12 3 -19 2 -16 -3 2 -4 -16 -6
-40 -4 -29 2 -44 0 -42 -8 1 -6 -4 -13 -12 -16 -8 -3 -11 0 -7 7 5 7 1 9 -8 5
-12 -5 -16 1 -16 21 0 14 -4 24 -8 21 -4 -2 -14 -1 -22 5 -12 7 -12 9 4 9 13
0 16 4 10 13 -5 7 -1 4 10 -8 19 -20 50 -22 74 -3 9 8 12 6 12 -6 0 -9 -7 -16
-16 -16 -8 0 -12 -5 -9 -10 9 -15 48 15 52 40 2 15 -1 19 -9 14 -7 -5 -30 -10
-51 -11 -35 -3 -37 -2 -25 17 13 20 38 28 38 11z m-223 -9 c8 -5 9 -13 3 -22
-7 -11 -10 -12 -10 -2 0 7 -4 11 -8 8 -5 -3 -9 1 -9 9 0 17 6 18 24 7z m-627
-12 c21 -13 7 -22 -25 -14 -20 5 -23 9 -13 15 16 11 20 11 38 -1z m1016 -20
c0 -31 -8 -32 -12 -3 -3 15 3 33 10 33 1 0 2 -13 2 -30z m45 -4 c-6 -14 -13
-26 -16 -26 -4 0 -3 5 0 10 3 6 0 10 -7 10 -9 0 -9 3 2 10 8 5 11 10 5 10 -5
0 -3 4 5 10 20 12 22 7 11 -24z m57 -13 c14 -13 28 -20 31 -16 11 15 33 14 58
-3 14 -9 22 -11 19 -5 -4 7 1 11 13 11 21 0 46 -32 34 -44 -3 -3 -1 -6 5 -6 7
0 12 -4 12 -9 0 -6 -9 -9 -19 -8 -11 0 -18 4 -15 8 2 4 1 14 -2 23 -4 12 -10
13 -24 4 -20 -13 -55 -3 -45 12 3 5 -1 10 -9 10 -8 0 -18 -4 -21 -10 -7 -12
-36 -14 -32 -2 1 4 -8 17 -20 30 -13 12 -23 30 -22 40 0 13 2 13 6 3 3 -8 17
-25 31 -38z m-968 27 c0 -5 -2 -10 -4 -10 -3 0 -8 5 -11 10 -3 6 -1 10 4 10 6
0 11 -4 11 -10z m-693 -7 c-4 -3 1 -12 11 -19 15 -11 13 -14 -20 -28 -43 -19
-58 -20 -58 -6 0 6 7 10 15 10 8 0 15 5 15 10 0 6 7 10 15 10 8 0 14 3 14 8
-2 13 1 22 8 22 3 0 3 -3 0 -7z m643 3 c0 -2 -7 -7 -16 -10 -8 -3 -12 -2 -9 4
6 10 25 14 25 6z m95 -17 c-11 -4 -27 -8 -35 -8 -10 1 -11 2 -2 6 6 2 10 8 7
12 -2 5 8 6 23 3 24 -5 24 -6 7 -13z m38 6 c-3 -9 -8 -14 -10 -11 -3 3 -2 9 2
15 9 16 15 13 8 -4z m437 3 c0 -4 -4 -8 -9 -8 -6 0 -12 4 -15 8 -3 5 1 9 9 9
8 0 15 -4 15 -9z m30 8 c0 -3 -4 -8 -10 -11 -5 -3 -10 -1 -10 4 0 6 5 11 10
11 6 0 10 -2 10 -4z m509 -5 c9 -6 10 -11 2 -15 -6 -4 -11 -3 -11 3 0 5 -8 12
-17 14 -13 3 -14 5 -3 6 8 0 21 -3 29 -8z m-1115 -28 c17 -5 31 -14 34 -21 2
-6 -13 -3 -34 7 -21 11 -45 16 -53 13 -14 -5 -14 -4 -1 10 8 9 17 12 20 8 3
-4 18 -11 34 -17z m291 8 c-3 -6 -11 -11 -16 -11 -5 0 -4 6 3 14 14 16 24 13
13 -3z m145 15 c0 -3 -4 -8 -10 -11 -5 -3 -10 -1 -10 4 0 6 5 11 10 11 6 0 10
-2 10 -4z m-944 -16 c9 0 13 -4 10 -9 -7 -11 -44 -3 -53 12 -4 7 0 8 11 4 10
-4 24 -7 32 -7z m1052 -21 c8 -3 6 -8 -7 -16 -14 -9 -24 -8 -45 2 -15 8 -26
10 -26 4 0 -6 -4 -7 -10 -4 -5 3 -10 -2 -10 -12 0 -15 -2 -16 -10 -3 -8 13
-14 8 -12 -10 0 -3 -8 -7 -19 -7 -18 -2 -18 0 3 17 20 17 21 21 8 30 -11 7 -7
9 18 6 17 -2 32 1 32 6 0 5 4 7 9 3 5 -3 13 0 16 5 5 8 12 7 23 -3 10 -8 23
-16 30 -18z m-1105 8 c3 -7 -3 -13 -13 -13 -10 0 -16 6 -13 13 3 7 9 13 13 13
4 0 10 -6 13 -13z m667 3 c0 -5 -5 -10 -11 -10 -5 0 -7 5 -4 10 3 6 8 10 11
10 2 0 4 -4 4 -10z m88 -22 c2 -20 8 -26 20 -22 14 5 15 4 2 -5 -9 -6 -19 -6
-24 -1 -11 11 -38 1 -30 -11 3 -5 0 -9 -5 -9 -6 0 -11 5 -11 11 0 6 -7 18 -16
27 -15 14 -15 17 2 29 29 21 59 12 62 -19z m405 18 c11 1 16 0 13 -3 -3 -4 -1
-12 5 -20 9 -9 8 -13 0 -13 -6 0 -11 5 -11 10 0 6 -9 10 -20 10 -12 0 -20 7
-20 18 0 10 3 13 8 6 4 -6 15 -10 25 -8z m47 4 c0 -5 -5 -10 -11 -10 -5 0 -7
5 -4 10 3 6 8 10 11 10 2 0 4 -4 4 -10z m-796 -12 c-3 -4 -11 -5 -19 -1 -21 7
-19 12 4 10 11 0 18 -5 15 -9z m211 2 c3 -5 1 -10 -4 -10 -6 0 -11 5 -11 10 0
6 2 10 4 10 3 0 8 -4 11 -10z m-781 -9 c3 -5 -2 -15 -12 -22 -15 -12 -16 -12
-5 2 7 9 10 19 6 22 -3 4 -4 7 0 7 3 0 8 -4 11 -9z m1400 1 c2 -4 -4 -14 -16
-21 -11 -7 -17 -8 -13 -2 3 6 0 11 -7 11 -9 0 -9 3 2 10 18 12 27 12 34 2z
m-294 -12 c0 -5 -2 -10 -4 -10 -3 0 -8 5 -11 10 -3 6 -1 10 4 10 6 0 11 -4 11
-10z m-965 -20 l30 -20 -32 0 c-26 0 -31 3 -26 16 5 13 2 15 -17 9 -15 -5 -20
-4 -16 4 10 16 27 14 61 -9z m-182 3 c-7 -2 -21 -2 -30 0 -10 3 -4 5 12 5 17
0 24 -2 18 -5z m117 -12 c13 -13 12 -14 -4 -8 -10 4 -24 7 -32 7 -9 0 -13 4
-10 8 8 13 31 10 46 -7z m944 4 c3 -8 1 -15 -4 -15 -6 0 -10 7 -10 15 0 8 2
15 4 15 2 0 6 -7 10 -15z m400 6 c3 -5 -1 -11 -9 -15 -15 -6 -29 7 -18 18 9 9
21 8 27 -3z m371 -1 c3 -5 1 -10 -4 -10 -6 0 -11 5 -11 10 0 6 2 10 4 10 3 0
8 -4 11 -10z"/>
<path d="M1148 1547 c-19 -7 -28 -18 -28 -32 0 -19 -5 -22 -33 -20 -23 2 -34
-2 -34 -11 0 -8 4 -14 9 -14 4 0 8 4 8 9 0 5 9 7 20 4 11 -3 17 -10 13 -17 -3
-6 3 -3 14 7 11 9 23 14 26 11 4 -4 14 -1 23 7 10 8 19 12 22 9 3 -3 7 5 8 18
2 13 -1 22 -9 22 -8 0 -7 4 3 10 13 9 13 10 0 9 -8 -1 -27 -6 -42 -12z m5 -44
c-3 -7 -9 -10 -14 -7 -14 8 -11 21 5 21 8 0 12 -6 9 -14z"/>
<path d="M1080 1520 c0 -13 18 -22 24 -11 3 5 -1 11 -9 15 -8 3 -15 1 -15 -4z"/>
<path d="M1033 1445 c-14 -16 14 -42 30 -26 8 8 6 11 -8 11 -17 1 -17 3 5 15
22 12 23 14 4 12 -11 0 -25 -6 -31 -12z"/>
<path d="M1236 1341 c-3 -5 0 -12 6 -14 8 -4 7 -6 -4 -6 -9 -1 -19 5 -21 12
-5 12 -6 9 -7 -20 0 -3 15 -8 35 -10 32 -3 34 -2 26 19 -9 25 -26 34 -35 19z"/>
<path d="M1075 1270 c-4 -6 -3 -10 2 -9 4 1 16 1 27 0 15 -1 16 -4 7 -15 -8
-10 -9 -16 -1 -21 5 -3 10 1 10 9 0 9 6 16 13 16 6 1 1 7 -13 15 -30 17 -37
18 -45 5z"/>
<path d="M317 1559 c7 -7 15 -10 18 -7 3 3 -2 9 -12 12 -14 6 -15 5 -6 -5z"/>
<path d="M247 1554 c-13 -13 5 -24 36 -24 l32 1 -25 14 c-29 16 -34 17 -43 9z"/>
<path d="M292 1501 c-10 -6 -9 -11 5 -22 10 -7 15 -9 11 -5 -4 5 -3 15 3 23
13 14 1 17 -19 4z"/>
<path d="M1360 1545 c-10 -12 -9 -16 3 -21 17 -6 37 2 37 16 0 15 -29 19 -40
5z"/>
<path d="M280 1401 c0 -6 5 -13 10 -16 6 -3 10 1 10 9 0 9 -4 16 -10 16 -5 0
-10 -4 -10 -9z"/>
<path d="M740 1329 c0 -5 5 -7 10 -4 6 3 10 8 10 11 0 2 -4 4 -10 4 -5 0 -10
-5 -10 -11z"/>
<path d="M817 1246 c-4 -10 0 -14 14 -13 10 1 18 6 16 11 -5 16 -24 18 -30 2z"/>
<path d="M1613 1255 c0 -8 4 -15 9 -15 4 0 8 4 8 9 0 6 -4 12 -8 15 -5 3 -9
-1 -9 -9z"/>
<path d="M553 1044 c-4 -10 -8 -12 -13 -5 -4 8 -13 6 -28 -7 -14 -13 -18 -22
-11 -33 7 -11 9 -11 9 4 0 20 1 20 36 7 24 -9 26 -8 21 10 -3 11 -1 20 4 20 5
0 9 -7 9 -16 0 -8 4 -12 10 -9 6 4 5 13 -3 25 -14 24 -26 25 -34 4z"/>
<path d="M1728 1033 c10 -4 9 -8 -4 -17 -14 -11 -13 -13 15 -13 17 0 31 3 31
7 0 12 -24 30 -39 29 -12 0 -12 -2 -3 -6z"/>
<path d="M1035 970 c-8 -12 2 -30 17 -30 6 0 8 3 5 7 -4 3 -2 12 4 20 9 10 8
13 -4 13 -9 0 -19 -4 -22 -10z"/>
<path d="M2120 950 l0 -950 725 0 c684 0 725 1 725 18 -1 9 -7 44 -15 77 -22
91 -21 95 24 95 29 0 55 -11 100 -41 33 -22 61 -45 61 -50 0 -5 5 -9 11 -9 19
0 39 -28 32 -46 -4 -12 -3 -15 5 -10 7 4 12 2 12 -6 0 -10 2 -10 9 1 14 21 41
23 34 3 -4 -14 -2 -14 10 1 15 18 16 18 19 -5 3 -23 4 -23 156 -26 l152 -3 0
951 0 950 -1030 0 -1030 0 0 -950z m1037 907 c12 5 14 3 8 -8 -5 -9 -1 -8 10
3 16 15 20 15 42 1 13 -9 26 -13 30 -10 12 12 32 -27 21 -40 -7 -9 -7 -17 2
-28 7 -8 9 -15 4 -15 -5 0 -2 -5 6 -10 12 -8 13 -12 2 -19 -11 -7 -11 -9 2
-14 12 -5 13 -12 4 -39 -5 -18 -10 -43 -9 -55 0 -12 -4 -25 -9 -28 -6 -4 -8
-10 -5 -15 3 -5 1 -11 -5 -15 -15 -9 -13 -48 3 -42 8 3 14 -4 15 -19 1 -13 -3
-24 -8 -24 -6 0 -3 -11 5 -24 10 -14 12 -27 6 -30 -5 -3 -12 0 -14 6 -3 8 -6
6 -6 -5 -1 -10 -5 -16 -10 -13 -14 9 -31 -42 -24 -74 5 -27 3 -30 -18 -28 -22
3 -25 -4 -55 -122 -17 -69 -38 -141 -46 -160 -8 -19 -16 -38 -17 -42 -1 -4
-12 -27 -25 -50 -28 -51 -40 -115 -31 -159 6 -25 16 -35 59 -54 70 -31 82 -46
66 -86 -15 -35 -49 -52 -86 -43 -22 6 -24 3 -23 -27 2 -60 13 -92 32 -95 10
-1 25 -8 33 -15 14 -12 14 -14 -3 -20 -12 -5 -2 -9 33 -14 59 -8 107 -44 97
-72 -5 -12 -3 -14 7 -8 10 6 11 3 6 -16 -16 -49 -18 -91 -7 -135 7 -26 9 -49
7 -52 -3 -3 -30 0 -61 7 -69 15 -110 52 -124 112 -6 24 -21 78 -32 119 -12 41
-28 102 -36 135 -8 33 -30 120 -50 192 -39 144 -41 218 -9 281 9 17 16 51 16
76 0 47 3 50 62 60 42 7 68 25 68 46 0 11 -3 20 -8 20 -4 0 -12 10 -17 22 -14
29 -72 58 -118 58 -31 0 -39 4 -47 26 -10 25 -14 74 -6 74 2 0 22 -7 45 -15
55 -19 52 -3 -5 30 l-46 27 7 72 c13 135 46 241 95 303 35 44 138 94 148 71 2
-4 10 -4 19 -1z m267 -546 c3 -5 -3 -11 -13 -14 -14 -3 -18 -1 -14 9 6 16 19
18 27 5z m-879 -101 c3 -5 2 -10 -4 -10 -5 0 -13 5 -16 10 -3 6 -2 10 4 10 5
0 13 -4 16 -10z m1456 -1147 c13 -16 12 -17 -3 -4 -10 7 -18 15 -18 17 0 8 8
3 21 -13z"/>
<path d="M644 1764 c22 -22 20 -25 -10 -18 -19 5 -25 4 -20 -5 9 -14 43 -15
51 -1 7 12 -12 40 -27 40 -5 0 -2 -7 6 -16z"/>
<path d="M577 1756 c-4 -10 -1 -13 9 -9 15 6 19 23 5 23 -5 0 -11 -7 -14 -14z"/>
<path d="M815 1760 c-3 -5 -1 -10 4 -10 6 0 11 5 11 10 0 6 -2 10 -4 10 -3 0
-8 -4 -11 -10z"/>
<path d="M518 1734 c4 -2 7 -18 6 -34 -2 -27 0 -29 19 -18 20 10 20 11 1 25
-10 8 -18 17 -16 21 2 3 -1 7 -7 8 -7 2 -8 1 -3 -2z"/>
<path d="M1175 1707 c-15 -12 -16 -15 -2 -20 9 -3 18 1 21 10 9 22 3 25 -19
10z"/>
<path d="M1964 1678 c-4 -6 -3 -8 4 -4 6 3 13 2 17 -4 3 -5 -1 -10 -9 -10 -9
0 -16 -4 -16 -10 0 -5 5 -10 11 -10 5 0 7 -6 3 -12 -5 -10 -4 -10 6 -1 19 18
22 50 5 57 -8 3 -17 0 -21 -6z"/>
<path d="M2069 1206 c0 -1 -3 -13 -5 -28 -4 -23 -1 -28 16 -28 15 0 20 7 20
28 0 19 -5 29 -15 29 -8 0 -15 -1 -16 -1z"/>
<path d="M118 903 c7 -3 16 -2 19 1 4 3 -2 6 -13 5 -11 0 -14 -3 -6 -6z"/>
<path d="M158 903 c7 -3 16 -2 19 1 4 3 -2 6 -13 5 -11 0 -14 -3 -6 -6z"/>
<path d="M1090 683 c0 -89 3 -108 18 -119 12 -10 14 -16 5 -21 -8 -6 -2 -14
19 -26 25 -14 29 -15 18 -2 -17 21 -1 19 35 -5 41 -27 50 -25 26 6 -11 15 -18
30 -15 35 4 8 -8 13 -27 11 -3 -1 -6 5 -6 12 0 8 11 13 28 12 15 0 25 -5 21
-10 -3 -5 2 -7 12 -3 10 4 15 3 11 -3 -3 -6 -1 -10 5 -10 5 0 19 -15 30 -32
11 -18 20 -28 20 -21 0 19 29 9 55 -19 13 -14 22 -28 20 -30 -2 -2 4 -4 13 -5
9 0 45 -7 80 -16 34 -8 62 -11 62 -6 0 5 -7 9 -15 9 -9 0 -18 7 -21 15 -4 8
-13 15 -22 15 -37 0 -80 24 -85 47 -3 18 0 23 17 23 31 0 76 -23 76 -39 0 -9
-8 -11 -27 -7 -21 5 -24 4 -13 -4 23 -15 70 -12 70 5 0 8 6 15 13 15 19 0 14
42 -6 54 -12 8 -20 7 -29 -3 -11 -12 -10 -13 4 -8 13 4 15 2 11 -10 -5 -12 -3
-14 7 -8 8 5 11 3 8 -5 -11 -33 -45 -3 -39 34 1 5 -5 6 -14 2 -9 -3 -13 -2
-10 3 3 5 -4 12 -15 16 -11 4 -18 11 -14 16 3 6 -3 13 -15 16 -12 3 -21 9 -21
13 0 5 -16 14 -35 20 -19 6 -35 18 -35 26 0 9 5 13 13 9 6 -4 3 1 -8 11 -16
13 -17 16 -3 11 10 -3 20 -1 24 5 5 7 -3 9 -24 6 -27 -4 -30 -2 -21 14 12 23
-11 35 -37 20 -11 -6 -27 -7 -41 -1 -13 5 -23 6 -23 3 0 -4 -6 -2 -12 3 -7 6
-21 9 -30 8 -10 -2 -18 0 -18 5 0 4 -9 10 -20 13 -19 5 -20 0 -20 -100z m54
-94 c-3 -5 -14 -9 -25 -9 -16 0 -18 2 -7 14 14 14 42 10 32 -5z m51 11 c-3 -5
-12 -7 -20 -3 -21 7 -19 13 6 13 11 0 18 -4 14 -10z m-55 -55 c0 -8 -4 -15
-10 -15 -5 0 -7 7 -4 15 4 8 8 15 10 15 2 0 4 -7 4 -15z"/>
<path d="M1310 751 c0 -17 19 -22 37 -11 15 9 14 10 -6 4 -16 -4 -21 -3 -17 5
4 6 2 11 -3 11 -6 0 -11 -4 -11 -9z"/>
<path d="M2040 688 c0 -4 -3 -7 -7 -6 -24 6 -133 -16 -162 -33 -18 -11 -36
-18 -39 -15 -2 3 -17 -3 -31 -14 -15 -10 -39 -22 -54 -25 -20 -5 -25 -11 -18
-19 7 -9 -5 -15 -45 -24 -30 -7 -58 -11 -63 -8 -4 3 -16 0 -25 -7 -16 -12 -15
-13 6 -15 13 -1 61 2 108 8 47 5 140 12 208 15 68 3 134 10 147 15 12 5 26 6
29 3 3 -4 6 25 6 64 l0 70 -30 0 c-16 0 -30 -4 -30 -9z"/>
<path d="M275 577 c-4 -10 -5 -33 -2 -52 5 -33 4 -35 -24 -35 -27 0 -30 -3
-23 -22 4 -13 9 -25 13 -28 9 -7 14 -61 12 -132 -1 -34 -5 -48 -15 -48 -8 0
-17 7 -20 16 -3 8 -10 12 -16 9 -6 -4 -10 11 -10 38 l0 43 -52 10 c-35 6 -52
13 -50 22 1 8 -2 11 -8 7 -6 -4 -9 -13 -6 -21 3 -8 -1 -14 -8 -14 -8 0 -13
-11 -13 -25 0 -22 4 -25 36 -25 62 0 69 -16 13 -30 l-50 -13 -1 -139 -1 -138
510 0 510 0 -1 205 0 206 -26 -21 c-14 -11 -35 -20 -46 -20 -25 0 -17 9 13 15
45 9 32 15 -26 14 -32 -1 -49 -4 -36 -6 43 -8 21 -21 -33 -18 -30 1 -52 -2
-49 -6 4 -7 -61 -15 -89 -10 -4 1 -5 -10 -1 -24 4 -15 2 -25 -4 -25 -6 0 -12
10 -14 22 -5 33 -53 43 -74 15 -11 -15 -18 -18 -21 -9 -3 6 -11 12 -19 12 -8
0 -14 5 -14 10 0 6 7 10 16 10 8 0 12 5 9 10 -4 6 -11 7 -17 4 -7 -5 -9 0 -6
14 4 12 2 22 -3 22 -5 0 -8 10 -6 21 1 12 -5 24 -13 26 -13 4 -13 3 0 -6 8 -6
10 -11 5 -11 -7 0 -9 -17 -5 -47 6 -55 -7 -113 -27 -113 -7 0 -13 -5 -13 -11
0 -5 -4 -7 -10 -4 -7 4 -7 -3 0 -20 12 -32 12 -58 0 -30 -5 11 -9 14 -9 8 -1
-7 -5 -13 -9 -13 -5 0 -7 13 -4 29 2 16 -1 32 -7 35 -6 4 -11 2 -11 -3 0 -6
-7 -11 -16 -11 -8 0 -12 5 -9 10 3 6 -1 10 -10 10 -11 0 -15 -5 -12 -15 4 -8
2 -17 -3 -20 -6 -4 -10 6 -10 22 0 27 -2 28 -49 29 -41 2 -50 -1 -54 -17 -4
-15 -10 -17 -28 -11 -28 11 -34 53 -8 59 11 3 16 9 13 14 -3 5 0 9 6 9 7 0 14
-9 17 -20 3 -11 12 -20 21 -20 12 0 13 3 4 12 -7 7 -12 17 -12 23 0 5 5 3 10
-5 8 -12 10 -11 10 7 0 16 -4 21 -15 17 -8 -4 -27 -3 -41 0 -23 6 -24 9 -11
19 19 15 12 87 -9 87 -9 0 -14 12 -15 33 -1 17 -4 43 -9 57 -6 22 -8 23 -15 7z
m-8 -199 c-3 -7 -5 -2 -5 12 0 14 2 19 5 13 2 -7 2 -19 0 -25z m33 10 c0 -12
-3 -18 -7 -14 -11 10 -12 36 -2 36 5 0 9 -10 9 -22z m-140 -32 c0 -2 -18 -6
-39 -8 -22 -2 -37 0 -35 4 5 8 74 11 74 4z m136 -31 c4 -26 -13 -16 -19 11 -3
18 -1 22 6 15 6 -6 12 -18 13 -26z m458 -41 c3 -8 2 -12 -4 -9 -6 3 -10 10
-10 16 0 14 7 11 14 -7z m-236 -50 c2 -22 0 -25 -13 -14 -18 15 -20 40 -2 40
7 0 14 -12 15 -26z m-180 -75 c-10 -7 -11 -9 0 -9 7 0 10 -5 6 -11 -4 -8 -9
-7 -15 2 -14 22 -10 39 7 32 13 -5 13 -7 2 -14z m-183 -59 c3 -5 -1 -10 -10
-10 -9 0 -13 5 -10 10 3 6 8 10 10 10 2 0 7 -4 10 -10z"/>
<path d="M2083 539 c-5 -5 -20 -11 -32 -12 -14 -1 -20 -6 -16 -15 3 -7 5 -15
5 -18 0 -2 11 1 24 6 13 5 27 6 30 3 3 -4 6 6 6 20 0 30 -1 32 -17 16z"/>
<path d="M341 510 c0 -20 5 -42 12 -49 10 -11 9 -14 -1 -18 -9 -4 -10 -8 -2
-18 6 -7 9 -17 8 -23 -2 -5 2 -9 7 -8 6 0 9 5 7 10 -2 5 5 3 14 -5 10 -8 15
-9 11 -3 -5 8 5 11 28 11 19 -1 35 -5 35 -10 0 -5 -9 -7 -20 -4 -26 7 -42 -13
-27 -33 7 -8 18 -15 25 -16 27 -2 31 -5 34 -21 2 -13 16 -17 63 -18 33 -1 54
0 46 3 -11 4 -11 6 0 13 12 7 12 9 0 9 -11 0 -10 4 5 16 13 11 15 17 6 20 -6
3 -10 10 -6 15 3 5 0 9 -5 9 -6 0 -11 -5 -11 -11 0 -22 -44 -4 -50 21 -5 21
-7 22 -13 8 -11 -29 -24 -20 -36 25 -11 39 -15 43 -39 39 -44 -6 -80 13 -85
45 -3 24 -4 24 -6 -7z m165 -155 c-3 -8 -1 -15 4 -15 6 0 10 -4 10 -8 0 -5 -7
-9 -15 -9 -9 0 -15 10 -15 24 0 13 5 23 11 23 6 0 9 -7 5 -15z m49 -24 c3 -5
2 -12 -3 -15 -5 -3 -9 1 -9 9 0 17 3 19 12 6z"/>
<path d="M1703 508 c-13 -6 -23 -15 -23 -20 0 -5 6 -6 13 -1 6 4 28 13 47 19
30 10 31 12 10 12 -14 0 -35 -4 -47 -10z"/>
<path d="M1835 503 c-20 -15 -19 -15 5 -9 14 3 32 6 40 6 13 0 13 1 0 10 -19
13 -21 12 -45 -7z"/>
<path d="M1090 255 l-1 -255 55 0 c48 0 58 3 72 25 13 20 25 25 55 25 44 0 52
15 14 24 -14 4 -25 11 -25 16 0 6 3 9 8 8 12 -5 52 41 41 47 -15 10 1 27 19
20 8 -3 19 0 24 7 6 10 10 10 18 -2 7 -12 13 -13 28 -3 15 9 22 9 32 0 10 -9
11 -9 6 1 -4 6 -2 12 3 12 6 0 11 -5 11 -11 0 -6 10 -19 23 -30 17 -15 19 -20
9 -27 -11 -7 -7 -14 15 -30 15 -12 22 -22 16 -22 -7 0 -13 -5 -13 -11 0 -11 4
-11 105 11 68 15 73 14 140 -9 33 -12 69 -21 81 -21 13 0 29 -7 38 -15 11 -12
40 -15 125 -15 l111 0 0 160 c0 138 -2 160 -16 160 -8 0 -12 5 -9 10 4 6 -5
10 -20 10 -24 0 -25 -1 -11 -16 9 -8 16 -18 16 -21 0 -4 -3 -4 -6 0 -3 3 -15
-3 -26 -13 -19 -18 -22 -18 -54 -2 -18 9 -32 22 -30 27 2 6 -16 9 -45 7 -50
-4 -70 13 -26 21 13 3 8 5 -16 6 -35 1 -36 0 -25 -19 14 -22 17 -23 68 -20 40
2 37 -7 -9 -20 -20 -5 -31 -5 -31 1 0 6 -9 7 -21 4 -13 -5 -19 -3 -15 3 3 6
-12 9 -42 7 -28 -2 -50 2 -54 8 -6 8 -10 9 -15 2 -9 -11 -35 -12 -123 -2 -30
4 -80 9 -110 13 -92 10 -189 33 -215 50 -14 9 -25 12 -25 6 0 -6 8 -12 18 -14
14 -3 13 -5 -6 -10 -12 -3 -20 -2 -17 2 3 5 0 12 -7 17 -7 4 -18 17 -24 28 -6
11 -22 20 -36 21 -30 1 -50 12 -43 24 3 4 -2 10 -10 14 -25 9 -18 28 8 20 25
-8 22 -2 -10 15 l-22 11 -1 -255z m86 155 c14 0 22 -4 19 -10 -9 -15 -39 -12
-61 6 -17 14 -17 15 -1 10 10 -3 30 -6 43 -6z m114 -118 c8 -3 96 -6 195 -7
160 0 180 -2 179 -16 -1 -14 13 -17 80 -21 62 -4 89 -10 116 -27 l35 -23 -35
7 c-19 4 -44 7 -55 7 -99 -4 -100 -4 -80 -12 11 -5 31 -9 44 -9 20 -1 21 -3
11 -16 -14 -17 -80 -21 -80 -4 0 7 -21 8 -66 4 -60 -7 -65 -6 -62 11 3 15 -5
18 -52 21 -40 2 -51 0 -40 -7 11 -8 -4 -9 -50 -4 -36 4 -68 11 -71 17 -5 7
-67 17 -136 20 -7 0 -13 4 -13 9 0 5 -19 7 -42 6 -38 -3 -43 -1 -44 20 -1 19
4 22 37 22 21 0 41 4 44 10 6 9 55 5 85 -8z m630 -52 c8 -5 11 -12 7 -16 -3
-4 -13 -2 -20 4 -8 7 -17 9 -20 5 -4 -3 -7 -1 -7 5 0 14 19 15 40 2z m70 -10
c0 -13 -20 -13 -40 0 -12 8 -9 10 13 10 15 0 27 -4 27 -10z m-169 -63 c-13
-13 -26 -3 -16 12 3 6 11 8 17 5 6 -4 6 -10 -1 -17z m-86 -57 c3 -5 -1 -10 -9
-10 -9 0 -16 5 -16 10 0 6 4 10 9 10 6 0 13 -4 16 -10z m-495 -40 c0 -5 -4
-10 -10 -10 -5 0 -10 5 -10 10 0 6 5 10 10 10 6 0 10 -4 10 -10z"/>
<path d="M1215 290 c3 -5 11 -10 16 -10 6 0 7 5 4 10 -3 6 -11 10 -16 10 -6 0
-7 -4 -4 -10z"/>
<path d="M1240 490 c0 -5 5 -10 11 -10 5 0 7 5 4 10 -3 6 -8 10 -11 10 -2 0
-4 -4 -4 -10z"/>
<path d="M1223 463 c9 -2 17 -8 17 -13 0 -5 -6 -7 -14 -4 -18 7 -15 -21 4 -39
10 -10 12 -9 7 6 -8 23 -3 22 28 -7 23 -22 101 -43 113 -31 3 3 -6 5 -19 6
l-24 1 25 9 c19 7 16 7 -15 3 -28 -3 -36 -2 -26 5 15 10 3 17 -52 35 -10 3
-16 10 -13 15 6 9 -17 22 -37 20 -7 -1 -4 -3 6 -6z"/>
<path d="M1148 453 c7 -3 16 -2 19 1 4 3 -2 6 -13 5 -11 0 -14 -3 -6 -6z"/>
<path d="M1508 453 c7 -3 16 -2 19 1 4 3 -2 6 -13 5 -11 0 -14 -3 -6 -6z"/>
<path d="M192 430 c0 -14 2 -19 5 -12 2 6 2 18 0 25 -3 6 -5 1 -5 -13z"/>
<path d="M1430 410 c0 -5 4 -10 9 -10 6 0 13 5 16 10 3 6 -1 10 -9 10 -9 0
-16 -4 -16 -10z"/>
<path d="M100 400 c0 -5 5 -10 10 -10 6 0 10 5 10 10 0 6 -4 10 -10 10 -5 0
-10 -4 -10 -10z"/>
<path d="M135 400 c3 -5 12 -10 20 -10 8 0 17 5 20 10 4 6 -5 10 -20 10 -15 0
-24 -4 -20 -10z"/>
<path d="M210 380 c-9 -6 -10 -10 -3 -10 6 0 13 -12 15 -27 l3 -28 6 27 c8 34
-2 50 -21 38z"/>
<path d="M705 380 c3 -5 13 -10 21 -10 8 0 14 5 14 10 0 6 -9 10 -21 10 -11 0
-17 -4 -14 -10z"/>
<path d="M755 380 c-3 -5 1 -10 10 -10 9 0 13 5 10 10 -3 6 -8 10 -10 10 -2 0
-7 -4 -10 -10z"/>
<path d="M1495 380 c-4 -6 7 -10 27 -9 27 0 30 2 13 9 -27 12 -33 12 -40 0z"/>
<path d="M1728 353 c7 -3 16 -2 19 1 4 3 -2 6 -13 5 -11 0 -14 -3 -6 -6z"/>
<path d="M1973 313 c9 -2 15 -9 12 -14 -4 -5 0 -9 8 -9 7 0 14 7 14 15 0 10
-9 15 -26 14 -17 -1 -20 -3 -8 -6z"/>
<path d="M315 300 c-3 -5 -1 -10 4 -10 6 0 11 5 11 10 0 6 -2 10 -4 10 -3 0
-8 -4 -11 -10z"/>
<path d="M1310 99 c0 -14 38 -15 55 -2 18 12 16 13 -18 11 -20 -2 -37 -6 -37
-9z"/>
<path d="M1255 10 c3 -5 10 -10 16 -10 5 0 9 5 9 10 0 6 -7 10 -16 10 -8 0
-12 -4 -9 -10z"/>
</g>
</svg>
