<?xml version="1.0" standalone="no"?>
<!DOCTYPE svg PUBLIC "-//W3C//DTD SVG 20010904//EN"
 "http://www.w3.org/TR/2001/REC-SVG-20010904/DTD/svg10.dtd">
<svg version="1.0" xmlns="http://www.w3.org/2000/svg"
 width="1117.000000pt" height="597.000000pt" viewBox="0 0 1117.000000 597.000000"
 preserveAspectRatio="xMidYMid meet">

<g transform="translate(0.000000,597.000000) scale(0.100000,-0.100000)"
fill="#000000" stroke="none">
<path d="M2950 5543 c1 -34 26 -117 37 -120 11 -4 33 54 33 85 0 6 5 12 10 12
6 0 10 -6 10 -12 0 -30 22 -88 33 -88 7 0 19 31 28 70 12 53 13 70 3 70 -6 0
-15 -20 -19 -45 -8 -54 -21 -51 -30 6 -9 55 -37 50 -49 -9 -5 -23 -12 -42 -16
-42 -4 0 -11 20 -14 45 -7 43 -26 64 -26 28z"/>
<path d="M3140 5490 c0 -40 4 -70 10 -70 6 0 10 20 10 45 0 38 3 45 20 45 17
0 20 -7 20 -45 0 -25 5 -45 10 -45 6 0 10 20 10 44 0 46 -19 72 -45 62 -10 -4
-15 1 -15 14 0 11 -4 20 -10 20 -6 0 -10 -30 -10 -70z"/>
<path d="M3470 5550 c0 -5 5 -10 10 -10 6 0 10 5 10 10 0 6 -4 10 -10 10 -5 0
-10 -4 -10 -10z"/>
<path d="M3740 5490 c0 -76 17 -97 22 -28 2 31 8 44 21 46 14 3 17 -4 17 -42
0 -26 5 -46 11 -46 6 0 9 21 7 53 -3 50 -4 52 -30 50 -22 -1 -28 3 -28 18 0
10 -4 19 -10 19 -6 0 -10 -30 -10 -70z"/>
<path d="M4200 5550 c0 -5 5 -10 10 -10 6 0 10 5 10 10 0 6 -4 10 -10 10 -5 0
-10 -4 -10 -10z"/>
<path d="M4920 5539 c0 -16 -4 -19 -20 -14 -29 9 -50 -12 -50 -50 0 -39 14
-52 58 -52 l32 0 0 69 c0 39 -4 68 -10 68 -5 0 -10 -9 -10 -21z m-5 -64 c0
-23 -4 -30 -20 -30 -21 0 -31 25 -21 51 11 28 41 12 41 -21z"/>
<path d="M5030 5541 c0 -14 -6 -17 -25 -14 -32 7 -53 -34 -39 -75 8 -22 16
-27 47 -29 l37 -1 0 69 c0 39 -4 69 -10 69 -5 0 -10 -8 -10 -19z m-5 -66 c0
-23 -4 -30 -20 -30 -21 0 -31 25 -21 51 11 28 41 12 41 -21z"/>
<path d="M5080 5550 c0 -5 5 -10 10 -10 6 0 10 5 10 10 0 6 -4 10 -10 10 -5 0
-10 -4 -10 -10z"/>
<path d="M5300 5550 c0 -5 5 -10 10 -10 6 0 10 5 10 10 0 6 -4 10 -10 10 -5 0
-10 -4 -10 -10z"/>
<path d="M5830 5492 l0 -69 30 -1 c38 -1 64 34 54 72 -6 26 -35 43 -54 31 -5
-3 -10 3 -10 14 0 12 -4 21 -10 21 -6 0 -10 -29 -10 -68z m65 -1 c8 -26 -5
-53 -24 -49 -10 2 -17 15 -19 36 -3 26 0 32 17 32 11 0 22 -8 26 -19z"/>
<path d="M6592 5543 c-11 -22 -3 -123 9 -123 5 0 9 20 9 44 0 26 5 46 13 49 9
4 8 8 -3 16 -10 7 -11 11 -2 11 6 0 12 5 12 10 0 17 -29 11 -38 -7z"/>
<path d="M7060 5539 c0 -16 -4 -19 -20 -14 -29 9 -50 -12 -50 -50 0 -39 14
-52 58 -52 l32 0 0 69 c0 39 -4 68 -10 68 -5 0 -10 -9 -10 -21z m-5 -64 c0
-23 -4 -30 -20 -30 -21 0 -31 25 -21 51 11 28 41 12 41 -21z"/>
<path d="M7160 5550 c0 -5 5 -10 10 -10 6 0 10 5 10 10 0 6 -4 10 -10 10 -5 0
-10 -4 -10 -10z"/>
<path d="M7550 5492 l0 -69 33 0 c43 0 57 13 57 52 0 38 -21 59 -50 50 -16 -5
-20 -2 -20 14 0 12 -4 21 -10 21 -6 0 -10 -29 -10 -68z m65 -17 c0 -23 -4 -30
-20 -30 -21 0 -31 25 -21 51 11 28 41 12 41 -21z"/>
<path d="M8100 5545 c-18 -21 -6 -29 19 -13 30 19 51 -4 28 -30 -27 -29 -20
-44 8 -18 14 13 25 30 25 38 0 36 -56 52 -80 23z"/>
<path d="M3352 5537 c-7 -8 -7 -28 -2 -57 5 -25 9 -48 10 -52 0 -5 10 -8 22
-8 20 0 20 1 5 18 -20 22 -22 69 -5 74 9 3 8 9 -4 21 -12 13 -18 14 -26 4z"/>
<path d="M3678 5538 c-3 -7 -2 -35 1 -63 4 -36 11 -51 24 -53 9 -2 17 1 17 7
0 6 -4 11 -10 11 -15 0 -12 68 2 72 9 3 8 9 -4 21 -20 20 -24 21 -30 5z"/>
<path d="M5238 5538 c-3 -7 -2 -35 1 -63 4 -36 11 -51 24 -53 9 -2 17 1 17 7
0 6 -4 11 -10 11 -15 0 -12 68 2 72 9 3 8 9 -4 21 -20 20 -24 21 -30 5z"/>
<path d="M6048 5538 c-3 -7 -2 -35 1 -63 4 -36 11 -51 24 -53 9 -2 17 1 17 7
0 6 -4 11 -10 11 -15 0 -12 68 2 72 9 3 8 9 -4 21 -20 20 -24 21 -30 5z"/>
<path d="M7378 5538 c-3 -7 -2 -35 1 -63 4 -36 11 -51 24 -53 9 -2 17 1 17 7
0 6 -4 11 -10 11 -15 0 -12 68 2 72 9 3 8 9 -4 21 -20 20 -24 21 -30 5z"/>
<path d="M3257 5524 c-14 -15 -6 -21 19 -16 19 3 25 1 20 -7 -4 -6 -13 -11
-20 -11 -21 0 -38 -27 -31 -49 5 -17 14 -20 41 -18 l35 2 -3 50 c-3 45 -5 50
-28 53 -14 2 -29 0 -33 -4z m41 -61 c-4 -22 -38 -30 -38 -10 0 14 13 24 33 26
5 1 7 -7 5 -16z"/>
<path d="M3470 5475 c0 -30 5 -55 10 -55 6 0 10 25 10 55 0 30 -4 55 -10 55
-5 0 -10 -25 -10 -55z"/>
<path d="M3522 5518 c-20 -20 -13 -39 18 -49 41 -15 39 -33 -2 -25 -30 6 -32
5 -16 -10 24 -24 68 -11 68 20 0 18 -8 27 -30 35 -39 13 -39 25 1 17 27 -5 30
-4 19 9 -15 18 -42 19 -58 3z"/>
<path d="M3853 5504 c-15 -24 -15 -29 -2 -53 18 -31 50 -38 70 -15 12 15 11
16 -17 10 -24 -5 -33 -3 -37 8 -5 13 1 16 28 16 39 0 46 17 19 44 -22 23 -41
20 -61 -10z m52 -4 c4 -6 -5 -10 -20 -10 -15 0 -24 4 -20 10 3 6 12 10 20 10
8 0 17 -4 20 -10z"/>
<path d="M4010 5455 c0 -43 4 -75 10 -75 6 0 10 11 10 24 0 18 5 23 18 20 28
-7 46 12 46 50 0 43 -5 49 -49 52 l-35 3 0 -74z m65 36 c8 -26 -5 -53 -24 -49
-29 6 -27 68 3 68 8 0 17 -8 21 -19z"/>
<path d="M4120 5473 c0 -29 5 -53 10 -53 6 0 10 18 10 41 0 32 4 42 20 46 30
8 24 22 -10 21 -29 -1 -30 -2 -30 -55z"/>
<path d="M4200 5475 c0 -30 5 -55 10 -55 6 0 10 25 10 55 0 30 -4 55 -10 55
-5 0 -10 -25 -10 -55z"/>
<path d="M4240 5473 c0 -29 5 -53 10 -53 6 0 10 13 10 29 0 39 9 61 26 61 10
0 14 -13 14 -45 0 -25 5 -45 10 -45 6 0 10 13 10 29 0 39 9 61 26 61 10 0 14
-13 14 -45 0 -25 5 -45 11 -45 6 0 9 21 7 53 l-3 52 -67 1 -68 0 0 -53z"/>
<path d="M4423 5523 c-24 -9 -13 -23 12 -17 33 8 32 -4 -1 -16 -20 -8 -25 -16
-22 -38 3 -24 7 -27 41 -28 36 -1 37 0 37 33 0 60 -24 84 -67 66z m47 -47 c0
-16 -14 -36 -26 -36 -14 0 -19 22 -7 33 7 8 33 10 33 3z"/>
<path d="M4520 5473 c0 -29 5 -53 10 -53 6 0 10 20 10 44 0 35 4 45 19 49 16
4 23 -4 35 -34 18 -45 21 -79 6 -79 -5 0 -10 -4 -10 -10 0 -5 6 -10 14 -10 8
0 23 23 34 53 31 83 34 97 23 97 -6 0 -14 -15 -19 -32 -10 -40 -24 -40 -36 1
-8 28 -12 31 -47 29 l-39 -1 0 -54z"/>
<path d="M4750 5515 c-11 -13 -8 -14 21 -10 l34 5 -33 -15 c-27 -13 -33 -20
-30 -43 3 -24 7 -27 41 -28 l37 -1 0 47 c0 34 -4 50 -16 54 -25 10 -41 7 -54
-9z m48 -52 c-4 -22 -38 -30 -38 -10 0 14 13 24 33 26 5 1 7 -7 5 -16z"/>
<path d="M5080 5475 c0 -30 5 -55 10 -55 6 0 10 25 10 55 0 30 -4 55 -10 55
-5 0 -10 -25 -10 -55z"/>
<path d="M5142 5518 c-7 -7 -12 -26 -12 -43 0 -34 15 -55 41 -55 21 0 44 26
30 34 -5 3 -11 1 -13 -6 -8 -24 -38 1 -38 32 0 30 21 42 35 20 4 -6 11 -8 16
-4 14 8 -9 34 -30 34 -9 0 -22 -5 -29 -12z"/>
<path d="M5300 5475 c0 -30 5 -55 10 -55 6 0 10 25 10 55 0 30 -4 55 -10 55
-5 0 -10 -25 -10 -55z"/>
<path d="M5340 5523 c0 -22 35 -103 44 -100 5 2 18 27 27 56 12 34 14 51 7 49
-6 -2 -17 -20 -24 -39 l-12 -34 -11 28 c-6 16 -11 33 -11 38 0 5 -4 9 -10 9
-5 0 -10 -3 -10 -7z"/>
<path d="M5462 5518 c-7 -7 -12 -26 -12 -43 0 -50 42 -74 70 -40 11 13 8 14
-19 9 -24 -5 -31 -3 -31 10 0 11 9 16 30 16 32 0 36 9 20 41 -12 21 -40 25
-58 7z m48 -18 c0 -5 -9 -10 -20 -10 -11 0 -20 5 -20 10 0 6 9 10 20 10 11 0
20 -4 20 -10z"/>
<path d="M5612 5518 c-20 -20 -13 -39 18 -49 41 -15 39 -33 -2 -25 -30 6 -32
5 -16 -10 24 -24 68 -11 68 20 0 18 -8 27 -30 35 -39 13 -39 25 1 17 27 -5 30
-4 19 9 -15 18 -42 19 -58 3z"/>
<path d="M5710 5486 c0 -50 12 -63 58 -63 l32 0 0 54 c0 63 -15 71 -23 12 -6
-47 -11 -54 -32 -46 -10 4 -15 20 -15 47 0 22 -4 40 -10 40 -5 0 -10 -20 -10
-44z"/>
<path d="M5947 5524 c-17 -18 -6 -46 23 -57 39 -15 39 -31 -1 -23 -22 4 -29 2
-27 -7 6 -17 46 -21 64 -7 23 20 16 41 -16 53 -37 14 -40 32 -4 23 19 -5 25
-3 22 6 -5 14 -50 23 -61 12z"/>
<path d="M6117 5524 c-14 -15 -6 -21 19 -16 19 3 25 1 20 -7 -4 -6 -13 -11
-20 -11 -21 0 -38 -27 -31 -49 5 -17 14 -20 41 -18 l35 2 -3 50 c-3 45 -5 50
-28 53 -14 2 -29 0 -33 -4z m41 -61 c-4 -22 -38 -30 -38 -10 0 14 13 24 33 26
5 1 7 -7 5 -16z"/>
<path d="M6210 5474 c0 -64 17 -73 22 -11 2 34 7 42 23 42 16 0 21 -8 23 -42
4 -53 22 -57 22 -5 0 51 -13 67 -55 68 l-35 1 0 -53z"/>
<path d="M6336 5514 c-34 -33 -7 -99 37 -92 33 5 33 27 0 25 -24 -2 -28 2 -31
26 -4 30 24 50 38 27 5 -8 9 -9 14 -1 19 30 -31 43 -58 15z"/>
<path d="M6433 5504 c-15 -24 -15 -29 -2 -53 18 -31 50 -38 70 -15 12 15 11
16 -17 10 -24 -5 -33 -3 -37 8 -5 13 1 16 28 16 39 0 46 17 19 44 -22 23 -41
20 -61 -10z m52 -4 c4 -6 -5 -10 -20 -10 -15 0 -24 4 -20 10 3 6 12 10 20 10
8 0 17 -4 20 -10z"/>
<path d="M6653 5504 c-15 -24 -15 -29 -2 -53 10 -17 23 -26 39 -26 16 0 29 9
39 26 13 24 13 29 -2 53 -10 14 -26 26 -37 26 -11 0 -27 -12 -37 -26z m62 -13
c8 -26 -4 -51 -25 -51 -10 0 -21 7 -24 16 -10 25 3 54 24 54 10 0 21 -8 25
-19z"/>
<path d="M6760 5486 c0 -50 12 -63 58 -63 l32 0 0 54 c0 63 -15 71 -23 12 -6
-47 -11 -54 -32 -46 -10 4 -15 20 -15 47 0 22 -4 40 -10 40 -5 0 -10 -20 -10
-44z"/>
<path d="M6880 5474 c0 -64 17 -73 22 -12 2 31 8 44 21 46 14 3 17 -4 17 -42
0 -26 5 -46 11 -46 6 0 9 21 7 53 l-3 52 -37 1 -38 1 0 -53z"/>
<path d="M7160 5475 c0 -30 5 -55 10 -55 6 0 10 25 10 55 0 30 -4 55 -10 55
-5 0 -10 -25 -10 -55z"/>
<path d="M7210 5474 c0 -64 17 -73 22 -12 2 31 8 44 21 46 14 3 17 -4 17 -42
0 -26 5 -46 11 -46 6 0 9 21 7 53 l-3 52 -37 1 -38 1 0 -53z"/>
<path d="M7443 5504 c-15 -24 -15 -29 -2 -53 10 -17 23 -26 39 -26 16 0 29 9
39 26 13 24 13 29 -2 53 -10 14 -26 26 -37 26 -11 0 -27 -12 -37 -26z m62 -13
c8 -26 -4 -51 -25 -51 -10 0 -21 7 -24 16 -10 25 3 54 24 54 10 0 21 -8 25
-19z"/>
<path d="M7677 5524 c-14 -15 -6 -21 19 -16 19 3 25 1 20 -7 -4 -6 -13 -11
-20 -11 -21 0 -38 -27 -31 -49 5 -17 14 -20 41 -18 l35 2 -3 50 c-3 45 -5 50
-28 53 -14 2 -29 0 -33 -4z m41 -61 c-4 -22 -38 -30 -38 -10 0 14 13 24 33 26
5 1 7 -7 5 -16z"/>
<path d="M7782 5518 c-7 -7 -12 -26 -12 -43 0 -34 15 -55 41 -55 21 0 44 26
30 34 -5 3 -11 1 -13 -6 -8 -24 -38 1 -38 32 0 30 21 42 35 20 4 -6 11 -8 16
-4 14 8 -9 34 -30 34 -9 0 -22 -5 -29 -12z"/>
<path d="M7886 5514 c-34 -33 -7 -99 37 -92 33 5 33 27 0 25 -24 -2 -28 2 -31
26 -4 30 24 50 38 27 5 -8 9 -9 14 -1 19 30 -31 43 -58 15z"/>
<path d="M7992 5518 c-20 -20 -15 -76 7 -88 11 -5 24 -10 30 -10 18 0 41 31
41 55 0 44 -50 71 -78 43z m53 -43 c0 -23 -4 -30 -20 -30 -21 0 -31 25 -21 51
11 28 41 12 41 -21z"/>
<path d="M8131 5434 c0 -11 3 -14 6 -6 3 7 2 16 -1 19 -3 4 -6 -2 -5 -13z"/>
<path d="M3961 5256 c-33 -18 -50 -53 -51 -104 0 -53 20 -94 55 -110 18 -8
112 -12 316 -12 309 0 339 4 354 50 3 11 10 20 15 20 5 0 12 -9 15 -20 15 -46
43 -50 380 -50 337 0 365 4 380 50 8 26 22 26 30 0 15 -47 39 -50 430 -50 391
0 415 3 430 50 8 26 22 26 30 0 15 -47 39 -50 430 -50 397 0 409 1 433 55 15
33 15 97 0 130 -24 54 -36 55 -433 55 -391 0 -415 -3 -430 -50 -3 -11 -10 -20
-15 -20 -5 0 -12 9 -15 20 -15 47 -39 50 -430 50 -391 0 -415 -3 -430 -50 -3
-11 -10 -20 -15 -20 -5 0 -12 9 -15 20 -15 46 -43 50 -380 50 -337 0 -365 -4
-380 -50 -3 -11 -10 -20 -15 -20 -5 0 -12 9 -15 20 -15 46 -44 50 -357 50
-224 -1 -299 -4 -317 -14z m644 -31 c20 -19 25 -34 25 -75 0 -41 -5 -56 -25
-75 l-24 -25 -301 0 -301 0 -24 25 c-20 19 -25 34 -25 75 0 41 5 56 25 75 l24
25 301 0 301 0 24 -25z m790 0 c20 -19 25 -34 25 -75 0 -41 -5 -56 -25 -75
l-24 -25 -326 0 -326 0 -24 25 c-20 19 -25 34 -25 75 0 41 5 56 25 75 l24 25
326 0 326 0 24 -25z m890 0 c20 -19 25 -34 25 -75 0 -41 -5 -56 -25 -75 l-24
-25 -376 0 -376 0 -24 25 c-20 19 -25 34 -25 75 0 41 5 56 25 75 l24 25 376 0
376 0 24 -25z m890 0 c20 -19 25 -34 25 -75 0 -41 -5 -56 -25 -75 l-24 -25
-376 0 -376 0 -24 25 c-20 19 -25 34 -25 75 0 41 5 56 25 75 l24 25 376 0 376
0 24 -25z"/>
<path d="M4011 5160 l2 -65 7 55 c4 30 3 59 -1 65 -5 5 -8 -19 -8 -55z"/>
<path d="M4081 5175 l-1 -50 -21 33 c-12 18 -24 30 -27 28 -3 -3 8 -25 24 -48
l29 -43 3 33 c2 17 1 47 -1 65 -3 23 -4 19 -6 -18z"/>
<path d="M4330 5208 c0 -9 -6 -19 -12 -21 -10 -4 -10 -6 0 -6 7 -1 12 -16 12
-41 0 -22 3 -40 8 -40 8 0 6 109 -2 118 -3 3 -6 -2 -6 -10z"/>
<path d="M4123 5145 c0 -27 2 -38 4 -22 2 15 2 37 0 50 -2 12 -4 0 -4 -28z"/>
<path d="M4160 5176 c-26 -32 13 -97 41 -69 9 9 7 11 -8 7 -23 -6 -37 18 -27
48 4 13 12 18 25 15 10 -3 17 -1 13 4 -8 14 -30 11 -44 -5z"/>
<path d="M4242 5178 c-7 -7 -12 -21 -12 -33 0 -47 54 -62 70 -19 18 47 -25 85
-58 52z m43 -33 c0 -33 -28 -47 -39 -19 -10 25 3 56 22 52 11 -2 17 -13 17
-33z"/>
<path d="M4373 5145 c0 -27 2 -38 4 -22 2 15 2 37 0 50 -2 12 -4 0 -4 -28z"/>
<path d="M4401 5140 l1 -45 8 38 c8 44 14 51 35 44 9 -4 16 -20 16 -44 1 -25
3 -30 6 -14 3 12 2 34 -1 47 -5 20 -12 24 -36 22 -29 -2 -30 -4 -29 -48z"/>
<path d="M4500 5176 c-15 -20 -9 -56 12 -70 14 -8 21 -6 35 9 16 17 17 18 1 6
-19 -14 -48 -9 -48 9 0 5 14 10 30 10 31 0 39 17 18 38 -16 16 -33 15 -48 -2z
m48 -13 c2 -8 -6 -13 -22 -13 -25 0 -33 10 -19 24 10 10 36 3 41 -11z"/>
<path d="M4754 5194 c-31 -47 6 -104 59 -90 20 5 27 13 27 31 0 20 -5 25 -22
24 -17 -1 -19 -2 -5 -6 9 -2 17 -11 17 -18 0 -37 -66 -29 -76 9 -13 52 50 93
75 49 6 -10 11 -13 11 -7 1 39 -62 45 -86 8z"/>
<path d="M4873 5160 c0 -36 2 -50 4 -32 2 17 2 47 0 65 -2 17 -4 3 -4 -33z"/>
<path d="M4909 5173 c-13 -16 -12 -17 3 -4 10 7 26 10 35 6 15 -5 12 -9 -15
-21 -45 -18 -41 -49 6 -50 33 -1 33 0 30 40 -2 33 -7 42 -24 44 -11 2 -27 -5
-35 -15z m47 -39 c-3 -9 -6 -18 -6 -20 0 -2 -9 -4 -20 -4 -25 0 -27 27 -2 33
31 8 34 7 28 -9z"/>
<path d="M4994 5150 c1 -36 5 -45 21 -48 18 -4 19 -3 3 10 -9 7 -19 29 -21 48
-3 26 -4 24 -3 -10z"/>
<path d="M5040 5151 c0 -22 5 -43 10 -46 6 -4 10 12 10 39 0 25 -4 46 -10 46
-5 0 -10 -18 -10 -39z"/>
<path d="M5084 5176 c-3 -8 -4 -27 -2 -43 2 -20 9 -29 26 -31 12 -2 22 1 22 6
0 5 -8 9 -17 8 -14 -1 -18 7 -18 29 0 22 4 30 17 29 10 -1 15 2 12 7 -8 14
-34 11 -40 -5z"/>
<path d="M5163 5145 c0 -27 2 -38 4 -22 2 15 2 37 0 50 -2 12 -4 0 -4 -28z"/>
<path d="M5201 5141 l2 -46 6 40 c4 26 11 40 21 40 10 0 17 -14 21 -40 l7 -40
-2 45 c-1 42 -3 45 -28 46 -27 1 -28 -1 -27 -45z"/>
<path d="M5288 5165 c-8 -19 -9 -31 -1 -43 12 -20 55 -23 59 -4 1 7 0 8 -3 2
-7 -15 -40 -12 -47 5 -4 11 2 15 25 15 26 0 30 3 27 23 -5 34 -45 35 -60 2z
m50 -2 c2 -8 -6 -13 -22 -13 -19 0 -24 4 -19 15 6 18 34 16 41 -2z"/>
<path d="M5540 5160 l0 -60 43 2 42 1 -37 4 c-32 4 -38 8 -38 28 0 19 6 24 33
28 l32 4 -32 1 c-25 2 -33 7 -33 21 0 15 8 21 33 24 31 4 31 4 -5 5 l-38 2 0
-60z"/>
<path d="M5732 5160 c1 -53 2 -58 7 -25 8 56 38 61 44 8 l4 -38 -1 40 c-1 33
-4 40 -21 40 -11 0 -23 9 -27 20 -3 11 -6 -9 -6 -45z"/>
<path d="M5960 5201 c0 -14 -5 -18 -19 -14 -27 7 -47 -31 -32 -63 7 -17 18
-23 36 -22 24 2 25 6 25 60 0 32 -2 58 -5 58 -3 0 -5 -9 -5 -19z m-5 -56 c0
-33 -28 -47 -39 -19 -10 25 3 56 22 52 11 -2 17 -13 17 -33z"/>
<path d="M5641 5125 c1 -33 4 -50 6 -38 3 14 9 20 19 16 20 -7 44 15 44 42 0
28 -19 45 -48 42 -20 -1 -22 -6 -21 -62z m54 20 c0 -23 -4 -30 -20 -30 -21 0
-31 25 -21 51 11 28 41 12 41 -21z"/>
<path d="M5819 5169 c-16 -31 4 -71 33 -67 12 2 23 10 25 18 4 12 3 13 -5 1
-6 -8 -17 -11 -26 -8 -27 10 -18 27 14 27 33 0 35 3 20 31 -14 25 -46 24 -61
-2z m55 -4 c4 -11 -1 -15 -19 -15 -24 0 -32 10 -18 23 11 12 31 8 37 -8z"/>
<path d="M6002 5143 l1 -48 4 42 c3 29 9 43 21 46 12 3 11 5 -5 6 -21 1 -23
-3 -21 -46z"/>
<path d="M6053 5145 c0 -27 2 -38 4 -22 2 15 2 37 0 50 -2 12 -4 0 -4 -28z"/>
<path d="M6091 5141 l2 -46 6 40 c4 26 11 40 21 40 10 0 17 -14 21 -40 l7 -40
-2 45 c-1 42 -3 45 -28 46 -27 1 -28 -1 -27 -45z"/>
<path d="M6180 5176 c-15 -20 -9 -56 12 -70 14 -8 21 -6 35 9 16 17 17 18 1 6
-19 -14 -48 -9 -48 9 0 5 14 10 30 10 31 0 39 17 18 38 -16 16 -33 15 -48 -2z
m48 -13 c2 -8 -6 -13 -22 -13 -25 0 -33 10 -19 24 10 10 36 3 41 -11z"/>
<path d="M6436 5198 c-21 -29 -20 -51 2 -78 14 -18 25 -21 44 -17 14 4 29 14
32 24 6 16 6 16 -12 0 -26 -24 -51 -21 -64 8 -22 49 25 98 60 63 8 -8 12 -8
12 -1 0 12 -23 23 -45 23 -8 0 -21 -10 -29 -22z"/>
<path d="M6673 5160 c-1 -55 0 -59 7 -27 8 44 14 51 35 44 9 -4 16 -20 16 -44
1 -25 3 -30 6 -14 3 12 2 34 -2 48 -5 20 -11 24 -30 21 -18 -4 -25 0 -28 16
-2 12 -4 -8 -4 -44z"/>
<path d="M6628 5198 c-8 -22 7 -91 20 -94 7 -1 8 0 2 3 -12 6 -13 70 -1 75 5
2 3 8 -4 15 -10 9 -15 9 -17 1z"/>
<path d="M6545 5180 c-4 -6 -4 -14 -1 -17 3 -4 6 -1 6 5 0 7 9 12 20 12 27 0
25 -17 -2 -26 -49 -15 -44 -54 6 -52 31 1 32 2 26 42 -4 32 -10 42 -27 44 -11
2 -24 -2 -28 -8z m45 -45 c0 -19 -24 -30 -41 -19 -9 5 -7 11 6 21 24 17 35 17
35 -2z"/>
<path d="M6763 5145 c0 -27 2 -38 4 -22 2 15 2 37 0 50 -2 12 -4 0 -4 -28z"/>
<path d="M6801 5141 l2 -46 6 40 c4 26 11 40 21 40 10 0 17 -14 21 -40 l7 -40
-2 45 c-1 42 -3 45 -28 46 -27 1 -28 -1 -27 -45z"/>
<path d="M6892 5178 c-7 -7 -12 -21 -12 -33 0 -47 54 -62 70 -19 18 47 -25 85
-58 52z m43 -33 c0 -33 -28 -47 -39 -19 -10 25 3 56 22 52 11 -2 17 -13 17
-33z"/>
<path d="M6981 5141 l2 -46 6 40 c4 26 11 40 21 40 10 0 17 -14 21 -40 l7 -40
-2 45 c-1 42 -3 45 -28 46 -27 1 -28 -1 -27 -45z"/>
<path d="M7070 5176 c-15 -20 -9 -56 12 -70 14 -8 21 -6 35 9 16 17 17 18 1 6
-19 -14 -48 -9 -48 9 0 5 14 10 30 10 31 0 39 17 18 38 -16 16 -33 15 -48 -2z
m48 -13 c2 -8 -6 -13 -22 -13 -25 0 -33 10 -19 24 10 10 36 3 41 -11z"/>
<path d="M2220 4435 c0 -8 9 -15 20 -15 18 0 20 -7 20 -55 0 -30 5 -55 10 -55
6 0 10 25 10 55 0 48 2 55 20 55 11 0 20 7 20 15 0 11 -12 15 -50 15 -38 0
-50 -4 -50 -15z"/>
<path d="M2330 4380 c0 -76 17 -97 22 -28 2 31 8 44 21 46 14 3 17 -4 17 -42
0 -26 5 -46 11 -46 6 0 9 21 7 53 -3 50 -4 52 -30 50 -22 -1 -28 3 -28 18 0
10 -4 19 -10 19 -6 0 -10 -30 -10 -70z"/>
<path d="M2700 4380 c0 -40 4 -70 10 -70 6 0 10 30 10 70 0 40 -4 70 -10 70
-6 0 -10 -30 -10 -70z"/>
<path d="M3360 4440 c0 -5 5 -10 10 -10 6 0 10 5 10 10 0 6 -4 10 -10 10 -5 0
-10 -4 -10 -10z"/>
<path d="M3740 4380 c0 -40 4 -70 10 -70 6 0 10 30 10 70 0 40 -4 70 -10 70
-6 0 -10 -30 -10 -70z"/>
<path d="M4070 4429 c0 -16 -4 -19 -20 -14 -29 9 -50 -12 -50 -50 0 -39 14
-52 58 -52 l32 0 0 69 c0 39 -4 68 -10 68 -5 0 -10 -9 -10 -21z m-5 -64 c0
-23 -4 -30 -20 -30 -21 0 -31 25 -21 51 11 28 41 12 41 -21z"/>
<path d="M4170 4440 c0 -5 5 -10 10 -10 6 0 10 5 10 10 0 6 -4 10 -10 10 -5 0
-10 -4 -10 -10z"/>
<path d="M4660 4380 c0 -40 4 -70 10 -70 6 0 10 11 10 25 0 14 4 25 8 25 5 0
14 -11 20 -25 6 -14 16 -25 22 -25 6 0 4 14 -6 32 -13 25 -14 36 -5 51 18 29
2 35 -20 8 l-19 -23 0 36 c0 20 -4 36 -10 36 -6 0 -10 -30 -10 -70z"/>
<path d="M4760 4440 c0 -5 5 -10 10 -10 6 0 10 5 10 10 0 6 -4 10 -10 10 -5 0
-10 -4 -10 -10z"/>
<path d="M5100 4380 c0 -40 4 -70 10 -70 6 0 10 20 10 45 0 38 3 45 20 45 17
0 20 -7 20 -45 0 -25 5 -45 10 -45 6 0 10 20 10 44 0 46 -19 72 -45 62 -10 -4
-15 1 -15 14 0 11 -4 20 -10 20 -6 0 -10 -30 -10 -70z"/>
<path d="M5760 4381 l0 -68 37 1 c31 1 39 6 47 28 7 19 6 35 -2 54 -10 21 -17
25 -37 20 -20 -5 -25 -3 -25 14 0 11 -4 20 -10 20 -6 0 -10 -30 -10 -69z m65
-16 c0 -23 -4 -30 -20 -30 -21 0 -31 25 -21 51 11 28 41 12 41 -21z"/>
<path d="M5880 4380 c0 -40 4 -70 10 -70 6 0 10 30 10 70 0 40 -4 70 -10 70
-6 0 -10 -30 -10 -70z"/>
<path d="M6220 4431 c0 -14 -6 -17 -25 -14 -32 7 -53 -34 -39 -75 8 -22 16
-27 47 -29 l37 -1 0 69 c0 39 -4 69 -10 69 -5 0 -10 -8 -10 -19z m-5 -66 c0
-23 -4 -30 -20 -30 -21 0 -31 25 -21 51 11 28 41 12 41 -21z"/>
<path d="M6560 4431 c0 -14 -5 -18 -19 -14 -13 3 -25 -4 -37 -22 -16 -25 -16
-30 -3 -54 11 -19 24 -26 47 -28 l32 -1 0 69 c0 39 -4 69 -10 69 -5 0 -10 -9
-10 -19z m0 -66 c0 -28 -4 -35 -19 -35 -10 0 -22 7 -25 16 -10 26 3 54 25 54
15 0 19 -7 19 -35z"/>
<path d="M6670 4440 c0 -5 5 -10 10 -10 6 0 10 5 10 10 0 6 -4 10 -10 10 -5 0
-10 -4 -10 -10z"/>
<path d="M7020 4380 c0 -76 17 -97 22 -28 2 31 8 44 21 46 14 3 17 -4 17 -42
0 -26 5 -46 11 -46 6 0 9 21 7 53 -3 50 -4 52 -30 50 -22 -1 -28 3 -28 18 0
10 -4 19 -10 19 -6 0 -10 -30 -10 -70z"/>
<path d="M7130 4440 c0 -5 5 -10 10 -10 6 0 10 5 10 10 0 6 -4 10 -10 10 -5 0
-10 -4 -10 -10z"/>
<path d="M7290 4380 c0 -76 17 -97 22 -28 2 31 8 44 21 46 14 3 17 -4 17 -42
0 -26 5 -46 11 -46 6 0 9 21 7 53 -3 50 -4 52 -30 50 -22 -1 -28 3 -28 18 0
10 -4 19 -10 19 -6 0 -10 -30 -10 -70z"/>
<path d="M7572 4433 c-11 -22 -3 -123 9 -123 5 0 9 20 9 44 0 26 5 47 13 50 9
5 9 7 -1 12 -10 5 -9 9 5 20 17 13 17 13 -4 14 -12 0 -26 -8 -31 -17z"/>
<path d="M7750 4380 c0 -40 4 -70 10 -70 6 0 10 20 10 45 0 38 3 45 20 45 17
0 20 -7 20 -45 0 -25 5 -45 10 -45 6 0 10 20 10 44 0 46 -19 72 -45 62 -10 -4
-15 1 -15 14 0 11 -4 20 -10 20 -6 0 -10 -30 -10 -70z"/>
<path d="M8022 4433 c-11 -22 -3 -123 9 -123 5 0 9 20 9 44 0 26 5 46 13 49 9
4 8 8 -3 16 -10 7 -11 11 -2 11 6 0 12 5 12 10 0 17 -29 11 -38 -7z"/>
<path d="M8190 4380 c0 -40 4 -70 10 -70 6 0 10 30 10 70 0 40 -4 70 -10 70
-6 0 -10 -30 -10 -70z"/>
<path d="M8250 4380 c0 -40 4 -70 10 -70 6 0 10 30 10 70 0 40 -4 70 -10 70
-6 0 -10 -30 -10 -70z"/>
<path d="M8560 4440 c0 -5 5 -10 10 -10 6 0 10 5 10 10 0 6 -4 10 -10 10 -5 0
-10 -4 -10 -10z"/>
<path d="M8845 4434 c-9 -9 -13 -19 -10 -22 3 -3 11 0 17 6 16 16 48 15 48 -2
0 -7 -7 -19 -15 -26 -15 -12 -21 -40 -9 -40 11 0 43 45 44 61 0 37 -46 51 -75
23z"/>
<path d="M3248 4428 c-3 -7 -2 -35 1 -63 4 -36 11 -51 24 -53 9 -2 17 1 17 7
0 6 -4 11 -10 11 -15 0 -12 68 2 72 9 3 8 9 -4 21 -20 20 -24 21 -30 5z"/>
<path d="M7682 4427 c-7 -8 -7 -28 -2 -57 5 -25 9 -48 10 -52 0 -5 10 -8 22
-8 20 0 20 1 5 18 -20 22 -22 69 -5 74 9 3 8 9 -4 21 -12 13 -18 14 -26 4z"/>
<path d="M2452 4408 c-7 -7 -12 -26 -12 -43 0 -50 42 -74 70 -40 11 13 8 14
-19 9 -24 -5 -31 -3 -31 10 0 11 9 16 30 16 32 0 36 9 20 41 -12 21 -40 25
-58 7z m48 -18 c0 -5 -9 -10 -20 -10 -11 0 -20 5 -20 10 0 6 9 10 20 10 11 0
20 -4 20 -10z"/>
<path d="M2603 4394 c-15 -24 -15 -29 -2 -53 18 -31 50 -38 70 -15 12 15 11
16 -17 10 -24 -5 -33 -3 -37 8 -5 13 1 16 28 16 39 0 46 17 19 44 -22 23 -41
20 -61 -10z m52 -4 c4 -6 -5 -10 -20 -10 -15 0 -24 4 -20 10 3 6 12 10 20 10
8 0 17 -4 20 -10z"/>
<path d="M2762 4408 c-7 -7 -12 -26 -12 -43 0 -50 42 -74 70 -41 10 13 7 15
-16 13 -15 -1 -29 4 -31 11 -3 8 6 12 26 12 23 0 31 5 31 18 0 22 -19 42 -40
42 -9 0 -21 -5 -28 -12z m48 -18 c0 -5 -9 -10 -20 -10 -11 0 -20 5 -20 10 0 6
9 10 20 10 11 0 20 -4 20 -10z"/>
<path d="M2860 4364 c0 -30 5 -54 10 -54 6 0 10 21 10 46 0 38 3 45 18 42 12
-2 18 -15 20 -46 4 -57 22 -54 22 4 0 38 3 45 18 42 12 -2 18 -15 20 -46 4
-52 22 -56 22 -4 0 58 -11 67 -80 68 l-60 1 0 -53z"/>
<path d="M3032 4408 c-7 -7 -12 -26 -12 -43 0 -50 42 -74 70 -41 10 13 7 15
-16 13 -15 -1 -29 4 -31 11 -3 8 6 12 26 12 23 0 31 5 31 18 0 22 -19 42 -40
42 -9 0 -21 -5 -28 -12z m48 -18 c0 -5 -9 -10 -20 -10 -11 0 -20 5 -20 10 0 6
9 10 20 10 11 0 20 -4 20 -10z"/>
<path d="M3130 4364 c0 -64 17 -73 22 -12 2 31 8 44 21 46 14 3 17 -4 17 -42
0 -26 5 -46 11 -46 6 0 9 21 7 53 l-3 52 -37 1 -38 1 0 -53z"/>
<path d="M3360 4365 c0 -30 5 -55 10 -55 6 0 10 25 10 55 0 30 -4 55 -10 55
-5 0 -10 -25 -10 -55z"/>
<path d="M3410 4364 c0 -64 17 -73 22 -12 2 31 8 44 21 46 14 3 17 -4 17 -42
0 -26 5 -46 11 -46 6 0 9 21 7 53 l-3 52 -37 1 -38 1 0 -53z"/>
<path d="M3520 4412 c0 -18 32 -102 40 -102 4 0 16 25 28 56 12 33 16 54 9 51
-7 -2 -16 -18 -21 -35 -11 -40 -22 -41 -31 -2 -6 28 -25 52 -25 32z"/>
<path d="M3633 4394 c-15 -24 -15 -29 -2 -53 10 -17 23 -26 39 -26 16 0 29 9
39 26 13 24 13 29 -2 53 -10 14 -26 26 -37 26 -11 0 -27 -12 -37 -26z m62 -13
c8 -26 -4 -51 -25 -51 -10 0 -21 7 -24 16 -10 25 3 54 24 54 10 0 21 -8 25
-19z"/>
<path d="M3790 4412 c0 -18 32 -102 40 -102 4 0 16 25 28 56 12 33 16 54 9 51
-7 -2 -16 -18 -21 -35 -11 -40 -22 -41 -31 -2 -6 28 -25 52 -25 32z"/>
<path d="M3906 4405 c-36 -36 -9 -103 37 -91 35 8 35 25 1 23 -15 -1 -29 3
-31 10 -3 7 9 13 31 15 34 3 35 4 23 28 -15 30 -39 36 -61 15z m49 -15 c4 -6
-5 -10 -20 -10 -15 0 -24 4 -20 10 3 6 12 10 20 10 8 0 17 -4 20 -10z"/>
<path d="M4170 4365 c0 -30 5 -55 10 -55 6 0 10 25 10 55 0 30 -4 55 -10 55
-5 0 -10 -25 -10 -55z"/>
<path d="M4220 4364 c0 -64 17 -73 22 -12 2 31 8 44 21 46 14 3 17 -4 17 -42
0 -26 5 -46 11 -46 6 0 9 21 7 53 l-3 52 -37 1 -38 1 0 -53z"/>
<path d="M4380 4363 c0 -29 5 -53 10 -53 6 0 10 13 10 29 0 39 9 61 26 61 10
0 14 -13 14 -45 0 -25 5 -45 10 -45 6 0 10 13 10 29 0 39 9 61 26 61 10 0 14
-13 14 -45 0 -25 5 -45 11 -45 6 0 9 21 7 53 l-3 52 -67 1 -68 0 0 -53z"/>
<path d="M4563 4413 c-24 -9 -13 -23 12 -17 33 8 32 -4 -1 -16 -20 -8 -25 -16
-22 -38 3 -24 7 -27 41 -28 36 -1 37 0 37 33 0 60 -24 84 -67 66z m47 -47 c0
-16 -14 -36 -26 -36 -14 0 -19 22 -7 33 7 8 33 10 33 3z"/>
<path d="M4760 4365 c0 -30 5 -55 10 -55 6 0 10 25 10 55 0 30 -4 55 -10 55
-5 0 -10 -25 -10 -55z"/>
<path d="M4820 4363 c0 -29 5 -53 10 -53 6 0 10 21 10 46 0 38 3 45 18 42 12
-2 18 -15 20 -46 4 -55 22 -55 22 1 0 55 -9 66 -48 65 -32 -1 -32 -1 -32 -55z"/>
<path d="M4933 4393 c-15 -23 -15 -28 -2 -52 10 -17 23 -25 37 -24 15 2 22 -3
22 -13 0 -13 -7 -15 -30 -10 -17 3 -30 1 -30 -5 0 -15 27 -22 55 -15 24 6 25
10 25 75 l0 68 -30 1 c-22 0 -35 -6 -47 -25z m55 -25 c-3 -36 -31 -50 -42 -22
-10 26 3 54 25 54 17 0 20 -6 17 -32z"/>
<path d="M5212 4368 l3 -53 38 -1 37 -1 0 53 c0 64 -17 73 -22 12 -2 -31 -8
-44 -20 -46 -15 -3 -18 4 -18 42 0 26 -5 46 -11 46 -6 0 -9 -21 -7 -52z"/>
<path d="M5320 4363 c0 -63 18 -72 22 -11 2 31 8 44 21 46 14 3 17 -4 17 -42
0 -58 18 -61 22 -3 2 29 8 42 18 42 10 0 16 -13 18 -42 2 -24 7 -43 13 -43 14
0 11 88 -3 97 -7 4 -39 8 -70 9 l-58 0 0 -53z"/>
<path d="M5497 4414 c-15 -15 -6 -24 18 -18 33 8 32 -4 0 -16 -53 -20 -39 -69
18 -67 l32 1 -5 50 c-4 46 -8 51 -30 54 -14 2 -29 0 -33 -4z m43 -64 c0 -19
-20 -27 -33 -13 -8 7 11 33 24 33 5 0 9 -9 9 -20z"/>
<path d="M5590 4364 c0 -64 17 -73 22 -11 2 34 7 42 23 42 16 0 21 -8 23 -42
4 -53 22 -57 22 -5 0 51 -13 67 -55 68 l-35 1 0 -53z"/>
<path d="M5933 4394 c-15 -24 -15 -29 -2 -53 27 -48 82 -33 82 24 0 55 -50 73
-80 29z m59 -11 c7 -30 -3 -53 -22 -53 -21 0 -33 25 -25 51 8 24 42 25 47 2z"/>
<path d="M6052 4408 c-20 -20 -15 -76 7 -88 11 -5 24 -10 30 -10 18 0 41 31
41 55 0 44 -50 71 -78 43z m53 -43 c0 -23 -4 -30 -20 -30 -21 0 -31 25 -21 51
11 28 41 12 41 -21z"/>
<path d="M6320 4363 c0 -29 5 -53 10 -53 6 0 10 17 10 39 0 29 6 42 23 54 22
15 22 15 -10 15 l-33 -1 0 -54z"/>
<path d="M6402 4408 c-7 -7 -12 -26 -12 -43 0 -50 42 -74 70 -40 11 13 8 14
-19 9 -24 -5 -31 -3 -31 10 0 11 9 16 30 16 32 0 36 9 20 41 -12 21 -40 25
-58 7z m48 -18 c0 -5 -9 -10 -20 -10 -11 0 -20 5 -20 10 0 6 9 10 20 10 11 0
20 -4 20 -10z"/>
<path d="M6670 4365 c0 -30 5 -55 10 -55 6 0 10 25 10 55 0 30 -4 55 -10 55
-5 0 -10 -25 -10 -55z"/>
<path d="M6720 4405 c-17 -20 -6 -43 25 -51 38 -9 31 -28 -7 -20 -30 6 -32 5
-16 -10 25 -25 68 -11 68 21 0 20 -6 27 -30 32 -16 3 -30 10 -30 16 0 5 13 7
31 3 27 -5 30 -4 19 9 -16 19 -44 19 -60 0z"/>
<path d="M6863 4406 c3 -8 11 -33 18 -55 14 -48 29 -49 43 0 l9 34 10 -37 c14
-60 33 -46 52 40 9 45 -9 40 -21 -5 l-10 -38 -10 34 c-13 47 -31 50 -40 7 -7
-41 -19 -40 -27 4 -4 16 -12 30 -18 30 -6 0 -9 -6 -6 -14z"/>
<path d="M7130 4365 c0 -30 5 -55 10 -55 6 0 10 25 10 55 0 30 -4 55 -10 55
-5 0 -10 -25 -10 -55z"/>
<path d="M7192 4408 c-7 -7 -12 -26 -12 -43 0 -34 15 -55 40 -55 24 0 43 17
35 30 -6 9 -9 9 -15 0 -13 -21 -40 -3 -40 25 0 27 31 48 38 27 2 -7 8 -9 13
-6 14 8 -9 34 -30 34 -9 0 -22 -5 -29 -12z"/>
<path d="M7463 4394 c-15 -24 -15 -29 -2 -53 27 -48 82 -33 82 24 0 55 -50 73
-80 29z m59 -11 c7 -30 -3 -53 -22 -53 -21 0 -33 25 -25 51 8 24 42 25 47 2z"/>
<path d="M7863 4394 c-15 -24 -15 -29 -2 -53 18 -31 50 -38 70 -15 12 15 11
16 -17 10 -24 -5 -33 -3 -37 8 -5 13 1 16 28 16 39 0 46 17 19 44 -22 23 -41
20 -61 -10z m52 -4 c4 -6 -5 -10 -20 -10 -15 0 -24 4 -20 10 3 6 12 10 20 10
8 0 17 -4 20 -10z"/>
<path d="M8083 4394 c-15 -24 -15 -29 -2 -53 10 -17 23 -26 39 -26 16 0 29 9
39 26 13 24 13 29 -2 53 -10 14 -26 26 -37 26 -11 0 -27 -12 -37 -26z m62 -13
c8 -26 -4 -51 -25 -51 -10 0 -21 7 -24 16 -10 25 3 54 24 54 10 0 21 -8 25
-19z"/>
<path d="M8303 4394 c-15 -24 -15 -29 -2 -53 27 -48 82 -33 82 24 0 55 -50 73
-80 29z m59 -11 c7 -30 -3 -53 -22 -53 -21 0 -33 25 -25 51 8 24 42 25 47 2z"/>
<path d="M8400 4417 c0 -2 7 -27 15 -55 18 -59 33 -66 42 -22 8 44 20 45 27 4
9 -46 26 -39 42 17 16 53 17 59 4 59 -5 0 -12 -16 -16 -35 -6 -34 -24 -40 -24
-7 0 9 -5 24 -10 32 -9 13 -11 13 -20 0 -5 -8 -10 -25 -10 -37 0 -36 -17 -27
-24 12 -4 19 -11 35 -16 35 -6 0 -10 -1 -10 -3z"/>
<path d="M8560 4365 c0 -30 5 -55 10 -55 6 0 10 25 10 55 0 30 -4 55 -10 55
-5 0 -10 -25 -10 -55z"/>
<path d="M8610 4364 c0 -64 17 -73 22 -12 2 31 8 44 21 46 14 3 17 -4 17 -42
0 -26 5 -46 11 -46 6 0 9 21 7 53 l-3 52 -37 1 -38 1 0 -53z"/>
<path d="M8731 4407 c-16 -16 -14 -72 4 -87 8 -6 23 -9 36 -5 16 5 20 3 17 -6
-3 -9 -17 -13 -38 -11 -28 2 -31 0 -20 -13 15 -18 51 -20 68 -3 7 7 12 39 12
73 l0 61 -34 1 c-19 1 -39 -4 -45 -10z m54 -42 c0 -23 -4 -30 -20 -30 -21 0
-31 25 -21 51 11 28 41 12 41 -21z"/>
<path d="M8870 4325 c0 -8 5 -15 10 -15 6 0 10 7 10 15 0 8 -4 15 -10 15 -5 0
-10 -7 -10 -15z"/>
<path d="M4421 4156 c-13 -7 -30 -24 -37 -37 -17 -30 -18 -110 -2 -144 23 -52
44 -55 333 -55 284 0 316 5 330 50 3 11 10 20 15 20 5 0 12 -9 15 -20 14 -44
48 -50 305 -50 257 0 291 6 305 50 3 11 10 20 15 20 5 0 12 -9 15 -20 13 -40
55 -50 200 -50 145 0 187 10 200 50 3 11 10 20 15 20 5 0 12 -9 15 -20 14 -44
48 -50 300 -50 256 0 280 4 303 55 7 14 12 46 12 70 0 24 -5 56 -12 70 -23 51
-47 55 -303 55 -252 0 -286 -6 -300 -50 -3 -11 -10 -20 -15 -20 -5 0 -12 9
-15 20 -13 40 -55 50 -200 50 -145 0 -187 -10 -200 -50 -3 -11 -10 -20 -15
-20 -5 0 -12 9 -15 20 -14 44 -48 50 -305 50 -257 0 -291 -6 -305 -50 -3 -11
-10 -20 -15 -20 -5 0 -12 9 -15 20 -14 45 -46 50 -332 50 -203 -1 -274 -4
-292 -14z m594 -31 c21 -20 25 -34 25 -80 0 -46 -4 -60 -25 -80 l-24 -25 -276
0 -276 0 -24 25 c-21 20 -25 34 -25 80 0 46 4 60 25 80 l24 25 276 0 276 0 24
-25z m640 0 c21 -20 25 -34 25 -80 0 -46 -4 -60 -25 -80 l-24 -25 -251 0 -251
0 -24 25 c-21 20 -25 34 -25 80 0 46 4 60 25 80 l24 25 251 0 251 0 24 -25z
m430 0 c21 -20 25 -34 25 -80 0 -46 -4 -60 -25 -80 -23 -24 -28 -25 -170 -25
-142 0 -147 1 -170 25 -21 20 -25 34 -25 80 0 46 4 60 25 80 23 24 28 25 170
25 142 0 147 -1 170 -25z m630 0 c21 -20 25 -34 25 -80 0 -46 -4 -60 -25 -80
l-24 -25 -246 0 -246 0 -24 25 c-21 20 -25 34 -25 80 0 46 4 60 25 80 l24 25
246 0 246 0 24 -25z"/>
<path d="M4488 4109 c-12 -7 -18 -22 -18 -47 0 -43 14 -62 46 -62 22 0 51 26
41 37 -4 3 -9 -2 -13 -11 -14 -37 -64 -11 -64 34 0 14 5 31 12 38 15 15 48 16
48 2 0 -5 5 -10 11 -10 8 0 8 5 -1 15 -14 17 -37 19 -62 4z"/>
<path d="M4590 4076 c-15 -19 -9 -56 12 -69 34 -22 66 41 36 71 -16 16 -33 15
-48 -2z m45 -31 c0 -23 -4 -30 -20 -30 -21 0 -31 25 -21 51 11 28 41 12 41
-21z"/>
<path d="M4671 4025 c1 -33 4 -50 6 -38 3 14 9 20 19 16 20 -7 44 15 44 42 0
28 -19 45 -48 42 -20 -1 -22 -6 -21 -62z m54 20 c0 -23 -4 -30 -20 -30 -21 0
-31 25 -21 51 11 28 41 12 41 -21z"/>
<path d="M4761 4025 c1 -33 4 -50 6 -38 3 14 9 20 19 16 20 -7 44 15 44 42 0
28 -19 45 -48 42 -20 -1 -22 -6 -21 -62z m54 20 c0 -23 -4 -30 -20 -30 -21 0
-31 25 -21 51 11 28 41 12 41 -21z"/>
<path d="M4849 4069 c-16 -31 4 -71 33 -67 12 2 23 10 25 18 4 12 3 13 -5 1
-6 -8 -17 -11 -26 -8 -27 10 -18 27 14 27 33 0 35 3 20 31 -14 25 -46 24 -61
-2z m55 -4 c4 -11 -1 -15 -19 -15 -24 0 -32 10 -18 23 11 12 31 8 37 -8z"/>
<path d="M4942 4040 c1 -40 2 -41 5 -10 2 19 11 40 20 47 13 10 13 12 -6 10
-18 -1 -21 -7 -19 -47z"/>
<path d="M5163 4060 c0 -36 2 -50 4 -32 2 17 2 47 0 65 -2 17 -4 3 -4 -33z"/>
<path d="M5340 4100 c0 -13 -5 -18 -15 -14 -21 8 -45 -14 -45 -41 0 -28 19
-45 48 -42 20 1 22 7 22 59 0 32 -2 58 -5 58 -3 0 -5 -9 -5 -20z m-5 -55 c0
-33 -28 -47 -39 -19 -10 25 3 56 22 52 11 -2 17 -13 17 -33z"/>
<path d="M5202 4043 l1 -48 4 42 c3 29 9 43 21 46 12 3 11 5 -5 6 -21 1 -23
-3 -21 -46z"/>
<path d="M5253 4045 c0 -27 2 -38 4 -22 2 15 2 37 0 50 -2 12 -4 0 -4 -28z"/>
<path d="M5373 4045 c0 -27 2 -38 4 -22 2 15 2 37 0 50 -2 12 -4 0 -4 -28z"/>
<path d="M5414 4048 c1 -40 3 -43 29 -44 26 -1 27 1 26 45 l-2 46 -6 -40 c-9
-57 -38 -61 -44 -6 l-4 41 1 -42z"/>
<path d="M5501 4041 l2 -46 6 40 c4 26 11 40 21 40 10 0 17 -14 21 -40 l5 -40
5 40 c3 27 9 40 19 40 10 0 17 -14 21 -40 l7 -40 -2 45 -1 45 -52 1 -53 1 1
-46z"/>
<path d="M5803 4060 c0 -36 2 -50 4 -32 2 17 2 47 0 65 -2 17 -4 3 -4 -33z"/>
<path d="M5842 4043 l1 -48 4 42 c3 29 9 43 21 46 12 3 11 5 -5 6 -21 1 -23
-3 -21 -46z"/>
<path d="M5889 4069 c-15 -29 3 -69 31 -69 28 0 46 40 31 69 -7 11 -20 21 -31
21 -11 0 -24 -10 -31 -21z m56 -8 c7 -24 -3 -51 -21 -51 -20 0 -34 31 -23 52
13 23 36 23 44 -1z"/>
<path d="M5981 4041 l2 -46 6 40 c4 26 12 41 23 43 13 3 18 -6 21 -40 l4 -43
-1 45 c-1 42 -3 45 -28 46 -27 1 -28 -1 -27 -45z"/>
<path d="M6246 4104 c-33 -33 -10 -104 33 -104 19 0 41 19 41 35 0 5 -5 2 -11
-7 -23 -40 -73 -11 -67 38 4 37 31 53 60 35 21 -13 22 -13 9 2 -17 21 -45 22
-65 1z"/>
<path d="M6431 4065 c-1 -56 1 -61 21 -62 29 -3 48 14 48 42 0 27 -24 49 -44
42 -10 -4 -16 2 -19 16 -2 12 -5 -5 -6 -38z m54 -20 c0 -23 -4 -30 -20 -30
-21 0 -31 25 -21 51 11 28 41 12 41 -21z"/>
<path d="M6613 4060 c0 -36 2 -50 4 -32 2 17 2 47 0 65 -2 17 -4 3 -4 -33z"/>
<path d="M6648 4100 c-1 -5 -2 -31 0 -55 3 -34 8 -45 21 -45 12 0 13 2 3 9 -8
5 -12 24 -11 49 3 40 -5 65 -13 42z"/>
<path d="M6350 4076 c-15 -19 -9 -56 12 -69 34 -22 66 41 36 71 -16 16 -33 15
-48 -2z m45 -31 c0 -23 -4 -30 -20 -30 -21 0 -31 25 -21 51 11 28 41 12 41
-21z"/>
<path d="M6527 4083 c-4 -3 -7 -11 -7 -17 0 -6 5 -5 12 2 14 14 38 16 38 2 0
-5 -11 -13 -26 -16 -18 -5 -24 -12 -22 -28 2 -16 10 -21 36 -21 28 -1 32 2 32
26 0 42 -10 59 -34 59 -13 0 -26 -3 -29 -7z m40 -58 c-4 -8 -13 -15 -22 -15
-21 0 -19 28 3 32 22 5 26 2 19 -17z"/>
<path d="M3090 3325 c0 -8 9 -15 20 -15 18 0 20 -7 20 -55 0 -30 5 -55 10 -55
6 0 10 25 10 55 0 48 2 55 20 55 11 0 20 7 20 15 0 11 -12 15 -50 15 -38 0
-50 -4 -50 -15z"/>
<path d="M3200 3270 c0 -76 17 -97 22 -27 2 34 7 42 23 42 16 0 21 -8 23 -42
4 -52 22 -58 22 -7 0 52 -16 77 -46 70 -19 -5 -24 -3 -24 14 0 11 -4 20 -10
20 -6 0 -10 -30 -10 -70z"/>
<path d="M4030 3330 c0 -5 5 -10 10 -10 6 0 10 5 10 10 0 6 -4 10 -10 10 -5 0
-10 -4 -10 -10z"/>
<path d="M4150 3321 c0 -14 -6 -17 -25 -14 -32 7 -53 -34 -39 -75 8 -22 16
-27 47 -29 l37 -1 0 69 c0 39 -4 69 -10 69 -5 0 -10 -8 -10 -19z m-5 -66 c0
-23 -4 -30 -20 -30 -21 0 -31 25 -21 51 11 28 41 12 41 -21z"/>
<path d="M4250 3272 l0 -69 33 0 c43 0 57 13 57 52 0 38 -21 59 -50 50 -16 -5
-20 -2 -20 14 0 12 -4 21 -10 21 -6 0 -10 -29 -10 -68z m65 -17 c0 -23 -4 -30
-20 -30 -21 0 -31 25 -21 51 11 28 41 12 41 -21z"/>
<path d="M4470 3270 c0 -40 4 -70 10 -70 6 0 10 30 10 70 0 40 -4 70 -10 70
-6 0 -10 -30 -10 -70z"/>
<path d="M4640 3330 c0 -5 5 -10 10 -10 6 0 10 5 10 10 0 6 -4 10 -10 10 -5 0
-10 -4 -10 -10z"/>
<path d="M4850 3270 c0 -40 4 -70 10 -70 6 0 10 30 10 70 0 40 -4 70 -10 70
-6 0 -10 -30 -10 -70z"/>
<path d="M5450 3321 c0 -14 -6 -17 -25 -14 -32 7 -53 -34 -39 -75 8 -22 16
-27 47 -29 l37 -1 0 69 c0 39 -4 69 -10 69 -5 0 -10 -8 -10 -19z m-5 -66 c0
-23 -4 -30 -20 -30 -21 0 -31 25 -21 51 11 28 41 12 41 -21z"/>
<path d="M5550 3272 l0 -69 33 0 c43 0 57 13 57 52 0 38 -21 59 -50 50 -16 -5
-20 -2 -20 14 0 12 -4 21 -10 21 -6 0 -10 -29 -10 -68z m65 -17 c0 -23 -4 -30
-20 -30 -21 0 -31 25 -21 51 11 28 41 12 41 -21z"/>
<path d="M6500 3270 c0 -76 17 -97 22 -28 2 31 8 44 21 46 14 3 17 -4 17 -42
0 -26 5 -46 11 -46 6 0 9 21 7 53 -3 50 -4 52 -30 50 -22 -1 -28 3 -28 18 0
10 -4 19 -10 19 -6 0 -10 -30 -10 -70z"/>
<path d="M6610 3330 c0 -5 5 -10 10 -10 6 0 10 5 10 10 0 6 -4 10 -10 10 -5 0
-10 -4 -10 -10z"/>
<path d="M6770 3270 c0 -76 17 -97 22 -28 2 31 8 44 21 46 14 3 17 -4 17 -42
0 -26 5 -46 11 -46 6 0 9 21 7 53 -3 50 -4 52 -30 50 -22 -1 -28 3 -28 18 0
10 -4 19 -10 19 -6 0 -10 -30 -10 -70z"/>
<path d="M7420 3270 c0 -40 4 -70 10 -70 6 0 10 30 10 70 0 40 -4 70 -10 70
-6 0 -10 -30 -10 -70z"/>
<path d="M7970 3325 c-18 -21 -6 -29 19 -13 30 19 51 -4 28 -30 -27 -29 -20
-44 8 -18 14 13 25 30 25 38 0 36 -56 52 -80 23z"/>
<path d="M3682 3318 c-10 -10 -9 -31 4 -95 4 -22 34 -33 34 -13 0 6 -4 10 -10
10 -15 0 -12 68 2 72 10 4 9 9 -3 21 -12 11 -19 13 -27 5z"/>
<path d="M4522 3317 c-7 -8 -7 -28 -2 -57 5 -25 9 -48 10 -52 0 -5 10 -8 22
-8 20 0 20 1 5 18 -20 22 -22 69 -5 74 9 3 8 9 -4 21 -12 13 -18 14 -26 4z"/>
<path d="M5222 3318 c-10 -10 -9 -31 4 -95 4 -22 34 -33 34 -13 0 6 -4 10 -10
10 -15 0 -12 68 2 72 10 4 9 9 -3 21 -12 11 -19 13 -27 5z"/>
<path d="M5772 3318 c-10 -10 -9 -31 4 -95 4 -22 34 -33 34 -13 0 6 -4 10 -10
10 -15 0 -12 68 2 72 10 4 9 9 -3 21 -12 11 -19 13 -27 5z"/>
<path d="M6938 3318 c-3 -7 -2 -35 1 -63 4 -36 11 -51 24 -53 9 -2 17 1 17 7
0 6 -4 11 -10 11 -15 0 -12 68 2 72 9 3 8 9 -4 21 -20 20 -24 21 -30 5z"/>
<path d="M7802 3317 c-5 -7 -6 -34 -3 -62 4 -36 11 -51 24 -53 9 -2 17 1 17 7
0 6 -4 11 -10 11 -15 0 -12 68 2 72 9 3 8 9 -4 21 -12 13 -18 14 -26 4z"/>
<path d="M3322 3298 c-7 -7 -12 -26 -12 -43 0 -50 42 -74 70 -41 10 13 7 15
-16 13 -15 -1 -29 4 -31 11 -3 8 6 12 26 12 23 0 31 5 31 18 0 22 -19 42 -40
42 -9 0 -21 -5 -28 -12z m48 -18 c0 -5 -9 -10 -20 -10 -11 0 -20 5 -20 10 0 6
9 10 20 10 11 0 20 -4 20 -10z"/>
<path d="M3483 3303 c-24 -9 -13 -23 12 -17 33 8 32 -4 -1 -16 -20 -8 -25 -16
-22 -38 3 -24 7 -27 41 -28 36 -1 37 0 37 33 0 60 -24 84 -67 66z m47 -47 c0
-16 -14 -36 -26 -36 -14 0 -19 22 -7 33 7 8 33 10 33 3z"/>
<path d="M3580 3295 c-17 -20 -6 -43 25 -51 38 -9 31 -28 -7 -20 -30 6 -32 5
-16 -10 25 -25 68 -11 68 21 0 20 -6 27 -30 32 -16 3 -30 10 -30 16 0 5 13 7
31 3 27 -5 30 -4 19 9 -16 19 -44 19 -60 0z"/>
<path d="M3752 3298 c-7 -7 -12 -26 -12 -43 0 -50 42 -74 70 -40 11 13 8 14
-19 9 -24 -5 -31 -3 -31 10 0 11 9 16 30 16 32 0 36 9 20 41 -12 21 -40 25
-58 7z m48 -18 c0 -5 -9 -10 -20 -10 -11 0 -20 5 -20 10 0 6 9 10 20 10 11 0
20 -4 20 -10z"/>
<path d="M3850 3254 c0 -30 5 -54 10 -54 6 0 10 20 10 45 0 33 4 45 15 45 8 0
15 4 15 9 0 5 -11 9 -25 9 -24 0 -25 -4 -25 -54z"/>
<path d="M3932 3298 c-20 -20 -15 -76 7 -88 11 -5 24 -10 30 -10 18 0 41 31
41 55 0 44 -50 71 -78 43z m53 -43 c0 -23 -4 -30 -20 -30 -21 0 -31 25 -21 51
11 28 41 12 41 -21z"/>
<path d="M4030 3255 c0 -30 5 -55 10 -55 6 0 10 25 10 55 0 30 -4 55 -10 55
-5 0 -10 -25 -10 -55z"/>
<path d="M4372 3298 c-7 -7 -12 -26 -12 -43 0 -50 42 -74 70 -41 10 13 7 15
-16 13 -15 -1 -29 4 -31 11 -3 8 6 12 26 12 23 0 31 5 31 18 0 22 -19 42 -40
42 -9 0 -21 -5 -28 -12z m48 -18 c0 -5 -9 -10 -20 -10 -11 0 -20 5 -20 10 0 6
9 10 20 10 11 0 20 -4 20 -10z"/>
<path d="M4640 3255 c0 -30 5 -55 10 -55 6 0 10 25 10 55 0 30 -4 55 -10 55
-5 0 -10 -25 -10 -55z"/>
<path d="M4692 3298 c-20 -20 -13 -39 18 -49 41 -15 39 -33 -2 -25 -30 6 -32
5 -16 -10 24 -24 68 -11 68 20 0 18 -8 27 -30 35 -39 13 -39 25 1 17 27 -5 30
-4 19 9 -15 18 -42 19 -58 3z"/>
<path d="M4903 3284 c-15 -24 -15 -29 -2 -53 10 -17 23 -26 39 -26 16 0 29 9
39 26 13 24 13 29 -2 53 -10 14 -26 26 -37 26 -11 0 -27 -12 -37 -26z m62 -13
c8 -26 -4 -51 -25 -51 -10 0 -21 7 -24 16 -10 25 3 54 24 54 10 0 21 -8 25
-19z"/>
<path d="M5022 3298 c-7 -7 -12 -26 -12 -43 0 -34 15 -55 41 -55 21 0 44 26
30 34 -5 3 -11 1 -13 -6 -8 -24 -38 1 -38 32 0 30 21 42 35 20 4 -6 11 -8 16
-4 14 8 -9 34 -30 34 -9 0 -22 -5 -29 -12z"/>
<path d="M5120 3295 c-11 -13 -8 -14 21 -10 l34 5 -33 -15 c-27 -13 -33 -20
-30 -43 3 -24 7 -27 41 -28 l37 -1 0 47 c0 34 -4 50 -16 54 -25 10 -41 7 -54
-9z m48 -52 c-4 -22 -38 -30 -38 -10 0 14 13 24 33 26 5 1 7 -7 5 -16z"/>
<path d="M5283 3284 c-15 -24 -15 -29 -2 -53 18 -31 50 -38 70 -15 12 15 11
16 -17 10 -24 -5 -33 -3 -37 8 -5 13 1 16 28 16 39 0 46 17 19 44 -22 23 -41
20 -61 -10z m52 -4 c4 -6 -5 -10 -20 -10 -15 0 -24 4 -20 10 3 6 12 10 20 10
8 0 17 -4 20 -10z"/>
<path d="M5672 3298 c-7 -7 -12 -26 -12 -43 0 -50 42 -74 70 -41 10 13 7 15
-16 13 -15 -1 -29 4 -31 11 -3 8 6 12 26 12 23 0 31 5 31 18 0 22 -19 42 -40
42 -9 0 -21 -5 -28 -12z m48 -18 c0 -5 -9 -10 -20 -10 -11 0 -20 5 -20 10 0 6
9 10 20 10 11 0 20 -4 20 -10z"/>
<path d="M5823 3296 c3 -8 11 -33 18 -55 14 -48 29 -49 43 0 l9 34 10 -37 c14
-60 33 -46 52 40 9 45 -9 40 -21 -5 l-10 -38 -10 34 c-13 47 -31 50 -40 7 -7
-41 -19 -40 -27 4 -4 16 -12 30 -18 30 -6 0 -9 -6 -6 -14z"/>
<path d="M5986 3295 c-36 -36 -9 -103 37 -91 35 8 35 25 1 23 -15 -1 -29 3
-31 10 -3 7 9 13 31 15 34 3 35 4 23 28 -15 30 -39 36 -61 15z m49 -15 c4 -6
-5 -10 -20 -10 -15 0 -24 4 -20 10 3 6 12 10 20 10 8 0 17 -4 20 -10z"/>
<path d="M6092 3298 c-7 -7 -12 -26 -12 -43 0 -50 42 -74 70 -40 11 13 8 14
-19 9 -24 -5 -31 -3 -31 10 0 11 9 16 30 16 32 0 36 9 20 41 -12 21 -40 25
-58 7z m48 -18 c0 -5 -9 -10 -20 -10 -11 0 -20 5 -20 10 0 6 9 10 20 10 11 0
20 -4 20 -10z"/>
<path d="M6190 3253 c0 -29 5 -53 10 -53 6 0 10 21 10 46 0 38 3 45 18 42 12
-2 18 -15 20 -46 4 -55 22 -55 22 1 0 55 -9 66 -48 65 -32 -1 -32 -1 -32 -55z"/>
<path d="M6343 3296 c3 -8 11 -33 18 -55 14 -48 29 -49 43 0 l9 34 10 -37 c14
-60 33 -46 52 40 9 45 -9 40 -21 -5 l-10 -38 -10 34 c-13 47 -31 50 -40 7 -7
-41 -19 -40 -27 4 -4 16 -12 30 -18 30 -6 0 -9 -6 -6 -14z"/>
<path d="M6610 3255 c0 -30 5 -55 10 -55 6 0 10 25 10 55 0 30 -4 55 -10 55
-5 0 -10 -25 -10 -55z"/>
<path d="M6676 3294 c-34 -33 -7 -99 37 -92 33 5 33 27 0 25 -24 -2 -28 2 -31
26 -4 30 24 50 38 27 5 -8 9 -9 14 -1 19 30 -31 43 -58 15z"/>
<path d="M6995 3278 c19 -86 38 -100 52 -40 l10 37 9 -34 c14 -49 29 -48 43 0
7 22 15 47 18 55 3 8 0 14 -6 14 -6 0 -14 -14 -18 -30 -8 -44 -20 -45 -27 -4
-9 43 -27 40 -40 -7 l-10 -34 -10 38 c-12 45 -30 50 -21 5z"/>
<path d="M7156 3294 c-30 -30 -10 -94 29 -94 21 0 45 29 45 55 0 26 -24 55
-45 55 -7 0 -21 -7 -29 -16z m49 -39 c0 -23 -4 -30 -20 -30 -21 0 -31 25 -21
51 11 28 41 12 41 -21z"/>
<path d="M7310 3235 c0 -43 4 -75 10 -75 6 0 10 11 10 24 0 18 5 23 18 20 28
-7 46 12 46 50 0 43 -5 49 -49 52 l-35 3 0 -74z m65 36 c8 -26 -5 -53 -24 -49
-29 6 -27 68 3 68 8 0 17 -8 21 -19z"/>
<path d="M7480 3295 c-11 -13 -8 -14 21 -10 l34 5 -33 -15 c-27 -13 -33 -20
-30 -43 3 -24 7 -27 41 -28 l37 -1 0 47 c0 34 -4 50 -16 54 -25 10 -41 7 -54
-9z m48 -52 c-4 -22 -38 -30 -38 -10 0 14 13 24 33 26 5 1 7 -7 5 -16z"/>
<path d="M7580 3254 c0 -64 17 -73 22 -12 2 31 8 44 21 46 14 3 17 -4 17 -42
0 -26 5 -46 11 -46 6 0 9 21 7 53 l-3 52 -37 1 -38 1 0 -53z"/>
<path d="M7702 3298 c-7 -7 -12 -26 -12 -43 0 -50 42 -74 70 -40 11 13 8 14
-19 9 -24 -5 -31 -3 -31 10 0 11 9 16 30 16 32 0 36 9 20 41 -12 21 -40 25
-58 7z m48 -18 c0 -5 -9 -10 -20 -10 -11 0 -20 5 -20 10 0 6 9 10 20 10 11 0
20 -4 20 -10z"/>
<path d="M7867 3304 c-17 -18 -6 -46 23 -57 42 -16 37 -31 -7 -22 -33 6 -35 5
-24 -9 17 -20 55 -21 71 -1 17 20 6 43 -25 51 -14 3 -25 11 -25 16 0 6 11 7
26 4 19 -5 25 -3 22 6 -5 14 -50 23 -61 12z"/>
<path d="M8001 3214 c0 -11 3 -14 6 -6 3 7 2 16 -1 19 -3 4 -6 -2 -5 -13z"/>
<path d="M2811 3046 c-13 -7 -30 -24 -37 -37 -17 -30 -18 -110 -2 -144 25 -56
8 -55 758 -55 742 0 739 0 755 50 3 11 10 20 15 20 5 0 12 -9 15 -20 16 -50
16 -50 720 -50 704 0 704 0 720 50 3 11 10 20 15 20 5 0 12 -9 15 -20 16 -49
25 -50 610 -50 585 0 594 1 610 50 3 11 10 20 15 20 5 0 12 -9 15 -20 16 -50
21 -50 659 -50 440 0 602 3 621 12 35 16 55 57 55 113 0 56 -20 97 -55 113
-19 9 -181 12 -621 12 -638 0 -643 0 -659 -50 -8 -26 -22 -26 -30 0 -16 49
-25 50 -610 50 -585 0 -594 -1 -610 -50 -8 -26 -22 -26 -30 0 -16 50 -16 50
-720 50 -704 0 -704 0 -720 -50 -3 -11 -10 -20 -15 -20 -5 0 -12 9 -15 20 -16
50 -13 50 -757 50 -556 -1 -698 -3 -717 -14z m1444 -31 c21 -20 25 -34 25 -80
0 -46 -4 -60 -25 -80 l-24 -25 -701 0 -701 0 -24 25 c-21 20 -25 34 -25 80 0
46 4 60 25 80 l24 25 701 0 701 0 24 -25z m1470 0 c21 -20 25 -34 25 -80 0
-46 -4 -60 -25 -80 l-24 -25 -666 0 -666 0 -24 25 c-21 20 -25 34 -25 80 0 46
4 60 25 80 l24 25 666 0 666 0 24 -25z m1250 0 c21 -20 25 -34 25 -80 0 -46
-4 -60 -25 -80 l-24 -25 -556 0 -556 0 -24 25 c-21 20 -25 34 -25 80 0 46 4
60 25 80 l24 25 556 0 556 0 24 -25z m1350 0 c21 -20 25 -34 25 -80 0 -46 -4
-60 -25 -80 l-24 -25 -606 0 -606 0 -24 25 c-21 20 -25 34 -25 80 0 46 4 60
25 80 l24 25 606 0 606 0 24 -25z"/>
<path d="M2850 2951 c0 -71 19 -84 21 -13 l1 47 15 -49 c11 -35 17 -45 24 -35
10 17 12 35 2 25 -4 -3 -14 12 -22 35 -25 66 -41 62 -41 -10z"/>
<path d="M2940 2995 c-7 -9 -10 -18 -6 -22 3 -3 7 0 8 8 1 8 4 -11 8 -41 l7
-55 1 63 c1 34 0 62 -2 62 -2 0 -9 -7 -16 -15z"/>
<path d="M3710 2990 c0 -13 -5 -18 -15 -14 -21 8 -45 -14 -45 -41 0 -28 19
-45 48 -42 20 1 22 7 22 59 0 32 -2 58 -5 58 -3 0 -5 -9 -5 -20z m-5 -39 c8
-26 -5 -53 -24 -49 -29 6 -27 68 3 68 8 0 17 -8 21 -19z"/>
<path d="M3796 2953 c14 -32 28 -60 30 -62 2 -2 15 22 29 54 14 31 24 60 21
62 -5 5 -36 -62 -36 -78 0 -4 -4 -10 -9 -13 -5 -4 -17 16 -26 44 -9 27 -20 50
-25 50 -5 0 3 -26 16 -57z"/>
<path d="M2988 2955 c-8 -19 -9 -31 -1 -43 12 -20 55 -23 59 -4 1 7 0 8 -3 2
-7 -15 -40 -12 -47 5 -4 11 2 15 25 15 26 0 30 3 27 23 -5 34 -45 35 -60 2z
m50 -2 c2 -8 -6 -13 -22 -13 -19 0 -24 4 -19 15 6 18 34 16 41 -2z"/>
<path d="M3082 2933 l1 -48 4 42 c3 29 9 43 21 46 12 3 11 5 -5 6 -21 1 -23
-3 -21 -46z"/>
<path d="M3129 2959 c-20 -37 24 -95 45 -60 4 5 -2 7 -13 4 -20 -5 -30 17 -23
50 3 13 10 17 23 14 10 -3 17 -1 13 4 -9 16 -33 10 -45 -12z"/>
<path d="M3214 2938 c1 -40 3 -43 29 -44 26 -1 27 1 26 45 l-2 46 -6 -40 c-9
-57 -38 -61 -44 -6 l-4 41 1 -42z"/>
<path d="M3302 2933 l1 -48 4 43 c3 32 8 42 22 42 29 0 55 -93 29 -103 -10 -4
-10 -6 0 -6 14 -1 37 47 46 95 5 28 5 27 -6 -3 -14 -41 -20 -41 -35 -3 -9 23
-18 30 -37 30 -25 0 -26 -3 -24 -47z"/>
<path d="M3485 2970 c-4 -6 -4 -14 -1 -17 3 -4 6 -1 6 5 0 7 9 12 20 12 30 0
24 -17 -11 -29 -42 -15 -36 -46 9 -47 33 -1 33 0 30 40 -2 33 -7 42 -25 44
-11 2 -24 -2 -28 -8z m45 -45 c0 -19 -24 -30 -41 -19 -9 5 -7 11 6 21 24 17
35 17 35 -2z"/>
<path d="M3561 2930 l1 -45 8 38 c8 44 14 51 35 44 9 -4 16 -20 16 -44 1 -25
3 -30 6 -14 3 12 2 34 -1 47 -5 20 -12 24 -36 22 -29 -2 -30 -4 -29 -48z"/>
<path d="M3890 2966 c-15 -20 -9 -56 12 -70 14 -8 21 -6 35 9 16 17 17 18 1 6
-19 -14 -48 -9 -48 9 0 5 14 10 30 10 31 0 39 17 18 38 -16 16 -33 15 -48 -2z
m48 -13 c2 -8 -6 -13 -22 -13 -25 0 -33 10 -19 24 10 10 36 3 41 -11z"/>
<path d="M3971 2930 l1 -45 8 38 c8 44 14 51 35 44 9 -4 16 -20 16 -44 1 -25
3 -30 6 -14 3 12 2 34 -1 47 -5 20 -12 24 -36 22 -29 -2 -30 -4 -29 -48z"/>
<path d="M4064 2940 c1 -36 5 -45 21 -48 18 -4 19 -3 3 10 -9 7 -19 29 -21 48
-3 26 -4 24 -3 -10z"/>
<path d="M4110 2941 c0 -22 5 -43 10 -46 6 -4 10 12 10 39 0 25 -4 46 -10 46
-5 0 -10 -18 -10 -39z"/>
<path d="M4157 2973 c-14 -14 -6 -34 18 -43 33 -13 33 -34 -1 -27 -16 3 -22 1
-16 -5 15 -15 46 -5 50 15 2 11 -6 20 -22 27 -35 13 -34 34 0 26 17 -5 23 -3
19 4 -7 11 -38 14 -48 3z"/>
<path d="M4432 2958 c-2 -43 -6 -58 -16 -58 -8 0 -17 8 -19 18 -4 16 -5 16 -6
-1 -1 -21 26 -34 40 -20 6 6 8 34 6 64 l-3 54 -2 -57z"/>
<path d="M4690 2998 c0 -9 -6 -19 -12 -21 -10 -4 -10 -6 0 -6 7 -1 12 -16 12
-41 0 -22 3 -40 8 -40 8 0 6 109 -2 118 -3 3 -6 -2 -6 -10z"/>
<path d="M5150 2990 c0 -13 -5 -18 -15 -14 -21 8 -45 -14 -45 -41 0 -28 19
-45 48 -42 20 1 22 7 22 59 0 32 -2 58 -5 58 -3 0 -5 -9 -5 -20z m-5 -39 c8
-26 -5 -53 -24 -49 -29 6 -27 68 3 68 8 0 17 -8 21 -19z"/>
<path d="M5242 3001 c-23 -14 -9 -45 25 -54 20 -6 33 -17 36 -31 3 -17 5 -15
6 6 1 23 -4 29 -31 36 -17 4 -33 13 -36 20 -6 19 28 27 52 12 19 -12 20 -12 7
3 -15 18 -38 22 -59 8z"/>
<path d="M5430 2998 c0 -9 -6 -19 -12 -21 -10 -4 -10 -6 0 -6 7 -1 12 -16 12
-41 0 -22 3 -40 8 -40 8 0 6 109 -2 118 -3 3 -6 -2 -6 -10z"/>
<path d="M4474 2940 c1 -36 5 -45 21 -48 18 -4 19 -3 3 10 -9 7 -19 29 -21 48
-3 26 -4 24 -3 -10z"/>
<path d="M4520 2941 c0 -22 5 -43 10 -46 6 -4 10 12 10 39 0 25 -4 46 -10 46
-5 0 -10 -18 -10 -39z"/>
<path d="M4561 2915 c1 -33 4 -50 6 -38 3 14 9 20 19 16 20 -7 44 15 44 42 0
28 -19 45 -48 42 -20 -1 -22 -6 -21 -62z m54 20 c0 -23 -4 -30 -20 -30 -21 0
-31 25 -21 51 11 28 41 12 41 -21z"/>
<path d="M4653 2935 c0 -27 2 -38 4 -22 2 15 2 37 0 50 -2 12 -4 0 -4 -28z"/>
<path d="M4729 2959 c-16 -31 4 -71 33 -67 12 2 23 10 25 18 4 12 3 13 -5 1
-6 -8 -17 -11 -26 -8 -27 10 -18 27 14 27 33 0 35 3 20 31 -14 25 -46 24 -61
-2z m55 -4 c4 -11 -1 -15 -19 -15 -24 0 -32 10 -18 23 11 12 31 8 37 -8z"/>
<path d="M4822 2930 c1 -40 2 -41 5 -10 2 19 11 40 20 47 13 10 13 12 -6 10
-18 -1 -21 -7 -19 -47z"/>
<path d="M4925 2970 c-4 -6 -4 -14 -1 -17 3 -4 6 -1 6 5 0 7 9 12 20 12 30 0
24 -17 -11 -29 -42 -15 -36 -46 9 -47 33 -1 33 0 30 40 -2 33 -7 42 -25 44
-11 2 -24 -2 -28 -8z m45 -45 c0 -19 -24 -30 -41 -19 -9 5 -7 11 6 21 24 17
35 17 35 -2z"/>
<path d="M5011 2931 l2 -46 6 40 c4 26 11 40 21 40 10 0 17 -14 21 -40 l7 -40
-2 45 c-1 42 -3 45 -28 46 -27 1 -28 -1 -27 -45z"/>
<path d="M5339 2963 c-13 -16 -12 -17 3 -4 10 7 26 10 35 6 15 -5 12 -9 -15
-21 -45 -18 -41 -49 6 -50 33 -1 33 0 30 40 -2 33 -7 42 -24 44 -11 2 -27 -5
-35 -15z m47 -39 c-3 -9 -6 -18 -6 -20 0 -2 -9 -4 -20 -4 -25 0 -27 27 -2 33
31 8 34 7 28 -9z"/>
<path d="M5474 2938 c1 -40 3 -43 29 -44 26 -1 27 1 26 45 l-2 46 -6 -40 c-9
-57 -38 -61 -44 -6 l-4 41 1 -42z"/>
<path d="M5562 2933 l1 -48 4 42 c3 29 9 43 21 46 12 3 11 5 -5 6 -21 1 -23
-3 -21 -46z"/>
<path d="M5611 2931 l2 -46 6 40 c4 26 12 41 23 43 13 3 18 -6 21 -40 l4 -43
-1 45 c-1 42 -3 45 -28 46 -27 1 -28 -1 -27 -45z"/>
<path d="M5232 2910 c2 -8 18 -16 34 -17 18 -1 22 0 9 4 -11 3 -26 10 -34 17
-11 9 -13 8 -9 -4z"/>
<path d="M5860 2950 l0 -60 43 2 42 1 -37 4 c-32 4 -38 8 -38 28 0 20 6 24 38
28 l37 4 -37 1 c-30 2 -38 6 -38 21 0 15 8 21 38 24 l37 4 -42 1 -43 2 0 -60z"/>
<path d="M6153 2950 c0 -53 1 -57 6 -25 4 27 12 41 24 43 14 3 17 -4 17 -37 0
-23 5 -41 10 -41 12 0 13 60 1 79 -5 8 -18 12 -29 9 -16 -4 -22 0 -25 16 -2
11 -4 -8 -4 -44z"/>
<path d="M6520 2990 c0 -13 -5 -18 -15 -14 -21 8 -45 -14 -45 -41 0 -28 19
-45 48 -42 20 1 22 7 22 59 0 32 -2 58 -5 58 -3 0 -5 -9 -5 -20z m-5 -39 c8
-26 -5 -53 -24 -49 -29 6 -27 68 3 68 8 0 17 -8 21 -19z"/>
<path d="M6602 2949 l1 -64 6 55 6 55 14 -53 c10 -40 16 -51 25 -42 8 8 8 13
0 18 -6 4 -15 21 -18 39 -4 17 -14 37 -22 44 -12 10 -14 2 -12 -52z"/>
<path d="M6680 2989 c-7 -11 -9 -23 -6 -27 3 -3 7 1 8 9 0 8 4 -8 8 -36 l7
-50 1 63 c1 34 0 62 -3 62 -2 0 -9 -9 -15 -21z"/>
<path d="M6108 2988 c-8 -22 7 -91 20 -94 7 -1 8 0 2 3 -12 6 -13 70 -1 75 5
2 3 8 -4 15 -10 9 -15 9 -17 1z"/>
<path d="M5975 2970 c-4 -6 -4 -14 -1 -17 3 -4 6 -1 6 5 0 7 9 12 20 12 30 0
24 -17 -11 -29 -42 -15 -36 -46 9 -47 33 -1 33 0 30 40 -2 33 -7 42 -25 44
-11 2 -24 -2 -28 -8z m45 -45 c0 -19 -24 -30 -41 -19 -9 5 -7 11 6 21 24 17
35 17 35 -2z"/>
<path d="M6051 2930 l1 -45 8 39 c4 21 13 42 21 47 10 6 7 8 -9 6 -19 -1 -22
-6 -21 -47z"/>
<path d="M6295 2970 c-4 -6 -4 -14 -1 -17 3 -4 6 -1 6 5 0 7 9 12 20 12 30 0
24 -17 -11 -29 -42 -15 -36 -46 9 -47 33 -1 33 0 30 40 -2 33 -7 42 -25 44
-11 2 -24 -2 -28 -8z m45 -45 c0 -19 -24 -30 -41 -19 -9 5 -7 11 6 21 24 17
35 17 35 -2z"/>
<path d="M6371 2930 l1 -45 8 38 c8 44 14 51 35 44 9 -4 16 -20 16 -44 1 -25
3 -30 6 -14 3 12 2 34 -1 47 -5 20 -12 24 -36 22 -29 -2 -30 -4 -29 -48z"/>
<path d="M6737 2973 c-4 -3 -7 -11 -7 -17 0 -6 5 -5 12 2 14 14 38 16 38 2 0
-5 -11 -13 -26 -16 -18 -5 -24 -12 -22 -28 2 -16 10 -21 36 -21 28 -1 32 2 32
26 0 42 -10 59 -34 59 -13 0 -26 -3 -29 -7z m40 -58 c-4 -8 -13 -15 -22 -15
-21 0 -19 28 3 32 22 5 26 2 19 -17z"/>
<path d="M6822 2930 c1 -40 2 -41 5 -10 2 19 11 40 20 47 13 10 13 12 -6 10
-18 -1 -21 -7 -19 -47z"/>
<path d="M6877 2973 c-14 -14 -6 -34 18 -43 33 -13 33 -34 -1 -27 -16 3 -22 1
-16 -5 15 -15 46 -5 50 15 2 11 -6 20 -22 27 -33 12 -34 34 -1 28 13 -3 22 -1
19 3 -6 11 -38 12 -47 2z"/>
<path d="M7110 2951 c0 -71 19 -84 21 -13 l1 47 15 -49 c11 -35 17 -45 24 -35
10 17 12 35 2 25 -4 -3 -14 12 -22 35 -25 66 -41 62 -41 -10z"/>
<path d="M7200 2995 c-7 -9 -10 -18 -6 -22 3 -3 7 0 8 8 1 8 4 -11 8 -41 l7
-55 1 63 c1 34 0 62 -2 62 -2 0 -9 -7 -16 -15z"/>
<path d="M7740 2996 c0 -8 -10 -16 -22 -18 -20 -3 -23 -9 -23 -43 0 -38 2 -40
33 -43 l32 -3 0 60 c0 34 -4 61 -10 61 -5 0 -10 -6 -10 -14z m2 -43 c7 -30 -4
-54 -21 -51 -29 6 -27 68 3 68 8 0 16 -8 18 -17z"/>
<path d="M7860 2955 c0 -41 -4 -55 -14 -55 -8 0 -17 8 -19 18 -4 16 -5 16 -6
-1 -2 -26 29 -34 45 -12 16 22 19 105 4 105 -5 0 -10 -25 -10 -55z"/>
<path d="M8118 2988 c-8 -22 7 -91 20 -94 7 -1 8 0 2 3 -12 6 -13 70 -1 75 5
2 3 8 -4 15 -10 9 -15 9 -17 1z"/>
<path d="M7255 2970 c-4 -6 -4 -14 -1 -17 3 -4 6 -1 6 5 0 7 9 12 20 12 30 0
24 -17 -11 -29 -42 -15 -36 -46 9 -47 33 -1 33 0 30 40 -2 33 -7 42 -25 44
-11 2 -24 -2 -28 -8z m45 -45 c0 -19 -24 -30 -41 -19 -9 5 -7 11 6 21 24 17
35 17 35 -2z"/>
<path d="M7342 2933 l1 -48 4 42 c3 29 9 43 21 46 12 3 11 5 -5 6 -21 1 -23
-3 -21 -46z"/>
<path d="M7391 2966 c-12 -15 -2 -27 32 -39 27 -10 9 -30 -20 -22 -16 4 -22 2
-18 -5 10 -16 52 -12 59 6 9 23 8 24 -19 34 -30 11 -34 35 -5 27 11 -3 18 -1
14 4 -8 13 -30 11 -43 -5z"/>
<path d="M7519 2963 c-13 -16 -12 -17 3 -4 10 7 26 10 35 6 15 -5 12 -9 -15
-21 -45 -18 -41 -49 6 -50 33 -1 33 0 30 40 -2 33 -7 42 -24 44 -11 2 -27 -5
-35 -15z m47 -39 c-3 -9 -6 -18 -6 -20 0 -2 -9 -4 -20 -4 -25 0 -27 27 -2 33
31 8 34 7 28 -9z"/>
<path d="M7601 2930 l2 -45 6 40 c4 27 12 41 24 43 14 3 17 -4 17 -37 0 -23 5
-41 10 -41 12 0 13 60 2 78 -5 6 -20 11 -35 10 -25 -2 -27 -5 -26 -48z"/>
<path d="M7901 2950 c-1 -46 9 -61 42 -58 25 2 27 5 26 48 -1 25 -3 36 -6 25
-2 -11 -6 -30 -9 -42 -2 -13 -11 -23 -19 -23 -8 0 -17 10 -19 23 -3 12 -7 31
-9 42 -3 11 -5 4 -6 -15z"/>
<path d="M7991 2915 c1 -33 4 -50 6 -38 3 14 9 20 19 16 20 -7 44 15 44 42 0
28 -19 45 -48 42 -20 -1 -22 -6 -21 -62z m54 20 c0 -33 -28 -47 -39 -19 -10
25 3 56 22 52 11 -2 17 -13 17 -33z"/>
<path d="M8083 2935 c0 -27 2 -38 4 -22 2 15 2 37 0 50 -2 12 -4 0 -4 -28z"/>
<path d="M8170 2966 c-15 -20 -9 -56 12 -70 14 -8 21 -6 35 9 16 17 17 18 1 6
-19 -14 -48 -9 -48 9 0 5 14 10 30 10 31 0 39 17 18 38 -16 16 -33 15 -48 -2z
m48 -13 c2 -8 -6 -13 -22 -13 -25 0 -33 10 -19 24 10 10 36 3 41 -11z"/>
<path d="M8252 2930 c1 -40 2 -41 5 -10 2 19 11 40 20 47 13 10 13 12 -6 10
-18 -1 -21 -7 -19 -47z"/>
<path d="M1588 2160 c-19 -54 -22 -70 -12 -70 8 0 14 7 14 15 0 22 59 20 76
-2 24 -35 23 -6 -3 60 -14 37 -32 67 -38 67 -7 0 -24 -31 -37 -70z m46 -8
c-22 -5 -27 3 -19 29 l7 22 14 -24 c11 -20 10 -25 -2 -27z"/>
<path d="M2260 2160 c0 -76 17 -97 22 -27 2 34 7 42 23 42 16 0 21 -8 23 -42
4 -52 22 -58 22 -7 0 52 -16 77 -46 70 -19 -5 -24 -3 -24 14 0 11 -4 20 -10
20 -6 0 -10 -30 -10 -70z"/>
<path d="M2720 2220 c0 -5 5 -10 10 -10 6 0 10 5 10 10 0 6 -4 10 -10 10 -5 0
-10 -4 -10 -10z"/>
<path d="M3380 2220 c0 -5 5 -10 10 -10 6 0 10 5 10 10 0 6 -4 10 -10 10 -5 0
-10 -4 -10 -10z"/>
<path d="M3710 2220 c0 -5 5 -10 10 -10 6 0 10 5 10 10 0 6 -4 10 -10 10 -5 0
-10 -4 -10 -10z"/>
<path d="M4180 2160 c0 -40 4 -70 10 -70 6 0 10 20 10 45 0 38 3 45 20 45 17
0 20 -7 20 -45 0 -25 5 -45 10 -45 6 0 10 20 10 44 0 46 -19 72 -45 62 -10 -4
-15 1 -15 14 0 11 -4 20 -10 20 -6 0 -10 -30 -10 -70z"/>
<path d="M4560 2220 c0 -5 5 -10 10 -10 6 0 10 5 10 10 0 6 -4 10 -10 10 -5 0
-10 -4 -10 -10z"/>
<path d="M4820 2160 c0 -40 4 -70 10 -70 6 0 10 30 10 70 0 40 -4 70 -10 70
-6 0 -10 -30 -10 -70z"/>
<path d="M5370 2220 c0 -5 5 -10 10 -10 6 0 10 5 10 10 0 6 -4 10 -10 10 -5 0
-10 -4 -10 -10z"/>
<path d="M5770 2160 c0 -40 4 -70 10 -70 6 0 10 20 10 45 0 38 3 45 20 45 17
0 20 -7 20 -45 0 -25 5 -45 10 -45 6 0 10 20 10 44 0 46 -19 72 -45 62 -10 -4
-15 1 -15 14 0 11 -4 20 -10 20 -6 0 -10 -30 -10 -70z"/>
<path d="M6280 2160 c0 -40 4 -70 10 -70 6 0 10 30 10 70 0 40 -4 70 -10 70
-6 0 -10 -30 -10 -70z"/>
<path d="M7560 2162 l0 -69 33 0 c43 0 57 13 57 52 0 38 -21 59 -50 50 -16 -5
-20 -2 -20 14 0 12 -4 21 -10 21 -6 0 -10 -29 -10 -68z m70 -17 c0 -28 -4 -35
-19 -35 -10 0 -22 7 -25 16 -10 26 3 54 25 54 15 0 19 -7 19 -35z"/>
<path d="M8080 2209 c0 -16 -4 -19 -20 -14 -29 9 -50 -12 -50 -50 0 -39 14
-52 58 -52 l32 0 0 69 c0 39 -4 68 -10 68 -5 0 -10 -9 -10 -21z m-5 -64 c0
-23 -4 -30 -20 -30 -21 0 -31 25 -21 51 11 28 41 12 41 -21z"/>
<path d="M8130 2220 c0 -5 5 -10 10 -10 6 0 10 5 10 10 0 6 -4 10 -10 10 -5 0
-10 -4 -10 -10z"/>
<path d="M8350 2220 c0 -5 5 -10 10 -10 6 0 10 5 10 10 0 6 -4 10 -10 10 -5 0
-10 -4 -10 -10z"/>
<path d="M8780 2160 c0 -40 4 -70 10 -70 6 0 10 30 10 70 0 40 -4 70 -10 70
-6 0 -10 -30 -10 -70z"/>
<path d="M9180 2220 c0 -5 5 -10 10 -10 6 0 10 5 10 10 0 6 -4 10 -10 10 -5 0
-10 -4 -10 -10z"/>
<path d="M9330 2220 c0 -5 5 -10 10 -10 6 0 10 5 10 10 0 6 -4 10 -10 10 -5 0
-10 -4 -10 -10z"/>
<path d="M2202 2208 c-10 -10 -9 -31 4 -95 4 -22 34 -33 34 -13 0 6 -4 10 -10
10 -15 0 -12 68 2 72 10 4 9 9 -3 21 -12 11 -19 13 -27 5z"/>
<path d="M3312 2207 c-7 -8 -7 -28 -2 -57 5 -25 9 -48 10 -52 0 -5 10 -8 22
-8 20 0 20 1 5 18 -20 22 -22 69 -5 74 9 3 8 9 -4 21 -12 13 -18 14 -26 4z"/>
<path d="M5312 2208 c-10 -10 -9 -31 4 -95 4 -22 34 -33 34 -13 0 6 -4 10 -10
10 -15 0 -12 68 2 72 10 4 9 9 -3 21 -12 11 -19 13 -27 5z"/>
<path d="M5702 2207 c-7 -8 -7 -28 -2 -57 5 -25 9 -48 10 -52 0 -5 10 -8 22
-8 20 0 20 1 5 18 -20 22 -22 69 -5 74 9 3 8 9 -4 21 -12 13 -18 14 -26 4z"/>
<path d="M5988 2208 c-3 -7 -2 -35 1 -63 4 -36 11 -51 24 -53 9 -2 17 1 17 7
0 6 -4 11 -10 11 -15 0 -12 68 2 72 9 3 8 9 -4 21 -20 20 -24 21 -30 5z"/>
<path d="M8282 2207 c-7 -8 -7 -28 -2 -57 5 -25 9 -48 10 -52 0 -5 10 -8 22
-8 20 0 20 1 5 18 -20 22 -22 69 -5 74 9 3 8 9 -4 21 -12 13 -18 14 -26 4z"/>
<path d="M9042 2207 c-7 -8 -7 -28 -2 -57 5 -25 9 -48 10 -52 0 -5 10 -8 22
-8 20 0 20 1 5 18 -20 22 -22 69 -5 74 9 3 8 9 -4 21 -12 13 -18 14 -26 4z"/>
<path d="M9388 2208 c-3 -7 -2 -35 1 -63 4 -36 11 -51 24 -53 9 -2 17 1 17 7
0 6 -4 11 -10 11 -16 0 -12 67 4 73 11 4 20 -9 32 -45 16 -49 16 -52 -1 -65
-22 -16 -11 -32 12 -17 20 12 68 147 51 142 -7 -3 -16 -19 -20 -36 -11 -41
-23 -41 -34 1 -7 22 -17 33 -32 35 -12 2 -22 8 -22 13 0 13 -17 11 -22 -3z"/>
<path d="M1710 2144 c0 -64 17 -73 22 -12 2 31 8 44 21 46 14 3 17 -4 17 -42
0 -26 5 -46 11 -46 6 0 9 21 7 53 l-3 52 -37 1 -38 1 0 -53z"/>
<path d="M1886 2185 c-36 -36 -9 -103 37 -91 35 8 35 25 1 23 -15 -1 -29 3
-31 10 -3 7 9 13 31 15 34 3 35 4 23 28 -15 30 -39 36 -61 15z m49 -15 c4 -6
-5 -10 -20 -10 -15 0 -24 4 -20 10 3 6 12 10 20 10 8 0 17 -4 20 -10z"/>
<path d="M1980 2195 c0 -2 5 -15 11 -29 10 -20 9 -30 -5 -51 -19 -29 -2 -36
20 -7 13 16 15 16 25 0 18 -31 30 -20 14 12 -14 27 -14 32 1 55 19 28 9 33
-18 9 -16 -16 -18 -16 -24 0 -5 14 -24 23 -24 11z"/>
<path d="M2093 2174 c-15 -24 -15 -29 -2 -53 27 -48 82 -33 82 24 0 55 -50 73
-80 29z m59 -11 c7 -30 -3 -53 -22 -53 -21 0 -33 25 -25 51 8 24 42 25 47 2z"/>
<path d="M2382 2188 c-7 -7 -12 -26 -12 -43 0 -50 42 -74 70 -41 10 13 7 15
-16 13 -15 -1 -29 4 -31 11 -3 8 6 12 26 12 23 0 31 5 31 18 0 22 -19 42 -40
42 -9 0 -21 -5 -28 -12z m48 -18 c0 -5 -9 -10 -20 -10 -11 0 -20 5 -20 10 0 6
9 10 20 10 11 0 20 -4 20 -10z"/>
<path d="M2480 2143 c0 -29 5 -53 10 -53 6 0 10 17 10 39 0 29 6 42 23 54 22
15 22 15 -10 15 l-33 -1 0 -54z"/>
<path d="M2550 2143 c0 -63 18 -72 22 -11 2 31 8 44 21 46 14 3 17 -4 17 -42
0 -58 18 -61 22 -3 2 29 8 42 18 42 10 0 16 -13 18 -42 2 -24 7 -43 13 -43 14
0 11 88 -3 97 -7 4 -39 8 -70 9 l-58 0 0 -53z"/>
<path d="M2720 2145 c0 -30 5 -55 10 -55 6 0 10 25 10 55 0 30 -4 55 -10 55
-5 0 -10 -25 -10 -55z"/>
<path d="M2782 2188 c-7 -7 -12 -26 -12 -43 0 -34 15 -55 41 -55 21 0 44 26
30 34 -5 3 -11 1 -13 -6 -8 -24 -38 1 -38 32 0 30 21 42 35 20 4 -6 11 -8 16
-4 14 8 -9 34 -30 34 -9 0 -22 -5 -29 -12z"/>
<path d="M2930 2144 c0 -30 5 -54 10 -54 6 0 10 20 10 45 0 33 4 45 15 45 8 0
15 4 15 9 0 5 -11 9 -25 9 -24 0 -25 -4 -25 -54z"/>
<path d="M3003 2174 c-15 -24 -15 -29 -2 -53 18 -31 50 -38 70 -15 12 15 11
16 -17 10 -24 -5 -33 -3 -37 8 -5 13 1 16 28 16 39 0 46 17 19 44 -22 23 -41
20 -61 -10z m52 -4 c4 -6 -5 -10 -20 -10 -15 0 -24 4 -20 10 3 6 12 10 20 10
8 0 17 -4 20 -10z"/>
<path d="M3110 2185 c-11 -13 -8 -14 21 -10 l34 5 -33 -15 c-27 -13 -33 -20
-30 -43 3 -24 7 -27 41 -28 l37 -1 0 47 c0 34 -4 50 -16 54 -25 10 -41 7 -54
-9z m48 -52 c-4 -22 -38 -30 -38 -10 0 14 13 24 33 26 5 1 7 -7 5 -16z"/>
<path d="M3214 2174 c-16 -24 -16 -29 -3 -53 8 -14 23 -27 32 -29 22 -4 49 16
41 30 -4 6 -10 6 -17 -1 -26 -26 -56 5 -41 43 5 13 13 16 31 11 18 -4 24 -2
21 7 -8 25 -46 20 -64 -8z"/>
<path d="M3380 2145 c0 -30 5 -55 10 -55 6 0 10 25 10 55 0 30 -4 55 -10 55
-5 0 -10 -25 -10 -55z"/>
<path d="M3433 2174 c-15 -24 -15 -29 -2 -53 10 -17 23 -26 39 -26 16 0 29 9
39 26 13 24 13 29 -2 53 -10 14 -26 26 -37 26 -11 0 -27 -12 -37 -26z m62 -13
c8 -26 -4 -51 -25 -51 -21 0 -33 25 -25 51 8 24 42 24 50 0z"/>
<path d="M3540 2144 c0 -64 17 -73 22 -12 2 31 8 44 21 46 14 3 17 -4 17 -42
0 -26 5 -46 11 -46 6 0 9 21 7 53 l-3 52 -37 1 -38 1 0 -53z"/>
<path d="M3710 2145 c0 -30 5 -55 10 -55 6 0 10 25 10 55 0 30 -4 55 -10 55
-5 0 -10 -25 -10 -55z"/>
<path d="M3767 2194 c-17 -18 -6 -46 23 -57 42 -16 37 -31 -7 -22 -33 6 -35 5
-24 -9 17 -20 55 -21 71 -1 17 20 6 43 -25 51 -14 3 -25 11 -25 16 0 6 11 7
26 4 19 -5 25 -3 22 6 -5 14 -50 23 -61 12z"/>
<path d="M3920 2185 c-11 -13 -8 -14 21 -10 l34 5 -33 -15 c-27 -13 -33 -20
-30 -43 3 -24 7 -27 41 -28 l37 -1 0 47 c0 34 -4 50 -16 54 -25 10 -41 7 -54
-9z m48 -52 c-4 -22 -38 -30 -38 -10 0 14 13 24 33 26 5 1 7 -7 5 -16z"/>
<path d="M4082 2188 c-7 -7 -12 -26 -12 -43 0 -34 15 -55 41 -55 21 0 44 26
30 34 -5 3 -11 1 -13 -6 -8 -24 -38 1 -38 32 0 30 21 42 35 20 4 -6 11 -8 16
-4 14 8 -9 34 -30 34 -9 0 -22 -5 -29 -12z"/>
<path d="M4293 2174 c-15 -24 -15 -29 -2 -53 18 -31 50 -38 70 -15 12 15 11
16 -17 10 -24 -5 -33 -3 -37 8 -5 13 1 16 28 16 39 0 46 17 19 44 -22 23 -41
20 -61 -10z m52 -4 c4 -6 -5 -10 -20 -10 -15 0 -24 4 -20 10 3 6 12 10 20 10
8 0 17 -4 20 -10z"/>
<path d="M4390 2143 c0 -63 18 -72 22 -11 2 31 8 44 21 46 14 3 17 -4 17 -42
0 -58 18 -61 22 -3 2 29 8 42 18 42 10 0 16 -13 18 -42 2 -24 7 -43 13 -43 14
0 11 88 -3 97 -7 4 -39 8 -70 9 l-58 0 0 -53z"/>
<path d="M4560 2145 c0 -30 5 -55 10 -55 6 0 10 25 10 55 0 30 -4 55 -10 55
-5 0 -10 -25 -10 -55z"/>
<path d="M4622 2188 c-7 -7 -12 -26 -12 -43 0 -34 15 -55 40 -55 24 0 43 17
35 30 -6 9 -9 9 -15 0 -13 -21 -40 -3 -40 25 0 27 31 48 38 27 2 -7 8 -9 13
-6 14 8 -9 34 -30 34 -9 0 -22 -5 -29 -12z"/>
<path d="M4720 2185 c-11 -13 -8 -14 21 -10 l34 5 -33 -15 c-27 -13 -33 -20
-30 -43 3 -24 7 -27 41 -28 l37 -1 0 47 c0 34 -4 50 -16 54 -25 10 -41 7 -54
-9z m48 -52 c-4 -22 -38 -30 -38 -10 0 14 13 24 33 26 5 1 7 -7 5 -16z"/>
<path d="M4920 2143 c0 -29 5 -53 10 -53 6 0 10 10 10 23 0 38 12 67 26 67 8
0 14 4 14 8 0 5 -13 9 -30 9 -30 0 -30 -1 -30 -54z"/>
<path d="M5006 2185 c-36 -36 -9 -103 37 -91 35 8 35 25 1 23 -15 -1 -29 3
-31 10 -3 7 9 13 31 15 34 3 35 4 23 28 -15 30 -39 36 -61 15z m49 -15 c4 -6
-5 -10 -20 -10 -15 0 -24 4 -20 10 3 6 12 10 20 10 8 0 17 -4 20 -10z"/>
<path d="M5107 2194 c-15 -15 -6 -24 18 -18 33 8 32 -4 0 -16 -53 -20 -39 -69
18 -67 l32 1 -5 50 c-4 46 -8 51 -30 54 -14 2 -29 0 -33 -4z m43 -64 c0 -19
-20 -27 -33 -13 -8 7 11 33 24 33 5 0 9 -9 9 -20z"/>
<path d="M5216 2184 c-34 -33 -7 -99 37 -92 33 5 33 27 0 25 -24 -2 -28 2 -31
26 -4 30 24 50 38 27 5 -8 9 -9 14 -1 19 30 -31 43 -58 15z"/>
<path d="M5370 2145 c0 -30 5 -55 10 -55 6 0 10 25 10 55 0 30 -4 55 -10 55
-5 0 -10 -25 -10 -55z"/>
<path d="M5436 2184 c-30 -30 -10 -94 29 -94 21 0 45 29 45 55 0 26 -24 55
-45 55 -7 0 -21 -7 -29 -16z m49 -39 c0 -23 -4 -30 -20 -30 -21 0 -31 25 -21
51 11 28 41 12 41 -21z"/>
<path d="M5540 2144 c0 -64 17 -73 22 -12 2 31 8 44 21 46 14 3 17 -4 17 -42
0 -26 5 -46 11 -46 6 0 9 21 7 53 l-3 52 -37 1 -38 1 0 -53z"/>
<path d="M5887 2194 c-15 -15 -6 -24 18 -18 33 8 32 -4 0 -16 -53 -20 -39 -69
18 -67 l32 1 -5 50 c-4 46 -8 51 -30 54 -14 2 -29 0 -33 -4z m43 -64 c0 -19
-20 -27 -33 -13 -8 7 11 33 24 33 5 0 9 -9 9 -20z"/>
<path d="M6100 2144 c0 -30 5 -54 10 -54 6 0 10 20 10 45 0 33 4 45 15 45 8 0
15 4 15 9 0 5 -11 9 -25 9 -24 0 -25 -4 -25 -54z"/>
<path d="M6182 2188 c-7 -7 -12 -26 -12 -43 0 -50 42 -74 70 -40 11 13 8 14
-19 9 -24 -5 -31 -3 -31 10 0 11 9 16 30 16 32 0 36 9 20 41 -12 21 -40 25
-58 7z m48 -18 c0 -5 -9 -10 -20 -10 -11 0 -20 5 -20 10 0 6 9 10 20 10 11 0
20 -4 20 -10z"/>
<path d="M6336 2185 c-36 -36 -9 -103 37 -91 35 8 35 25 1 23 -15 -1 -29 3
-31 10 -3 7 9 13 31 15 34 3 35 4 23 28 -15 30 -39 36 -61 15z m49 -15 c4 -6
-5 -10 -20 -10 -15 0 -24 4 -20 10 3 6 12 10 20 10 8 0 17 -4 20 -10z"/>
<path d="M6443 2193 c-24 -9 -13 -23 12 -17 33 8 32 -4 -1 -16 -20 -8 -25 -16
-22 -38 3 -24 7 -27 41 -28 36 -1 37 0 37 33 0 60 -24 84 -67 66z m47 -47 c0
-16 -14 -36 -26 -36 -14 0 -19 22 -7 33 7 8 33 10 33 3z"/>
<path d="M6540 2185 c-17 -20 -6 -43 25 -51 38 -9 31 -28 -7 -20 -30 6 -32 5
-16 -10 25 -25 68 -11 68 21 0 20 -6 27 -30 32 -16 3 -30 10 -30 16 0 5 13 7
31 3 27 -5 30 -4 19 9 -16 19 -44 19 -60 0z"/>
<path d="M6643 2174 c-15 -24 -15 -29 -2 -53 18 -31 50 -38 70 -15 12 15 11
16 -17 10 -24 -5 -33 -3 -37 8 -5 13 1 16 28 16 39 0 46 17 19 44 -22 23 -41
20 -61 -10z m52 -4 c4 -6 -5 -10 -20 -10 -15 0 -24 4 -20 10 3 6 12 10 20 10
8 0 17 -4 20 -10z"/>
<path d="M6747 2194 c-17 -18 -6 -46 23 -57 39 -15 39 -31 -1 -23 -22 4 -29 2
-27 -7 6 -17 46 -21 64 -7 23 20 16 41 -16 53 -37 14 -40 32 -4 23 19 -5 25
-3 22 6 -5 14 -50 23 -61 12z"/>
<path d="M6903 2174 c-15 -24 -15 -29 -2 -53 18 -31 50 -38 70 -15 12 15 11
16 -17 10 -24 -5 -33 -3 -37 8 -5 13 1 16 28 16 39 0 46 17 19 44 -22 23 -41
20 -61 -10z m52 -4 c4 -6 -5 -10 -20 -10 -15 0 -24 4 -20 10 3 6 12 10 20 10
8 0 17 -4 20 -10z"/>
<path d="M7000 2144 c0 -64 17 -73 22 -11 2 34 7 42 23 42 16 0 21 -8 23 -42
4 -53 22 -57 22 -5 0 51 -13 67 -55 68 l-35 1 0 -53z"/>
<path d="M7126 2185 c-36 -36 -9 -103 37 -91 35 8 35 25 1 23 -15 -1 -29 3
-31 10 -3 7 9 13 31 15 34 3 35 4 23 28 -15 30 -39 36 -61 15z m49 -15 c4 -6
-5 -10 -20 -10 -15 0 -24 4 -20 10 3 6 12 10 20 10 8 0 17 -4 20 -10z"/>
<path d="M7220 2143 c0 -29 5 -53 10 -53 6 0 10 18 10 41 0 32 4 42 20 46 30
8 24 22 -10 21 -29 -1 -30 -2 -30 -55z"/>
<path d="M7298 2174 c-18 -39 1 -79 35 -77 19 1 27 -3 27 -14 0 -12 -7 -14
-31 -9 -22 4 -29 2 -27 -7 6 -17 46 -21 64 -7 9 9 14 33 14 74 l0 62 -36 1
c-28 1 -38 -4 -46 -23z m57 -29 c0 -23 -4 -30 -20 -30 -21 0 -31 25 -21 51 11
28 41 12 41 -21z"/>
<path d="M7403 2183 c28 -84 32 -106 20 -110 -18 -6 -16 -23 1 -23 8 0 23 23
34 53 31 83 34 97 23 97 -6 0 -14 -15 -19 -32 -10 -40 -24 -40 -36 1 -5 17
-13 31 -19 31 -5 0 -7 -8 -4 -17z"/>
<path d="M7673 2183 c28 -84 32 -106 20 -110 -18 -6 -16 -23 1 -23 8 0 23 23
34 53 31 83 34 97 23 97 -6 0 -14 -15 -19 -32 -10 -40 -24 -40 -36 1 -5 17
-13 31 -19 31 -5 0 -7 -8 -4 -17z"/>
<path d="M7830 2143 c0 -29 5 -53 10 -53 6 0 10 10 10 23 0 38 12 67 26 67 8
0 14 4 14 8 0 5 -13 9 -30 9 -30 0 -30 -1 -30 -54z"/>
<path d="M7917 2194 c-14 -15 -6 -21 19 -16 19 3 25 1 20 -7 -4 -6 -13 -11
-20 -11 -21 0 -38 -27 -31 -49 5 -17 14 -20 41 -18 l35 2 -3 50 c-3 45 -5 50
-28 53 -14 2 -29 0 -33 -4z m41 -61 c-4 -22 -38 -30 -38 -10 0 14 13 24 33 26
5 1 7 -7 5 -16z"/>
<path d="M8130 2145 c0 -30 5 -55 10 -55 6 0 10 25 10 55 0 30 -4 55 -10 55
-5 0 -10 -25 -10 -55z"/>
<path d="M8187 2194 c-14 -15 -6 -21 19 -16 19 3 25 1 20 -7 -4 -6 -13 -11
-20 -11 -21 0 -38 -27 -31 -49 5 -17 14 -20 41 -18 l35 2 -3 50 c-3 45 -5 50
-28 53 -14 2 -29 0 -33 -4z m41 -61 c-4 -22 -38 -30 -38 -10 0 14 13 24 33 26
5 1 7 -7 5 -16z"/>
<path d="M8350 2145 c0 -30 5 -55 10 -55 6 0 10 25 10 55 0 30 -4 55 -10 55
-5 0 -10 -25 -10 -55z"/>
<path d="M8400 2144 c0 -64 17 -73 22 -12 2 31 8 44 21 46 14 3 17 -4 17 -42
0 -26 5 -46 11 -46 6 0 9 21 7 53 l-3 52 -37 1 -38 1 0 -53z"/>
<path d="M8521 2187 c-16 -16 -14 -72 4 -87 8 -6 23 -9 36 -5 16 5 20 3 17 -6
-3 -9 -17 -13 -38 -11 -28 2 -31 0 -20 -13 15 -18 51 -20 68 -3 7 7 12 39 12
73 l0 61 -34 1 c-19 1 -39 -4 -45 -10z m54 -42 c0 -23 -4 -30 -20 -30 -21 0
-31 25 -21 51 11 28 41 12 41 -21z"/>
<path d="M8686 2185 c-36 -36 -9 -103 37 -91 35 8 35 25 1 23 -15 -1 -29 3
-31 10 -3 7 9 13 31 15 34 3 35 4 23 28 -15 30 -39 36 -61 15z m49 -15 c4 -6
-5 -10 -20 -10 -15 0 -24 4 -20 10 3 6 12 10 20 10 8 0 17 -4 20 -10z"/>
<path d="M8842 2188 c-7 -7 -12 -26 -12 -43 0 -50 42 -74 70 -40 11 13 8 14
-19 9 -24 -5 -31 -3 -31 10 0 11 9 16 30 16 32 0 36 9 20 41 -12 21 -40 25
-58 7z m48 -18 c0 -5 -9 -10 -20 -10 -11 0 -20 5 -20 10 0 6 9 10 20 10 11 0
20 -4 20 -10z"/>
<path d="M8944 2174 c-16 -24 -16 -29 -3 -53 8 -14 23 -27 32 -29 22 -4 49 16
41 30 -4 6 -10 6 -17 -1 -26 -26 -56 5 -41 43 5 13 13 16 31 11 18 -4 24 -2
21 7 -8 25 -46 20 -64 -8z"/>
<path d="M9100 2143 c0 -29 5 -53 10 -53 6 0 10 10 10 23 0 38 12 67 26 67 8
0 14 4 14 8 0 5 -13 9 -30 9 -30 0 -30 -1 -30 -54z"/>
<path d="M9180 2145 c0 -30 5 -55 10 -55 6 0 10 25 10 55 0 30 -4 55 -10 55
-5 0 -10 -25 -10 -55z"/>
<path d="M9242 2188 c-7 -7 -12 -26 -12 -43 0 -34 15 -55 41 -55 21 0 44 26
30 34 -5 3 -11 1 -13 -6 -8 -24 -38 1 -38 32 0 30 21 42 35 20 4 -6 11 -8 16
-4 14 8 -9 34 -30 34 -9 0 -22 -5 -29 -12z"/>
<path d="M9330 2145 c0 -30 5 -55 10 -55 6 0 10 25 10 55 0 30 -4 55 -10 55
-5 0 -10 -25 -10 -55z"/>
<path d="M9540 2105 c0 -8 5 -15 10 -15 6 0 10 7 10 15 0 8 -4 15 -10 15 -5 0
-10 -7 -10 -15z"/>
<path d="M5101 1936 c-13 -7 -30 -24 -37 -37 -17 -30 -18 -110 -2 -144 22 -48
52 -55 228 -55 172 0 212 9 225 50 8 26 22 26 30 0 14 -43 51 -50 259 -50 130
0 204 4 221 12 35 16 55 57 55 113 0 56 -20 97 -55 113 -17 8 -91 12 -221 12
-208 0 -245 -7 -259 -50 -8 -26 -22 -26 -30 0 -13 41 -53 50 -227 50 -116 -1
-170 -5 -187 -14z m384 -31 c21 -20 25 -34 25 -80 0 -46 -4 -60 -25 -80 -24
-25 -27 -25 -195 -25 -168 0 -171 0 -195 25 -21 20 -25 34 -25 80 0 46 4 60
25 80 24 25 27 25 195 25 168 0 171 0 195 -25z m550 0 c21 -20 25 -34 25 -80
0 -46 -4 -60 -25 -80 -24 -25 -25 -25 -230 -25 -205 0 -206 0 -230 25 -21 20
-25 34 -25 80 0 46 4 60 25 80 24 25 25 25 230 25 205 0 206 0 230 -25z"/>
<path d="M5147 1893 c19 -4 23 -12 26 -61 l3 -57 2 57 c2 50 5 57 25 61 12 2
0 4 -28 4 -27 0 -40 -2 -28 -4z"/>
<path d="M5231 1820 l1 -45 8 39 c4 21 13 42 21 47 10 6 7 8 -9 6 -19 -1 -22
-6 -21 -47z"/>
<path d="M5294 1828 c1 -40 3 -43 29 -44 26 -1 27 1 26 45 l-2 46 -6 -40 c-9
-57 -38 -61 -44 -6 l-4 41 1 -42z"/>
<path d="M5378 1845 c-8 -19 -9 -31 -1 -43 12 -20 55 -23 59 -4 1 7 0 8 -3 2
-7 -15 -40 -12 -47 5 -4 11 2 15 25 15 26 0 30 3 27 23 -5 34 -45 35 -60 2z
m50 -2 c2 -8 -6 -13 -22 -13 -19 0 -24 4 -19 15 6 18 34 16 41 -2z"/>
<path d="M5631 1838 c1 -35 4 -51 6 -36 3 20 11 28 31 31 l27 4 -27 2 c-23 1
-28 6 -28 25 0 20 6 25 33 29 31 4 31 4 -5 5 l-38 2 1 -62z"/>
<path d="M5813 1840 c0 -36 2 -50 4 -32 2 17 2 47 0 65 -2 17 -4 3 -4 -33z"/>
<path d="M5727 1863 c-4 -3 -7 -11 -7 -17 0 -6 5 -5 12 2 14 14 38 16 38 2 0
-5 -11 -13 -26 -16 -18 -5 -24 -12 -22 -28 2 -16 10 -21 36 -21 28 -1 32 2 32
26 0 42 -10 59 -34 59 -13 0 -26 -3 -29 -7z m40 -58 c-4 -8 -13 -15 -22 -15
-21 0 -19 28 3 32 22 5 26 2 19 -17z"/>
<path d="M5845 1860 c-9 -14 3 -30 32 -41 30 -11 20 -33 -13 -26 -13 2 -21 0
-18 -4 8 -13 40 -11 52 4 14 16 4 32 -26 41 -27 9 -18 30 9 23 11 -3 17 -1 13
4 -7 12 -41 11 -49 -1z"/>
<path d="M5928 1845 c-8 -19 -9 -31 -1 -43 12 -20 55 -23 59 -4 1 7 0 8 -3 2
-7 -15 -40 -12 -47 5 -4 11 2 15 25 15 26 0 30 3 27 23 -5 34 -45 35 -60 2z
m50 -2 c2 -8 -6 -13 -22 -13 -19 0 -24 4 -19 15 6 18 34 16 41 -2z"/>
<path d="M3418 1050 c9 -41 21 -70 28 -70 6 0 17 22 24 50 7 27 15 48 20 45 4
-2 13 -25 19 -51 15 -57 32 -53 48 12 14 63 15 84 4 84 -6 0 -13 -20 -17 -45
-3 -25 -10 -45 -14 -45 -4 0 -11 19 -16 43 -11 53 -35 56 -49 5 -15 -54 -23
-55 -30 -4 -4 26 -13 46 -19 46 -10 0 -9 -16 2 -70z"/>
<path d="M3590 1050 c0 -76 17 -97 22 -27 2 34 7 42 23 42 16 0 21 -8 23 -42
4 -52 22 -58 22 -7 0 52 -16 77 -46 70 -19 -5 -24 -3 -24 14 0 11 -4 20 -10
20 -6 0 -10 -30 -10 -70z"/>
<path d="M3710 1110 c0 -5 5 -10 10 -10 6 0 10 5 10 10 0 6 -4 10 -10 10 -5 0
-10 -4 -10 -10z"/>
<path d="M3860 1050 c0 -76 17 -97 22 -27 2 34 7 42 23 42 16 0 21 -8 23 -42
4 -52 22 -58 22 -7 0 52 -16 77 -46 70 -19 -5 -24 -3 -24 14 0 11 -4 20 -10
20 -6 0 -10 -30 -10 -70z"/>
<path d="M4260 1052 l0 -69 30 -1 c38 -1 64 34 54 72 -6 26 -35 43 -54 31 -5
-3 -10 3 -10 14 0 12 -4 21 -10 21 -6 0 -10 -29 -10 -68z m65 -1 c8 -26 -5
-53 -24 -49 -10 2 -17 15 -19 36 -3 26 0 32 17 32 11 0 22 -8 26 -19z"/>
<path d="M4370 1050 c0 -40 4 -70 10 -70 6 0 10 30 10 70 0 40 -4 70 -10 70
-6 0 -10 -30 -10 -70z"/>
<path d="M4950 1050 c0 -76 17 -97 22 -27 2 34 7 42 23 42 16 0 21 -8 23 -42
4 -52 22 -58 22 -7 0 52 -16 77 -46 70 -19 -5 -24 -3 -24 14 0 11 -4 20 -10
20 -6 0 -10 -30 -10 -70z"/>
<path d="M5390 1050 c0 -76 17 -97 22 -28 2 31 8 44 21 46 14 3 17 -4 17 -42
0 -26 5 -46 11 -46 6 0 9 21 7 53 -3 50 -4 52 -30 50 -22 -1 -28 3 -28 18 0
10 -4 19 -10 19 -6 0 -10 -30 -10 -70z"/>
<path d="M5660 1050 c0 -40 4 -70 10 -70 6 0 10 30 10 70 0 40 -4 70 -10 70
-6 0 -10 -30 -10 -70z"/>
<path d="M6740 1110 c0 -5 5 -10 10 -10 6 0 10 5 10 10 0 6 -4 10 -10 10 -5 0
-10 -4 -10 -10z"/>
<path d="M7340 1052 l0 -69 33 0 c43 0 57 13 57 52 0 38 -21 59 -50 50 -16 -5
-20 -2 -20 14 0 12 -4 21 -10 21 -6 0 -10 -29 -10 -68z m70 -17 c0 -28 -4 -35
-19 -35 -10 0 -22 7 -25 16 -10 26 3 54 25 54 15 0 19 -7 19 -35z"/>
<path d="M7645 1104 c-9 -9 -13 -19 -10 -22 3 -3 11 0 17 6 16 16 48 15 48 -2
0 -7 -7 -19 -15 -26 -15 -12 -21 -40 -9 -40 11 0 43 45 44 61 0 37 -46 51 -75
23z"/>
<path d="M5332 1097 c-5 -7 -6 -34 -3 -62 4 -36 11 -51 24 -53 9 -2 17 1 17 7
0 6 -4 11 -10 11 -15 0 -12 68 2 72 9 3 8 9 -4 21 -12 13 -18 14 -26 4z"/>
<path d="M6182 1098 c-10 -10 -9 -31 4 -95 4 -22 34 -33 34 -13 0 6 -4 10 -10
10 -15 0 -12 68 2 72 10 4 9 9 -3 21 -12 11 -19 13 -27 5z"/>
<path d="M6402 1097 c-5 -7 -6 -34 -3 -62 4 -36 11 -51 24 -53 9 -2 17 1 17 7
0 6 -4 11 -10 11 -15 0 -12 68 2 72 9 3 8 9 -4 21 -12 13 -18 14 -26 4z"/>
<path d="M3710 1035 c0 -30 5 -55 10 -55 6 0 10 25 10 55 0 30 -4 55 -10 55
-5 0 -10 -25 -10 -55z"/>
<path d="M3764 1064 c-16 -24 -16 -29 -3 -53 8 -14 23 -27 32 -29 22 -4 49 16
41 30 -4 6 -10 6 -17 -1 -26 -26 -56 5 -41 43 5 13 13 16 31 11 18 -4 24 -2
21 7 -8 25 -46 20 -64 -8z"/>
<path d="M4030 1034 c0 -64 17 -73 22 -12 2 31 8 44 21 46 14 3 17 -4 17 -42
0 -26 5 -46 11 -46 6 0 9 21 7 53 l-3 52 -37 1 -38 1 0 -53z"/>
<path d="M4156 1074 c-30 -30 -10 -94 29 -94 21 0 45 29 45 55 0 26 -24 55
-45 55 -7 0 -21 -7 -29 -16z m49 -39 c0 -23 -4 -30 -20 -30 -21 0 -31 25 -21
51 11 28 41 12 41 -21z"/>
<path d="M4432 1078 c-7 -7 -12 -26 -12 -43 0 -50 42 -74 70 -40 11 13 8 14
-19 9 -24 -5 -31 -3 -31 10 0 11 9 16 30 16 32 0 36 9 20 41 -12 21 -40 25
-58 7z m48 -18 c0 -5 -9 -10 -20 -10 -11 0 -20 5 -20 10 0 6 9 10 20 10 11 0
20 -4 20 -10z"/>
<path d="M4591 1077 c-16 -16 -14 -72 4 -87 8 -6 23 -9 36 -5 16 5 20 3 17 -6
-3 -9 -17 -13 -37 -11 -32 2 -42 -11 -15 -22 52 -20 74 5 74 86 l0 54 -34 1
c-19 1 -39 -4 -45 -10z m54 -18 c12 -19 -4 -61 -23 -57 -30 6 -28 68 2 68 8 0
18 -5 21 -11z"/>
<path d="M4703 1083 c-24 -9 -13 -23 12 -17 33 8 32 -4 -1 -16 -20 -8 -25 -16
-22 -38 3 -24 7 -27 41 -28 36 -1 37 0 37 33 0 60 -24 84 -67 66z m47 -47 c0
-16 -14 -36 -26 -36 -14 0 -19 22 -7 33 7 8 33 10 33 3z"/>
<path d="M4802 1078 c-20 -20 -13 -39 18 -49 41 -15 39 -33 -2 -25 -30 6 -32
5 -16 -10 24 -24 68 -11 68 20 0 18 -8 27 -30 35 -39 13 -39 25 1 17 27 -5 30
-4 19 9 -15 18 -42 19 -58 3z"/>
<path d="M5077 1084 c-14 -15 -6 -21 19 -16 19 3 25 1 20 -7 -4 -6 -13 -11
-20 -11 -21 0 -38 -27 -31 -49 5 -17 14 -20 41 -18 l35 2 -3 50 c-3 45 -5 50
-28 53 -14 2 -29 0 -33 -4z m41 -61 c-4 -22 -38 -30 -38 -10 0 14 13 24 33 26
5 1 7 -7 5 -16z"/>
<path d="M5177 1084 c-17 -18 -6 -46 23 -57 39 -15 39 -31 -1 -23 -22 4 -29 2
-27 -7 6 -17 46 -21 64 -7 23 20 16 41 -16 53 -37 14 -40 32 -4 23 19 -5 25
-3 22 6 -5 14 -50 23 -61 12z"/>
<path d="M5512 1078 c-7 -7 -12 -26 -12 -43 0 -50 42 -74 70 -41 10 13 7 15
-16 13 -15 -1 -29 4 -31 11 -3 8 6 12 26 12 23 0 31 5 31 18 0 22 -19 42 -40
42 -9 0 -21 -5 -28 -12z m48 -18 c0 -5 -9 -10 -20 -10 -11 0 -20 5 -20 10 0 6
9 10 20 10 11 0 20 -4 20 -10z"/>
<path d="M5726 1074 c-30 -30 -10 -94 29 -94 21 0 45 29 45 55 0 26 -24 55
-45 55 -7 0 -21 -7 -29 -16z m49 -39 c0 -23 -4 -30 -20 -30 -21 0 -31 25 -21
51 11 28 41 12 41 -21z"/>
<path d="M5825 1058 c19 -86 38 -100 52 -40 l10 37 9 -34 c14 -49 29 -48 43 0
7 22 15 47 18 55 3 8 0 14 -6 14 -6 0 -14 -14 -18 -30 -8 -44 -20 -45 -27 -4
-9 43 -27 40 -40 -7 l-10 -34 -10 38 c-12 45 -30 50 -21 5z"/>
<path d="M5982 1078 c-7 -7 -12 -26 -12 -43 0 -50 42 -74 70 -40 11 13 8 14
-19 9 -24 -5 -31 -3 -31 10 0 11 9 16 30 16 32 0 36 9 20 41 -12 21 -40 25
-58 7z m48 -18 c0 -5 -9 -10 -20 -10 -11 0 -20 5 -20 10 0 6 9 10 20 10 11 0
20 -4 20 -10z"/>
<path d="M6080 1075 c-17 -20 -6 -43 25 -51 38 -9 31 -28 -7 -20 -30 6 -32 5
-16 -10 25 -25 68 -11 68 21 0 20 -6 27 -30 32 -16 3 -30 10 -30 16 0 5 13 7
31 3 27 -5 30 -4 19 9 -16 19 -44 19 -60 0z"/>
<path d="M6300 1075 c-11 -13 -8 -14 21 -10 l34 5 -33 -15 c-27 -13 -33 -20
-30 -43 3 -24 7 -27 41 -28 l37 -1 0 47 c0 34 -4 50 -16 54 -25 10 -41 7 -54
-9z m48 -52 c-4 -22 -38 -30 -38 -10 0 14 13 24 33 26 5 1 7 -7 5 -16z"/>
<path d="M6472 1078 c-20 -20 -15 -76 7 -88 11 -5 24 -10 30 -10 18 0 41 31
41 55 0 44 -50 71 -78 43z m53 -43 c0 -23 -4 -30 -20 -30 -21 0 -31 25 -21 51
11 28 41 12 41 -21z"/>
<path d="M6570 1033 c0 -63 18 -72 22 -11 2 31 8 44 21 46 14 3 17 -4 17 -42
0 -58 18 -61 22 -4 2 31 8 44 21 46 14 3 17 -4 17 -42 0 -26 5 -46 11 -46 6 0
9 21 7 53 l-3 52 -67 1 -68 0 0 -53z"/>
<path d="M6740 1035 c0 -30 5 -55 10 -55 6 0 10 25 10 55 0 30 -4 55 -10 55
-5 0 -10 -25 -10 -55z"/>
<path d="M6802 1078 c-7 -7 -12 -26 -12 -43 0 -34 15 -55 40 -55 24 0 43 17
35 30 -6 9 -9 9 -15 0 -13 -21 -40 -3 -40 25 0 27 31 48 38 27 2 -7 8 -9 13
-6 14 8 -9 34 -30 34 -9 0 -22 -5 -29 -12z"/>
<path d="M6950 1034 c0 -64 17 -73 22 -12 2 31 8 44 21 46 14 3 17 -4 17 -42
0 -26 5 -46 11 -46 6 0 9 21 7 53 l-3 52 -37 1 -38 1 0 -53z"/>
<path d="M7072 1038 l3 -53 38 -1 37 -1 0 53 c0 64 -17 73 -22 12 -2 -31 -8
-44 -20 -46 -15 -3 -18 4 -18 42 0 26 -5 46 -11 46 -6 0 -9 -21 -7 -52z"/>
<path d="M7170 1033 c0 -29 5 -53 10 -53 6 0 10 13 10 29 0 39 9 61 26 61 10
0 14 -13 14 -45 0 -25 5 -45 10 -45 6 0 10 13 10 29 0 39 9 61 26 61 10 0 14
-13 14 -45 0 -25 5 -45 11 -45 6 0 9 21 7 53 l-3 52 -67 1 -68 0 0 -53z"/>
<path d="M7463 1064 c-15 -24 -15 -29 -2 -53 18 -31 50 -38 70 -15 12 15 11
16 -17 10 -24 -5 -33 -3 -37 8 -5 13 1 16 28 16 39 0 46 17 19 44 -22 23 -41
20 -61 -10z m52 -4 c4 -6 -5 -10 -20 -10 -15 0 -24 4 -20 10 3 6 12 10 20 10
8 0 17 -4 20 -10z"/>
<path d="M7560 1033 c0 -29 5 -53 10 -53 6 0 10 18 10 41 0 32 4 42 20 46 30
8 24 22 -10 21 -29 -1 -30 -2 -30 -55z"/>
<path d="M7670 995 c0 -8 5 -15 10 -15 6 0 10 7 10 15 0 8 -4 15 -10 15 -5 0
-10 -7 -10 -15z"/>
<path d="M4371 826 c-13 -7 -30 -24 -37 -37 -17 -30 -18 -110 -2 -144 22 -49
50 -55 258 -55 204 0 241 7 255 50 8 26 22 26 30 0 14 -44 50 -50 280 -50 230
0 266 6 280 50 8 26 22 26 30 0 14 -45 46 -50 340 -50 294 0 326 5 340 50 8
26 22 26 30 0 14 -45 48 -50 310 -50 267 0 290 4 313 55 7 14 12 46 12 70 0
24 -5 56 -12 70 -23 51 -46 55 -313 55 -262 0 -296 -5 -310 -50 -8 -26 -22
-26 -30 0 -14 45 -46 50 -340 50 -294 0 -326 -5 -340 -50 -8 -26 -22 -26 -30
0 -14 44 -50 50 -280 50 -230 0 -266 -6 -280 -50 -8 -26 -22 -26 -30 0 -14 43
-51 50 -257 50 -141 -1 -199 -4 -217 -14z m444 -31 c21 -20 25 -34 25 -80 0
-46 -4 -60 -25 -80 -24 -25 -25 -25 -225 -25 -200 0 -201 0 -225 25 -21 20
-25 34 -25 80 0 46 4 60 25 80 24 25 25 25 225 25 200 0 201 0 225 -25z m590
0 c21 -20 25 -34 25 -80 0 -46 -4 -60 -25 -80 l-24 -25 -226 0 -226 0 -24 25
c-21 20 -25 34 -25 80 0 46 4 60 25 80 l24 25 226 0 226 0 24 -25z m710 0 c21
-20 25 -34 25 -80 0 -46 -4 -60 -25 -80 l-24 -25 -286 0 -286 0 -24 25 c-21
20 -25 34 -25 80 0 46 4 60 25 80 l24 25 286 0 286 0 24 -25z m650 0 c21 -20
25 -34 25 -80 0 -46 -4 -60 -25 -80 l-24 -25 -256 0 -256 0 -24 25 c-21 20
-25 34 -25 80 0 46 4 60 25 80 l24 25 256 0 256 0 24 -25z"/>
<path d="M4412 728 l1 -63 6 50 6 50 30 -47 c17 -27 33 -48 38 -48 4 0 6 28 5
63 l-1 62 -6 -50 -6 -50 -30 47 c-17 26 -33 48 -37 48 -5 0 -7 -28 -6 -62z"/>
<path d="M4530 746 c-15 -20 -9 -56 12 -70 14 -8 21 -6 35 9 16 17 17 18 1 6
-19 -14 -48 -9 -48 9 0 5 14 10 30 10 31 0 39 17 18 38 -16 16 -33 15 -48 -2z
m48 -13 c2 -8 -6 -13 -22 -13 -25 0 -33 10 -19 24 10 10 36 3 41 -11z"/>
<path d="M4620 746 c-15 -19 -9 -56 12 -69 34 -22 66 41 36 71 -16 16 -33 15
-48 -2z m45 -31 c0 -23 -4 -30 -20 -30 -21 0 -31 25 -21 51 11 28 41 12 41
-21z"/>
<path d="M4701 710 l1 -45 8 38 c8 44 14 51 35 44 9 -4 16 -20 16 -44 1 -25 3
-30 6 -14 3 12 2 34 -1 47 -5 20 -12 24 -36 22 -29 -2 -30 -4 -29 -48z"/>
<path d="M4962 733 c-12 -31 -19 -59 -16 -62 3 -3 7 5 11 17 8 31 56 30 71 0
18 -38 13 -7 -7 47 -10 27 -23 51 -28 52 -6 2 -19 -22 -31 -54z m44 -10 c-2
-3 -11 -3 -19 -1 -11 2 -12 9 -5 28 l10 25 9 -24 c5 -13 7 -26 5 -28z"/>
<path d="M5062 710 c1 -40 2 -41 5 -10 2 19 11 40 20 47 13 10 13 12 -6 10
-18 -1 -21 -7 -19 -47z"/>
<path d="M5114 746 c-3 -8 -4 -27 -2 -43 2 -22 8 -28 26 -27 13 0 22 -5 22
-14 0 -10 -8 -13 -25 -10 -13 3 -22 1 -19 -3 7 -12 41 -11 49 1 3 5 9 32 12
60 l6 50 -32 0 c-18 0 -34 -6 -37 -14z m41 -32 c0 -19 -5 -29 -15 -29 -16 0
-25 28 -16 51 10 25 31 10 31 -22z"/>
<path d="M5213 753 c-7 -2 -13 -20 -13 -38 0 -25 5 -35 20 -40 26 -8 50 11 50
39 0 36 -25 53 -57 39z m42 -38 c0 -23 -4 -30 -20 -30 -21 0 -31 25 -21 51 11
28 41 12 41 -21z"/>
<path d="M5291 711 l2 -46 6 40 c4 26 12 41 23 43 13 3 18 -6 21 -40 l4 -43
-1 45 c-1 42 -3 45 -28 46 -27 1 -28 -1 -27 -45z"/>
<path d="M5542 730 c0 -36 3 -56 5 -45 11 43 25 48 46 16 10 -17 24 -31 29
-31 6 0 -1 15 -15 33 l-26 34 27 26 c15 15 22 27 16 27 -6 0 -23 -14 -40 -31
l-29 -31 -6 34 c-5 23 -6 14 -7 -32z"/>
<path d="M5868 768 c-8 -22 7 -91 20 -94 7 -1 8 0 2 3 -12 6 -13 70 -1 75 5 2
3 8 -4 15 -10 9 -15 9 -17 1z"/>
<path d="M5652 713 l1 -48 4 43 c5 57 30 54 52 -6 14 -38 14 -44 1 -53 -12 -9
-12 -10 -1 -7 8 2 23 28 33 58 19 58 18 82 -2 28 l-12 -33 -16 33 c-11 22 -23
32 -39 32 -21 0 -23 -4 -21 -47z"/>
<path d="M5781 695 c1 -33 4 -50 6 -39 3 16 9 20 23 17 14 -4 23 2 31 20 16
34 -3 67 -36 65 -24 -2 -25 -5 -24 -63z m52 41 c9 -24 -4 -57 -22 -54 -29 6
-27 68 3 68 7 0 16 -6 19 -14z"/>
<path d="M5923 753 c-7 -2 -13 -20 -13 -38 0 -25 5 -35 20 -40 26 -8 50 11 50
39 0 36 -25 53 -57 39z m42 -38 c0 -23 -4 -30 -20 -30 -21 0 -31 25 -21 51 11
28 41 12 41 -21z"/>
<path d="M6001 710 l2 -45 6 40 c4 27 12 41 24 43 14 3 17 -4 17 -37 0 -23 5
-41 10 -41 12 0 13 60 2 78 -5 6 -20 11 -35 10 -25 -2 -27 -5 -26 -48z"/>
<path d="M6250 730 c0 -33 4 -60 10 -60 6 0 10 14 10 30 0 27 3 30 29 30 26 0
30 -4 34 -32 2 -18 4 -4 4 32 0 36 -2 53 -4 38 -4 -23 -9 -28 -34 -28 -24 0
-29 4 -29 25 0 14 -4 25 -10 25 -6 0 -10 -27 -10 -60z"/>
<path d="M6453 730 c0 -36 2 -50 4 -32 2 17 2 47 0 65 -2 17 -4 3 -4 -33z"/>
<path d="M6368 735 c-8 -19 -9 -31 -1 -43 12 -20 55 -23 59 -4 1 7 0 8 -3 2
-7 -15 -40 -12 -47 5 -4 11 2 15 25 15 26 0 30 3 27 23 -5 34 -45 35 -60 2z
m50 -2 c2 -8 -6 -13 -22 -13 -19 0 -24 4 -19 15 6 18 34 16 41 -2z"/>
<path d="M6493 715 c0 -27 2 -38 4 -22 2 15 2 37 0 50 -2 12 -4 0 -4 -28z"/>
<path d="M6534 718 c1 -40 3 -43 29 -44 26 -1 27 1 26 45 l-2 46 -6 -40 c-9
-57 -38 -61 -44 -6 l-4 41 1 -42z"/>
<path d="M6611 711 c1 -25 3 -37 6 -26 2 11 6 30 9 43 8 40 34 26 35 -20 l2
-43 6 40 c4 26 12 41 23 43 13 3 18 -6 21 -40 l4 -43 -1 45 -1 45 -52 1 -53 1
1 -46z"/>
<path d="M5056 374 c-23 -23 -23 -265 0 -288 14 -14 74 -16 509 -16 435 0 495
2 509 16 13 12 16 40 16 144 0 104 -3 132 -16 144 -14 14 -74 16 -509 16 -435
0 -495 -2 -509 -16z m153 -87 c17 -21 0 -29 -21 -11 -23 22 -48 3 -48 -36 0
-15 7 -33 15 -40 13 -10 19 -9 35 5 23 21 39 13 20 -10 -16 -20 -64 -19 -80 1
-8 8 -13 28 -13 44 0 16 5 36 13 44 15 20 64 21 79 3z m41 -2 c0 -9 9 -15 24
-15 26 0 36 -16 36 -61 0 -19 -5 -29 -15 -29 -11 0 -15 11 -15 41 0 52 -24 48
-28 -4 -5 -60 -22 -42 -22 23 0 33 4 60 10 60 6 0 10 -7 10 -15z m260 -12 c0
-21 3 -24 12 -15 7 7 19 12 27 12 13 0 13 -2 -1 -17 -15 -14 -15 -19 -2 -45
12 -23 12 -28 1 -28 -8 0 -19 10 -25 23 l-11 22 0 -22 c-1 -13 -5 -23 -11 -23
-6 0 -10 27 -10 60 0 33 4 60 10 60 6 0 10 -12 10 -27z m185 16 c10 -16 -4
-24 -17 -11 -17 17 -38 15 -38 -3 0 -8 16 -21 35 -29 51 -22 41 -66 -14 -66
-31 0 -59 16 -48 26 4 4 13 2 19 -4 19 -19 48 -14 48 8 0 11 -6 20 -14 20 -8
0 -24 8 -37 19 -20 16 -21 21 -10 35 15 18 66 22 76 5z m-307 -31 c9 -9 15 -9
24 0 15 15 45 16 54 1 4 -7 0 -9 -14 -5 -21 7 -31 -13 -24 -47 3 -13 9 -16 24
-11 14 4 18 2 14 -5 -9 -14 -39 -14 -54 1 -8 8 -15 8 -26 -1 -26 -22 -61 -10
-64 22 -2 16 -1 35 2 43 7 17 48 18 64 2z m387 1 c4 -6 0 -9 -11 -7 -15 2 -19
-3 -19 -27 0 -23 4 -29 18 -27 9 2 17 -2 17 -8 0 -6 -12 -10 -27 -8 -22 2 -29
9 -31 31 -2 16 -1 35 2 43 6 16 42 19 51 3z m93 -1 c7 -7 12 -22 12 -34 0 -51
-72 -61 -78 -11 -2 16 -1 35 2 43 7 17 48 18 64 2z m60 1 c-12 -6 -18 -22 -18
-44 0 -19 -4 -35 -10 -35 -5 0 -10 20 -10 45 0 42 2 45 28 45 23 -1 24 -2 10
-11z m80 -1 c21 -21 13 -38 -18 -38 -30 0 -40 -13 -19 -26 6 -3 16 -1 22 5 17
17 31 13 17 -4 -25 -30 -70 -11 -70 30 0 25 18 45 40 45 9 0 21 -5 28 -12z"/>
<path d="M5347 253 c-13 -12 -7 -23 13 -23 13 0 18 5 14 15 -7 16 -17 19 -27
8z"/>
<path d="M5340 211 c0 -19 20 -22 42 -7 22 16 22 16 -10 16 -17 0 -32 -4 -32
-9z"/>
<path d="M5824 246 c-8 -21 -1 -49 13 -53 6 -2 14 5 17 15 12 36 -17 72 -30
38z"/>
<path d="M5967 254 c-13 -13 -7 -24 14 -24 11 0 19 5 17 12 -5 14 -22 21 -31
12z"/>
</g>
</svg>
