<?xml version="1.0" standalone="no"?>
<!DOCTYPE svg PUBLIC "-//W3C//DTD SVG 20010904//EN"
 "http://www.w3.org/TR/2001/REC-SVG-20010904/DTD/svg10.dtd">
<svg version="1.0" xmlns="http://www.w3.org/2000/svg"
 width="786.000000pt" height="394.000000pt" viewBox="0 0 786.000000 394.000000"
 preserveAspectRatio="xMidYMid meet">

<g transform="translate(0.000000,394.000000) scale(0.100000,-0.100000)"
fill="#000000" stroke="none">
<path d="M4134 3605 c-8 -19 3 -35 26 -35 19 0 34 25 24 41 -8 14 -44 10 -50
-6z"/>
<path d="M3260 3580 c0 -17 7 -20 40 -20 l40 0 0 -110 c0 -103 1 -110 20 -110
19 0 20 7 20 110 l0 110 40 0 c33 0 40 3 40 20 0 19 -7 20 -100 20 -93 0 -100
-1 -100 -20z"/>
<path d="M3498 3524 c-51 -27 -57 -115 -11 -166 34 -37 133 -14 133 30 0 17
-35 15 -50 -3 -16 -19 -35 -19 -54 1 -32 31 -20 43 47 46 l62 3 -3 30 c-4 35
-44 75 -75 75 -12 -1 -34 -7 -49 -16z m80 -51 c3 -21 -1 -23 -37 -23 -27 0
-41 4 -41 13 0 41 72 50 78 10z"/>
<path d="M3753 3525 c-14 -10 -24 -12 -28 -5 -3 5 -15 10 -26 10 -17 0 -19 -8
-19 -95 0 -95 0 -95 25 -95 24 0 25 2 25 63 0 49 4 68 18 80 45 41 72 10 72
-82 0 -54 2 -61 20 -61 18 0 20 7 20 79 0 74 -2 81 -26 100 -32 25 -52 26 -81
6z"/>
<path d="M4288 3524 c-51 -27 -57 -115 -11 -166 34 -37 133 -14 133 30 0 17
-35 15 -50 -3 -16 -19 -35 -19 -54 1 -32 31 -20 43 47 46 l62 3 -3 30 c-4 35
-44 75 -75 75 -12 -1 -34 -7 -49 -16z m80 -51 c3 -21 -1 -23 -37 -23 -27 0
-41 4 -41 13 0 41 72 50 78 10z"/>
<path d="M4493 3531 c-50 -22 -36 -82 24 -102 53 -16 66 -28 52 -45 -15 -19
-58 -18 -65 1 -8 19 -44 20 -44 2 0 -27 36 -47 81 -47 49 0 61 6 77 36 15 29
-3 53 -59 74 -54 21 -65 50 -20 50 16 0 33 -4 36 -10 7 -12 45 -14 45 -2 0 36
-79 63 -127 43z"/>
<path d="M3920 3516 c0 -11 14 -16 50 -18 l50 -3 -50 -58 c-28 -32 -50 -67
-50 -78 0 -17 8 -19 75 -19 68 0 75 2 75 19 0 16 -8 20 -46 23 l-46 3 46 56
c66 80 63 89 -29 89 -59 0 -75 -3 -75 -14z"/>
<path d="M4140 3435 c0 -88 1 -95 20 -95 19 0 20 7 20 95 0 88 -1 95 -20 95
-19 0 -20 -7 -20 -95z"/>
<path d="M1120 3029 c0 -5 5 -7 10 -4 6 3 10 8 10 11 0 2 -4 4 -10 4 -5 0 -10
-5 -10 -11z"/>
<path d="M1550 3029 c0 -5 5 -7 10 -4 6 3 10 8 10 11 0 2 -4 4 -10 4 -5 0 -10
-5 -10 -11z"/>
<path d="M2910 3020 c-41 -41 -9 -109 45 -96 14 4 25 11 25 16 0 6 -8 5 -19
-1 -43 -28 -81 35 -44 72 19 19 53 18 53 -2 0 -5 6 -9 13 -9 13 1 -30 40 -44
40 -5 0 -18 -9 -29 -20z"/>
<path d="M4202 3023 c-4 -10 -5 -38 -1 -63 l6 -45 1 43 c1 26 7 42 15 42 8 0
7 4 -3 10 -13 9 -13 11 0 20 9 6 11 10 3 10 -7 0 -16 -8 -21 -17z"/>
<path d="M560 2975 c0 -30 5 -55 10 -55 6 0 10 11 10 25 0 33 24 32 39 -1 6
-15 14 -24 17 -21 3 3 1 13 -4 23 -7 12 -6 23 1 35 12 19 3 49 -15 49 -10 0
-9 -3 1 -9 19 -12 6 -41 -19 -41 -15 0 -20 7 -20 25 0 14 -4 25 -10 25 -5 0
-10 -25 -10 -55z"/>
<path d="M763 2975 c0 -33 2 -45 4 -27 2 18 2 45 0 60 -2 15 -4 0 -4 -33z"/>
<path d="M803 2975 c0 -33 2 -45 4 -27 2 18 2 45 0 60 -2 15 -4 0 -4 -33z"/>
<path d="M1068 3018 c-8 -24 8 -92 22 -96 12 -4 13 -2 3 9 -15 15 -17 51 -4
65 6 5 4 14 -4 21 -10 9 -15 9 -17 1z"/>
<path d="M1163 2975 c0 -33 2 -45 4 -27 2 18 2 45 0 60 -2 15 -4 0 -4 -33z"/>
<path d="M1333 2975 c0 -33 2 -45 4 -27 2 18 2 45 0 60 -2 15 -4 0 -4 -33z"/>
<path d="M1373 2975 c0 -33 2 -45 4 -27 2 18 2 45 0 60 -2 15 -4 0 -4 -33z"/>
<path d="M1520 3014 c0 -11 -6 -13 -19 -9 -19 6 -51 -17 -51 -36 0 -29 22 -49
50 -47 29 2 30 4 30 55 0 29 -2 53 -5 53 -3 0 -5 -7 -5 -16z m-10 -29 c14 -17
4 -55 -14 -55 -25 0 -39 27 -26 49 13 25 23 26 40 6z"/>
<path d="M2108 3018 c-8 -24 8 -92 22 -96 12 -4 13 -2 3 9 -15 15 -17 51 -4
65 6 5 4 14 -4 21 -10 9 -15 9 -17 1z"/>
<path d="M2172 2975 c1 -53 2 -55 7 -20 4 26 11 40 21 40 10 0 17 -14 21 -40
l7 -40 -2 45 c-1 38 -4 45 -21 45 -11 0 -23 7 -27 15 -4 8 -6 -12 -6 -45z"/>
<path d="M3013 2975 c0 -33 2 -45 4 -27 2 18 2 45 0 60 -2 15 -4 0 -4 -33z"/>
<path d="M3183 2975 c0 -33 2 -50 4 -37 5 28 14 28 31 1 7 -12 16 -18 19 -15
4 3 -2 15 -12 26 -17 19 -17 21 1 43 18 21 18 21 -8 -2 l-27 -23 -4 33 c-2 19
-4 7 -4 -26z"/>
<path d="M3580 2975 c0 -32 2 -56 5 -53 7 7 9 97 2 105 -4 3 -7 -20 -7 -52z"/>
<path d="M3780 3014 c0 -10 -6 -13 -19 -9 -24 7 -43 -17 -39 -52 3 -24 8 -28
36 -29 l32 -1 0 54 c0 29 -2 53 -5 53 -3 0 -5 -7 -5 -16z m-10 -29 c17 -20 8
-50 -15 -50 -20 0 -31 25 -21 51 7 18 20 18 36 -1z"/>
<path d="M3998 3018 c-8 -22 7 -91 20 -94 7 -1 8 0 2 3 -12 6 -13 70 -1 75 5
2 3 8 -4 15 -10 9 -15 9 -17 1z"/>
<path d="M4758 3018 c-8 -22 7 -91 20 -94 7 -1 8 0 2 3 -12 6 -13 70 -1 75 5
2 3 8 -4 15 -10 9 -15 9 -17 1z"/>
<path d="M4948 3018 c-8 -24 8 -92 22 -96 12 -4 13 -2 3 9 -15 15 -17 51 -4
65 6 5 4 14 -4 21 -10 9 -15 9 -17 1z"/>
<path d="M6043 2975 c0 -33 2 -45 4 -27 2 18 2 45 0 60 -2 15 -4 0 -4 -33z"/>
<path d="M6311 2980 c-1 -55 -1 -56 29 -58 24 -2 32 3 39 20 14 39 -8 73 -41
62 -10 -3 -18 2 -21 13 -3 10 -5 -7 -6 -37z m54 -16 c0 -22 -5 -29 -20 -29
-23 0 -32 30 -14 51 18 22 34 11 34 -22z"/>
<path d="M6508 3018 c-8 -22 7 -91 20 -94 7 -1 8 0 2 3 -12 6 -13 70 -1 75 5
2 3 8 -4 15 -10 9 -15 9 -17 1z"/>
<path d="M7163 2975 c0 -33 2 -45 4 -27 2 18 2 45 0 60 -2 15 -4 0 -4 -33z"/>
<path d="M7203 2975 c0 -33 2 -45 4 -27 2 18 2 45 0 60 -2 15 -4 0 -4 -33z"/>
<path d="M5091 3011 c-9 -6 -10 -11 -2 -15 6 -4 11 -23 11 -42 0 -19 3 -34 8
-34 7 0 8 87 1 95 -3 2 -11 0 -18 -4z"/>
<path d="M5761 3011 c-9 -6 -10 -11 -2 -15 6 -4 11 -23 11 -42 0 -19 3 -34 8
-34 7 0 8 87 1 95 -3 2 -11 0 -18 -4z"/>
<path d="M670 2996 c-15 -19 -9 -56 11 -69 25 -16 49 -1 49 31 0 46 -35 68
-60 38z m45 -32 c0 -22 -5 -29 -20 -29 -24 0 -34 43 -13 56 21 14 33 4 33 -27z"/>
<path d="M884 2970 c1 -42 3 -45 29 -46 26 -1 27 1 26 45 l-2 46 -6 -40 c-4
-26 -11 -40 -21 -40 -10 0 -17 14 -21 40 l-7 40 2 -45z"/>
<path d="M972 2960 c1 -35 2 -38 5 -13 5 35 29 62 43 47 5 -5 10 -25 13 -44
l4 -35 1 37 c2 39 -9 53 -45 53 -21 1 -23 -3 -21 -45z"/>
<path d="M1123 2965 c0 -27 2 -38 4 -22 2 15 2 37 0 50 -2 12 -4 0 -4 -28z"/>
<path d="M1256 3002 c-3 -5 3 -8 12 -8 26 1 26 -18 0 -24 -14 -4 -23 -13 -23
-25 0 -16 7 -20 33 -21 30 -1 32 1 32 31 0 32 -15 55 -36 55 -7 0 -15 -4 -18
-8z m42 -54 c-5 -15 -48 -24 -48 -10 0 14 12 22 33 22 10 0 17 -5 15 -12z"/>
<path d="M1553 2965 c0 -27 2 -38 4 -22 2 15 2 37 0 50 -2 12 -4 0 -4 -28z"/>
<path d="M1608 2999 c-21 -12 -24 -49 -6 -67 14 -14 44 -16 53 -3 3 6 -7 9
-22 8 -22 -2 -29 3 -31 19 -4 29 23 51 43 34 9 -7 15 -8 15 -2 0 5 -7 13 -16
16 -19 7 -15 8 -36 -5z"/>
<path d="M1692 2998 c-27 -27 -7 -78 29 -78 10 0 20 4 24 9 3 6 -7 9 -21 8
-15 -1 -29 4 -31 11 -3 8 6 12 26 12 19 0 31 5 31 13 0 16 -20 37 -35 37 -6 0
-16 -5 -23 -12z m46 -16 c2 -7 -7 -12 -22 -12 -27 0 -35 15 -13 23 17 7 30 3
35 -11z"/>
<path d="M1836 3001 c-4 -5 3 -7 14 -4 14 4 20 0 20 -10 0 -9 -10 -17 -22 -19
-15 -2 -23 -10 -23 -23 0 -15 8 -21 33 -23 29 -3 32 -1 32 23 0 48 -36 85 -54
56z m38 -56 c-6 -16 -44 -21 -44 -7 0 14 12 22 31 22 12 0 16 -5 13 -15z"/>
<path d="M1911 2960 c2 -34 3 -37 6 -15 3 17 11 37 18 45 12 14 12 16 -5 16
-17 0 -20 -7 -19 -46z"/>
<path d="M1976 2994 c-19 -18 -20 -28 -6 -55 11 -20 45 -26 54 -10 4 5 -2 7
-12 4 -10 -2 -24 3 -31 11 -12 14 -9 16 23 16 20 0 36 4 36 9 0 12 -29 41 -40
41 -5 0 -16 -7 -24 -16z m44 -9 c11 -13 8 -15 -20 -15 -28 0 -31 2 -20 15 7 8
16 15 20 15 4 0 13 -7 20 -15z"/>
<path d="M2272 2998 c-27 -27 -7 -78 29 -78 10 0 20 4 24 9 3 6 -7 9 -21 8
-15 -1 -29 4 -31 11 -3 8 6 12 26 12 19 0 31 5 31 13 0 16 -20 37 -35 37 -6 0
-16 -5 -23 -12z m46 -16 c2 -7 -7 -12 -22 -12 -27 0 -35 15 -13 23 17 7 30 3
35 -11z"/>
<path d="M2413 3003 c-22 -8 -14 -33 13 -43 29 -12 22 -34 -9 -26 -14 3 -17 2
-10 -5 15 -15 47 -7 51 13 2 12 -5 19 -23 24 -28 7 -29 30 -2 28 9 -1 14 2 11
7 -6 10 -12 10 -31 2z"/>
<path d="M2496 3001 c-4 -5 3 -7 14 -4 14 4 20 0 20 -10 0 -9 -10 -17 -22 -19
-15 -2 -23 -10 -23 -23 0 -15 8 -21 33 -23 29 -3 32 -1 32 23 0 48 -36 85 -54
56z m38 -56 c-6 -16 -44 -21 -44 -7 0 14 12 22 31 22 12 0 16 -5 13 -15z"/>
<path d="M2571 2961 c2 -34 3 -38 6 -16 10 64 42 69 44 7 l1 -37 8 40 c4 22 6
42 4 44 -2 2 -17 5 -34 6 -29 2 -30 1 -29 -44z"/>
<path d="M2657 2999 c6 -8 13 -30 16 -49 4 -28 4 -26 3 9 -1 30 -6 46 -16 49
-12 4 -13 2 -3 -9z"/>
<path d="M2722 2998 c-27 -27 -7 -78 29 -78 10 0 20 4 24 9 3 6 -7 9 -21 8
-15 -1 -29 4 -31 11 -3 8 6 12 26 12 19 0 31 5 31 13 0 16 -20 37 -35 37 -6 0
-16 -5 -23 -12z m46 -16 c2 -7 -7 -12 -22 -12 -27 0 -35 15 -13 23 17 7 30 3
35 -11z"/>
<path d="M3053 2965 c0 -27 2 -38 4 -22 2 15 2 37 0 50 -2 12 -4 0 -4 -28z"/>
<path d="M3096 2994 c-19 -18 -20 -28 -6 -55 11 -20 45 -26 55 -9 3 6 -1 7
-10 4 -15 -6 -45 11 -45 25 0 4 6 16 14 26 12 16 16 17 30 6 9 -7 16 -9 16 -3
0 5 -7 13 -16 16 -21 8 -20 8 -38 -10z"/>
<path d="M3316 2994 c-19 -18 -20 -28 -6 -55 11 -20 45 -26 54 -10 4 5 -2 7
-12 4 -10 -2 -24 3 -31 11 -12 14 -9 16 23 16 20 0 36 4 36 9 0 12 -29 41 -40
41 -5 0 -16 -7 -24 -16z m44 -9 c11 -13 8 -15 -20 -15 -28 0 -31 2 -20 15 7 8
16 15 20 15 4 0 13 -7 20 -15z"/>
<path d="M3416 3001 c-4 -5 3 -7 14 -4 14 4 20 0 20 -10 0 -9 -10 -17 -22 -19
-15 -2 -23 -10 -23 -23 0 -15 8 -21 33 -23 29 -3 32 -1 32 23 0 48 -36 85 -54
56z m38 -56 c-6 -16 -44 -21 -44 -7 0 14 12 22 31 22 12 0 16 -5 13 -15z"/>
<path d="M3502 2998 c-27 -27 -7 -78 29 -78 10 0 20 4 24 9 3 6 -7 9 -22 8
-23 -2 -29 2 -31 24 -4 31 22 46 47 27 14 -12 14 -11 2 5 -16 20 -32 22 -49 5z"/>
<path d="M3623 2993 c8 -10 17 -31 20 -48 4 -29 4 -28 6 6 1 34 -13 59 -33 59
-5 0 -2 -8 7 -17z"/>
<path d="M3823 2965 c0 -27 2 -38 4 -22 2 15 2 37 0 50 -2 12 -4 0 -4 -28z"/>
<path d="M3866 2994 c-19 -18 -20 -28 -6 -55 11 -20 45 -26 54 -10 4 5 -2 7
-12 4 -10 -2 -24 3 -31 11 -12 14 -9 16 23 16 20 0 36 4 36 9 0 12 -29 41 -40
41 -5 0 -16 -7 -24 -16z m44 -9 c11 -13 8 -15 -20 -15 -28 0 -31 2 -20 15 7 8
16 15 20 15 4 0 13 -7 20 -15z"/>
<path d="M4060 2996 c-15 -19 -9 -56 11 -69 25 -16 49 -1 49 31 0 46 -35 68
-60 38z m45 -32 c0 -22 -5 -29 -20 -29 -24 0 -34 43 -13 56 21 14 33 4 33 -27z"/>
<path d="M4251 2960 c2 -34 3 -37 6 -15 3 17 11 37 18 45 12 14 12 16 -5 16
-17 0 -20 -7 -19 -46z"/>
<path d="M4316 2994 c-19 -18 -20 -28 -6 -55 11 -20 45 -26 54 -10 4 5 -2 7
-12 4 -10 -2 -24 3 -31 11 -12 14 -9 16 23 16 20 0 36 4 36 9 0 12 -29 41 -40
41 -5 0 -16 -7 -24 -16z m44 -9 c11 -13 8 -15 -20 -15 -28 0 -31 2 -20 15 7 8
16 15 20 15 4 0 13 -7 20 -15z"/>
<path d="M4412 2998 c-27 -27 -7 -78 29 -78 10 0 20 4 24 9 3 6 -7 9 -21 8
-15 -1 -29 4 -31 11 -3 8 6 12 26 12 19 0 31 5 31 13 0 16 -20 37 -35 37 -6 0
-16 -5 -23 -12z m46 -16 c2 -7 -7 -12 -22 -12 -27 0 -35 15 -13 23 17 7 30 3
35 -11z"/>
<path d="M4508 3003 c23 -4 30 -27 12 -38 -5 -3 -15 -15 -20 -26 -10 -17 -7
-19 27 -18 35 1 36 2 10 8 l-29 6 21 27 c29 37 26 48 -11 47 -24 -1 -27 -3
-10 -6z"/>
<path d="M4591 2996 c-7 -8 -11 -27 -9 -43 2 -21 9 -29 27 -31 13 -2 28 1 34
7 7 7 2 10 -18 8 -15 -1 -30 4 -32 11 -3 8 6 12 26 12 32 0 41 16 19 38 -16
16 -33 15 -47 -2z m39 -11 c11 -13 8 -15 -14 -15 -25 0 -33 10 -19 23 10 11
19 8 33 -8z"/>
<path d="M4723 2965 c0 -27 2 -38 4 -22 2 15 2 37 0 50 -2 12 -4 0 -4 -28z"/>
<path d="M4865 3000 c-4 -6 3 -9 16 -7 12 1 24 -4 26 -10 3 -8 -4 -13 -15 -13
-23 0 -46 -25 -37 -40 3 -5 20 -9 36 -8 26 2 29 6 29 39 0 24 -5 39 -16 43
-22 8 -32 8 -39 -4z m45 -49 c0 -6 -5 -13 -10 -16 -15 -9 -43 3 -35 15 8 13
45 13 45 1z"/>
<path d="M5053 2965 c0 -27 2 -38 4 -22 2 15 2 37 0 50 -2 12 -4 0 -4 -28z"/>
<path d="M5152 2998 c-18 -18 -15 -27 13 -38 35 -13 33 -34 -2 -25 -21 5 -25
4 -17 -5 16 -16 48 -8 52 13 2 11 -6 20 -23 27 -29 11 -24 35 6 27 11 -3 17
-1 13 4 -7 13 -28 11 -42 -3z"/>
<path d="M5288 2999 c-21 -12 -24 -49 -6 -67 14 -14 44 -16 53 -3 3 6 -7 9
-22 8 -22 -2 -29 3 -31 19 -4 29 23 51 43 34 9 -7 15 -8 15 -2 0 5 -7 13 -16
16 -19 7 -15 8 -36 -5z"/>
<path d="M5361 2980 c-1 -46 9 -61 42 -58 25 2 27 5 26 48 l-2 45 -6 -40 c-7
-46 -37 -62 -45 -23 -3 13 -7 32 -9 43 -3 11 -5 4 -6 -15z"/>
<path d="M5462 2960 c1 -40 2 -41 5 -10 2 19 11 40 20 47 13 10 13 12 -6 10
-18 -1 -21 -7 -19 -47z"/>
<path d="M5522 2960 c1 -40 2 -41 5 -10 2 19 11 40 20 47 13 10 13 12 -6 10
-18 -1 -21 -7 -19 -47z"/>
<path d="M5582 2998 c-27 -27 -7 -78 29 -78 10 0 20 4 24 9 3 6 -7 9 -21 8
-15 -1 -29 4 -31 11 -3 8 6 12 26 12 19 0 31 5 31 13 0 16 -20 37 -35 37 -6 0
-16 -5 -23 -12z m46 -16 c2 -7 -7 -12 -22 -12 -27 0 -35 15 -13 23 17 7 30 3
35 -11z"/>
<path d="M5671 2961 l2 -46 6 40 c4 26 11 40 21 40 10 0 17 -14 21 -40 l7 -40
-2 45 c-1 42 -3 45 -28 46 -27 1 -28 -1 -27 -45z"/>
<path d="M5861 3002 c-1 -7 6 -29 15 -50 l15 -37 13 25 c21 39 30 74 18 66 -6
-3 -14 -21 -18 -39 l-7 -32 -18 40 c-10 22 -18 34 -18 27z"/>
<path d="M5960 3000 c-12 -8 -10 -10 9 -8 31 4 40 -19 9 -24 -15 -2 -24 -11
-26 -26 -3 -19 1 -22 27 -20 29 2 31 5 31 39 0 24 -5 39 -16 43 -19 7 -16 8
-34 -4z m38 -52 c-7 -19 -38 -22 -38 -4 0 10 9 16 21 16 12 0 19 -5 17 -12z"/>
<path d="M6084 2970 c1 -42 3 -45 29 -46 26 -1 27 1 26 45 l-2 46 -6 -40 c-4
-26 -11 -40 -21 -40 -10 0 -17 14 -21 40 l-7 40 2 -45z"/>
<path d="M6181 2996 c-7 -8 -11 -27 -9 -43 2 -21 9 -29 27 -31 13 -2 28 1 34
7 7 7 2 10 -18 8 -15 -1 -30 4 -32 11 -3 8 6 12 26 12 32 0 41 16 19 38 -16
16 -33 15 -47 -2z m39 -11 c11 -13 8 -15 -14 -15 -25 0 -33 10 -19 23 10 11
19 8 33 -8z"/>
<path d="M6416 2994 c-19 -18 -20 -28 -6 -55 11 -20 45 -26 54 -10 4 5 -2 7
-12 4 -10 -2 -24 3 -31 11 -12 14 -9 16 23 16 20 0 36 4 36 9 0 12 -29 41 -40
41 -5 0 -16 -7 -24 -16z m44 -9 c11 -13 8 -15 -20 -15 -28 0 -31 2 -20 15 7 8
16 15 20 15 4 0 13 -7 20 -15z"/>
<path d="M6564 2971 c16 -54 22 -57 36 -19 l12 33 10 -34 c5 -19 13 -30 18
-25 12 13 30 85 19 79 -5 -4 -9 -15 -9 -25 0 -32 -18 -32 -25 0 -9 39 -21 38
-30 -2 l-7 -33 -14 33 c-19 44 -24 40 -10 -7z"/>
<path d="M6696 2994 c-19 -18 -20 -28 -6 -55 11 -20 45 -26 54 -10 4 5 -2 7
-12 4 -10 -2 -24 3 -31 11 -12 14 -9 16 23 16 20 0 36 4 36 9 0 12 -29 41 -40
41 -5 0 -16 -7 -24 -16z m44 -9 c11 -13 8 -15 -20 -15 -28 0 -31 2 -20 15 7 8
16 15 20 15 4 0 13 -7 20 -15z"/>
<path d="M6791 2996 c-7 -8 -11 -27 -9 -43 2 -21 9 -29 27 -31 13 -2 28 1 34
7 7 7 2 10 -18 8 -15 -1 -30 4 -32 11 -3 8 6 12 26 12 32 0 41 16 19 38 -16
16 -33 15 -47 -2z m39 -11 c11 -13 8 -15 -14 -15 -25 0 -33 10 -19 23 10 11
19 8 33 -8z"/>
<path d="M6872 2960 c1 -35 2 -38 5 -13 5 35 29 62 43 47 5 -5 10 -25 13 -44
l4 -35 1 37 c2 39 -9 53 -45 53 -21 1 -23 -3 -21 -45z"/>
<path d="M7011 2960 c2 -34 3 -37 6 -15 3 17 11 37 18 45 12 14 12 16 -5 16
-17 0 -20 -7 -19 -46z"/>
<path d="M7076 2994 c-19 -18 -20 -28 -6 -55 12 -21 40 -25 58 -7 18 18 14 56
-7 68 -25 13 -27 13 -45 -6z m42 -6 c17 -17 15 -48 -4 -55 -8 -3 -22 1 -31 9
-12 12 -13 20 -4 37 13 24 22 26 39 9z"/>
<path d="M7253 3003 c-22 -8 -14 -33 13 -43 29 -12 22 -34 -9 -26 -14 3 -17 2
-10 -5 15 -15 47 -7 51 13 2 12 -5 19 -23 24 -28 7 -29 30 -2 28 9 -1 14 2 11
7 -6 10 -12 10 -31 2z"/>
<path d="M7320 2930 c0 -5 5 -10 10 -10 6 0 10 5 10 10 0 6 -4 10 -10 10 -5 0
-10 -4 -10 -10z"/>
<path d="M2490 2400 c-11 -11 -20 -24 -20 -30 0 -15 29 -12 46 5 32 31 91 3
64 -30 -7 -8 -23 -15 -36 -15 -37 0 -30 -28 9 -32 27 -2 32 -7 32 -28 0 -21
-5 -26 -33 -28 -22 -2 -34 2 -38 12 -8 20 -44 21 -44 2 0 -23 41 -46 80 -46
68 0 102 49 63 92 -13 14 -14 21 -5 30 19 19 14 56 -10 72 -31 22 -84 20 -108
-4z"/>
<path d="M3202 2404 c-12 -8 -22 -22 -22 -30 0 -19 36 -18 44 2 9 25 60 14 64
-13 3 -18 -5 -26 -35 -40 -58 -26 -73 -42 -73 -80 l0 -33 75 0 c60 0 75 3 75
15 0 12 -13 15 -60 15 -73 0 -81 19 -17 45 55 22 77 42 77 72 0 54 -78 83
-128 47z"/>
<path d="M3904 2397 c-20 -18 -28 -35 -31 -73 -5 -43 -2 -54 22 -82 48 -57
135 -37 135 31 0 49 -55 79 -95 53 -24 -16 -25 -16 -25 7 0 43 63 78 76 42 7
-17 44 -21 44 -5 0 20 -41 50 -69 50 -17 0 -42 -10 -57 -23z m80 -103 c18 -18
6 -54 -19 -54 -41 0 -59 32 -33 58 16 16 33 15 52 -4z"/>
<path d="M4616 2351 c-31 -39 -56 -75 -56 -80 0 -7 23 -11 55 -11 52 0 55 -1
55 -25 0 -16 6 -25 15 -25 9 0 15 9 15 21 0 12 8 23 20 26 11 3 20 12 20 19 0
8 -9 14 -20 14 -18 0 -20 7 -20 65 0 49 -3 65 -14 65 -8 0 -39 -31 -70 -69z
m54 -31 c0 -38 -2 -40 -30 -40 -16 0 -30 2 -30 6 0 5 53 74 58 74 1 0 2 -18 2
-40z"/>
<path d="M5304 2397 c-20 -18 -28 -35 -31 -73 -5 -43 -2 -54 22 -82 48 -57
135 -37 135 31 0 49 -55 79 -95 53 -24 -16 -25 -16 -25 7 0 43 63 78 76 42 7
-17 44 -21 44 -5 0 20 -41 50 -69 50 -17 0 -42 -10 -57 -23z m80 -103 c18 -18
6 -54 -19 -54 -41 0 -59 32 -33 58 16 16 33 15 52 -4z"/>
<path d="M2516 1651 c-31 -39 -56 -75 -56 -80 0 -7 23 -11 55 -11 52 0 55 -1
55 -25 0 -16 6 -25 15 -25 9 0 15 9 15 21 0 12 8 23 20 26 11 3 20 12 20 19 0
8 -9 14 -20 14 -18 0 -20 7 -20 65 0 49 -3 65 -14 65 -8 0 -39 -31 -70 -69z
m54 -31 c0 -38 -2 -40 -30 -40 -16 0 -30 2 -30 6 0 5 53 74 58 74 1 0 2 -18 2
-40z"/>
<path d="M3196 1689 c-14 -71 -10 -79 39 -79 32 0 47 -5 54 -18 21 -40 -39
-73 -69 -37 -15 19 -40 20 -40 2 0 -45 93 -64 130 -27 44 44 12 110 -53 110
-24 0 -28 4 -25 23 2 18 10 23 46 25 28 2 42 8 42 18 0 11 -14 14 -59 14 -58
0 -59 -1 -65 -31z"/>
<path d="M3890 1700 c-11 -11 -20 -24 -20 -30 0 -15 29 -12 46 5 32 31 91 3
64 -30 -7 -8 -23 -15 -36 -15 -37 0 -30 -28 9 -32 27 -2 32 -7 32 -28 0 -21
-5 -26 -33 -28 -22 -2 -34 2 -38 12 -8 20 -44 21 -44 2 0 -23 41 -46 80 -46
68 0 102 49 63 92 -13 14 -14 21 -5 30 19 19 14 56 -10 72 -31 22 -84 20 -108
-4z"/>
<path d="M4602 1704 c-12 -8 -22 -22 -22 -30 0 -19 36 -18 44 2 9 25 60 14 64
-13 3 -18 -5 -26 -35 -40 -58 -26 -73 -42 -73 -80 l0 -33 75 0 c60 0 75 3 75
15 0 12 -13 15 -60 15 -73 0 -81 19 -17 45 55 22 77 42 77 72 0 54 -78 83
-128 47z"/>
<path d="M5296 1689 c-14 -71 -10 -79 39 -79 32 0 47 -5 54 -18 21 -40 -39
-73 -69 -37 -15 19 -40 20 -40 2 0 -45 93 -64 130 -27 44 44 12 110 -53 110
-24 0 -28 4 -25 23 2 18 10 23 46 25 28 2 42 8 42 18 0 11 -14 14 -59 14 -58
0 -59 -1 -65 -31z"/>
<path d="M3220 760 c-19 -19 -20 -33 -20 -230 0 -197 1 -211 20 -230 20 -20
33 -20 730 -20 697 0 710 0 730 20 19 19 20 33 20 230 0 197 -1 211 -20 230
-20 20 -33 20 -730 20 -697 0 -710 0 -730 -20z m830 -220 c0 -56 -3 -70 -15
-70 -12 0 -15 14 -15 63 0 35 3 67 7 70 17 18 23 1 23 -63z m60 -6 c0 -50 -3
-64 -15 -64 -12 0 -15 14 -15 63 0 35 3 67 6 70 16 15 24 -9 24 -69z m-239 56
c22 -12 24 -32 7 -60 -10 -15 -10 -22 0 -32 17 -17 15 -28 -7 -28 -11 0 -23 9
-26 20 -3 11 -11 20 -16 20 -5 0 -9 -9 -9 -20 0 -11 -7 -20 -15 -20 -12 0 -15
14 -15 65 l0 65 31 0 c17 0 39 -5 50 -10z m117 -32 c7 -7 12 -27 12 -45 0 -25
-6 -36 -24 -44 -42 -20 -74 9 -66 61 5 37 52 54 78 28z"/>
<path d="M3820 555 c0 -8 9 -15 20 -15 11 0 20 7 20 15 0 8 -9 15 -20 15 -11
0 -20 -7 -20 -15z"/>
<path d="M3940 515 c0 -16 6 -25 15 -25 9 0 15 9 15 25 0 16 -6 25 -15 25 -9
0 -15 -9 -15 -25z"/>
</g>
</svg>
